<svg width="100" height="64" viewBox="0 0 100 64" fill="none" xmlns="http://www.w3.org/2000/svg">
<path d="M92.1923 25.0903C91.6554 25.9025 91.4602 26.88 91.2965 27.899C91.096 29.1395 90.8843 30.3304 90.4456 31.4982C89.9186 32.8976 89.0331 34.4567 87.4925 35.6771C85.9033 31.3814 83.5889 27.3904 80.6499 23.8776C82.4859 23.1438 84.2879 23.1551 85.7696 23.3995C87.0002 23.6033 88.1375 24.0155 89.3126 24.4618C90.2763 24.83 91.2204 25.1499 92.192 25.0903H92.1923ZM74.3131 7.21181L74.3125 7.2128L74.3138 7.21247C74.2543 8.18374 74.5738 9.12788 74.9417 10.0919C75.3883 11.2669 75.8005 12.4039 76.0046 13.6346C76.2487 15.1173 76.26 16.9215 75.5242 18.7592C72.0059 15.8246 68.01 13.5155 63.7105 11.9325C64.9336 10.3787 66.5 9.48781 67.9056 8.95851C69.0734 8.51985 70.2643 8.30846 71.5055 8.10732C72.5238 7.9439 73.5013 7.74938 74.3131 7.21181ZM89.3748 42.6956C91.318 42.9831 92.8642 43.8895 94.0197 44.8373C94.9834 45.6293 95.7618 46.5549 96.5568 47.5295C97.2068 48.3291 97.8648 49.0784 98.7355 49.5127H89.9626C89.9603 47.2278 89.7634 44.9472 89.3748 42.6956ZM25.4681 7.21247L25.4687 7.21313V7.21181C26.2806 7.74905 27.2581 7.94357 28.2767 8.10765C29.5173 8.30813 30.7082 8.51985 31.876 8.95818C33.2816 9.48748 34.848 10.3787 36.0707 11.9322C31.7712 13.515 27.7754 15.8242 24.2573 18.7592C23.5216 16.9215 23.5322 15.1173 23.7773 13.6342C23.9811 12.4036 24.3933 11.2666 24.8395 10.0912C25.2074 9.12755 25.5276 8.18374 25.4681 7.21247ZM7.58956 25.091L7.59055 25.0913L7.59022 25.0907C8.56149 25.1499 9.50564 24.83 10.4696 24.4621C11.6447 24.0155 12.7817 23.6033 14.012 23.3995C15.494 23.1554 17.296 23.1442 19.132 23.8779C16.1934 27.3909 13.8791 31.3819 12.2898 35.6774C10.7488 34.4567 9.86358 32.8979 9.33626 31.4982C8.8976 30.3304 8.68621 29.1395 8.48541 27.899C8.32165 26.88 8.1268 25.9028 7.58956 25.091ZM1.04639 49.513C1.91742 49.0787 2.57475 48.3297 3.22546 47.5298C4.01941 46.5556 4.79848 45.6299 5.76181 44.8383C6.91768 43.8899 8.46291 42.9834 10.4064 42.6963C10.018 44.9478 9.82179 47.2283 9.81991 49.513H1.04639ZM49.8911 0.667969V0.668961L49.8918 0.667969C50.3258 1.53933 51.0751 2.19666 51.8753 2.84804C52.8496 3.64199 53.7755 4.42073 54.5672 5.38406C55.5209 6.5472 56.433 8.10468 56.7142 10.0657C54.4605 9.67882 52.178 9.48437 49.8914 9.4845C47.5652 9.4845 45.2862 9.68498 43.0681 10.0657C43.3493 8.10501 44.2613 6.5472 45.2151 5.38472C46.0074 4.42073 46.933 3.64199 47.9072 2.84737C48.7071 2.19699 49.4564 1.53933 49.8911 0.667969Z" fill="#FAB60F"/>
<path d="M41.7414 49.5215L44.7564 49.5129C45.1524 46.9663 44.378 45.0056 41.8023 45.4737C39.6315 45.8677 37.2999 48.0243 35.8906 49.5129L39.8657 49.4954C40.3086 49.2043 41.1757 48.8718 41.5317 49.1193C41.6647 49.2119 41.7345 49.3436 41.7414 49.5215Z" fill="#175CD3"/>
<path d="M55.3002 49.513H59.0616C59.2405 45.0711 58.525 40.4844 56.46 36.5156C54.5817 32.9048 51.477 30.4504 47.4576 29.8573C41.59 28.9915 35.6694 31.4756 30.6638 35.0292C25.214 38.8984 20.7156 44.1534 16.7842 49.5133L21.753 49.506C26.2263 43.1656 36.5149 33.5399 44.0836 33.4771C46.4953 33.4572 48.9479 34.0232 50.7611 35.6409C52.0748 36.8133 53.6676 39.0897 53.5896 40.9373C53.5433 42.0326 52.571 42.3687 51.6388 42.0289C50.9146 41.7656 50.4032 41.1037 49.8964 40.4076C48.2496 38.1465 45.6808 37.0399 42.8633 37.4257C39.5025 37.8852 35.3369 40.4946 32.65 42.8676C30.3333 44.9146 28.2062 47.1543 26.1998 49.5133H31.5418C33.4999 47.1493 35.5675 45.1333 38.2252 43.4779C39.0662 42.9542 40.1019 42.4001 41.1907 42.0256C43.9371 41.0818 46.6699 41.321 47.8837 44.7403C48.3604 46.0847 48.4305 47.2641 48.2916 49.425V49.5133H51.9239L51.9332 49.4021C51.9358 48.2188 51.91 47.4212 52.0169 46.2485C52.1085 45.2375 52.4228 44.1902 53.3616 44.0658C55.3568 43.6476 55.2612 48.0865 55.3002 49.5133V49.513Z" fill="#175CD3"/>
<path d="M63.0165 49.513H66.8093C66.9929 45.3921 66.6396 40.5096 65.3061 36.2464C65.049 35.4182 64.7467 34.6047 64.4007 33.8096C63.5935 31.9673 62.5071 30.2996 61.2123 28.7584C59.7726 27.0464 58.0576 25.5068 56.124 24.2944C55.5507 23.9345 54.9589 23.6051 54.3509 23.3076V23.3069C53.7403 23.0081 53.1133 22.7442 52.4728 22.5166L52.4702 22.5156C45.0847 19.8932 37.615 21.758 31.3487 25.1664C30.1423 25.8244 28.9687 26.5408 27.8321 27.3131C26.7367 28.0567 25.6736 28.8468 24.6457 29.6814L24.6434 29.683C23.1779 30.8732 21.7915 32.1576 20.493 33.5281C20.2029 33.8354 19.9164 34.1483 19.6378 34.4643C18.8925 35.3095 17.7439 36.4941 18.0847 37.7188C18.3546 38.6901 19.6081 38.4036 20.0444 38.0695C20.7147 37.7099 21.4504 37.1399 22.0806 36.6069C22.9331 35.8851 23.7386 35.1077 24.5832 34.3759C27.9982 31.4152 31.5581 29.1322 35.0644 27.587C35.8164 27.2551 36.5809 26.9524 37.3563 26.6795C38.1013 26.4172 38.857 26.1861 39.6213 25.9868L39.6247 25.9858C46.1493 24.2921 53.239 25.3894 57.7784 30.7099C62.1518 35.8352 62.9497 42.6956 63.0165 49.5133V49.513ZM15.9592 43.7198C16.3668 43.3394 16.7819 42.8431 17.2146 42.294C17.82 41.5258 17.8809 40.7822 17.6414 40.2456C17.5549 40.0499 17.4248 39.8767 17.2609 39.7391C17.1025 39.6062 16.9149 39.5126 16.7135 39.4658C16.2202 39.353 15.63 39.5297 15.1289 40.1394C14.5625 40.8285 13.7801 42.0072 13.6203 43.0499C13.5897 43.2361 13.5837 43.4255 13.6025 43.6133C13.6223 43.7866 13.6686 43.9514 13.7464 44.1019L13.747 44.1032C13.8747 44.348 14.0901 44.477 14.3769 44.4879C14.4368 44.4899 14.5016 44.4873 14.5704 44.4797C14.6376 44.4724 14.7104 44.4588 14.7878 44.441V44.4416L14.7918 44.4406C15.1781 44.348 15.5645 44.088 15.9592 43.7195V43.7198Z" fill="#175CD3"/>
<path d="M72.5035 49.5142L72.5303 49.5136H72.5439C72.9409 49.5354 73.6296 49.3528 74.027 48.6826C74.106 48.5486 74.1742 48.3954 74.2254 48.2218C74.2784 48.0448 74.3148 47.844 74.33 47.6187L74.333 47.5724C74.6343 37.0392 71.4082 28.319 65.9309 22.3951C64.8768 21.2535 63.7255 20.2057 62.4898 19.2636C61.2673 18.3321 59.9645 17.5108 58.5968 16.8096H58.5964L58.5746 16.799L58.574 16.7984C53.9703 14.4456 48.7488 13.5422 43.6241 13.9765C41.6259 14.1453 39.65 14.5164 37.7267 15.0841L37.7131 15.0884C32.4426 16.6475 27.5379 19.7423 23.541 23.8027C22.3748 24.987 21.2901 26.249 20.2944 27.5799C23.0974 25.1617 26.1045 23.0405 29.2499 21.355C29.9511 20.9787 30.6632 20.623 31.3853 20.2885C32.0996 19.9575 32.8241 19.649 33.5578 19.3635L33.5598 19.3628L33.5617 19.3618C36.3406 18.2817 39.0801 17.593 41.8202 17.2853C44.56 16.9777 47.3018 17.0504 50.0862 17.4931C52.0678 17.8087 54.0018 18.3274 55.7442 19.0532C56.0819 19.1938 56.4147 19.3433 56.7402 19.5014C57.0618 19.6573 57.3784 19.8227 57.6884 19.9977H57.6887L57.6937 20.0003L57.6933 20.0006C63.8276 23.3597 68.0892 30.2519 69.9662 38.034C70.7031 41.0936 71.0654 44.2315 71.0453 47.3785V47.3792L71.0443 47.4698C71.0758 48.3124 71.3646 49.0177 71.8595 49.3349C71.9514 49.3938 72.0513 49.4401 72.1575 49.4699H72.1582C72.2667 49.5007 72.3818 49.5162 72.5035 49.5142Z" fill="#175CD3"/>
<path d="M61.5356 14.4089C76.2843 19.2802 86.9428 33.1496 87.005 49.5136H79.7073C80.1903 35.2191 73.9514 22.3164 61.5356 14.4089Z" fill="#FAB60F"/>
<path d="M18.7136 60.9913H15.7617L15.0306 63.5631H12.6782L15.7912 53.7134H18.7718L21.9725 63.5631H19.5175L18.7136 60.9913ZM16.0979 59.325H18.3629C17.7688 57.4007 17.3837 56.0807 17.2084 55.3645H17.179L16.7115 57.2352L16.0979 59.325ZM29.5564 60.9913H26.6042L25.8737 63.5631H23.521L26.6333 53.7134H29.6149L32.8152 63.5631H30.3603L29.5564 60.9913ZM26.9403 59.325H29.2054C28.6112 57.4007 28.2262 56.0807 28.0508 55.3645H28.0217L27.5543 57.2352L26.9403 59.325ZM35.0648 63.5194V53.8451C36.039 53.6988 37.0814 53.6257 38.192 53.6257C40.2916 53.6257 41.7992 54.0641 42.7129 54.9434C43.6259 55.8227 44.0814 56.9723 44.0814 58.3898C44.0814 60.0657 43.5627 61.3638 42.5226 62.2845C41.4826 63.2048 39.8778 63.6653 37.71 63.6653C36.7066 63.6653 35.8246 63.6167 35.0648 63.5194ZM37.3298 55.4525V61.868C37.4566 61.8971 37.7295 61.9116 38.1483 61.9116C39.2734 61.9116 40.1454 61.6146 40.7617 61.0227C41.378 60.4306 41.6847 59.5834 41.6847 58.4775C41.6847 57.4642 41.4048 56.6921 40.8421 56.1611C40.2794 55.6301 39.4686 55.3645 38.4113 55.3645C37.968 55.3645 37.6074 55.3943 37.3298 55.4525ZM46.5066 53.7134H48.7717V57.4982H52.6442V53.7137H54.9097V63.5631H52.6442V59.4567H48.7717V63.5631H46.5066V53.7134ZM63.1215 60.9913H60.1696L59.4388 63.5631H57.0861L60.1991 53.7134H63.18L66.3807 63.5631H63.9253L63.1215 60.9913ZM60.5057 59.325H62.7708C62.1767 57.4007 61.7916 56.0807 61.6163 55.3645H61.5871L61.1194 57.2352L60.5057 59.325ZM73.9642 60.9913H71.0121L70.2813 63.5631H67.9285L71.0412 53.7134H74.0225L77.2228 63.5631H74.7681L73.9642 60.9913ZM71.3482 59.325H73.6132C73.0191 57.4007 72.634 56.0807 72.4587 55.3645H72.4296L71.9618 57.2352L71.3482 59.325ZM79.4723 63.5627V53.8451C80.301 53.6988 81.3189 53.6257 82.527 53.6257C84.0177 53.6257 85.0892 53.8719 85.7419 54.3638C86.3946 54.8557 86.7211 55.5597 86.7211 56.4754C86.7211 57.0212 86.5577 57.5131 86.2288 57.9541C85.9091 58.3884 85.4637 58.7139 84.9529 58.8867V58.9449C85.5666 59.1742 86.0098 59.7782 86.2828 60.7571C86.7843 62.5203 87.0569 63.4559 87.1009 63.5631H84.7918C84.5973 63.1978 84.3634 62.433 84.0905 61.2685C83.9542 60.6843 83.7689 60.2751 83.5354 60.0412C83.3015 59.8073 82.9263 59.6906 82.4099 59.6906H81.7086V63.5631H79.4723V63.5627ZM81.7086 55.3645V58.0682H82.6438C83.2088 58.0682 83.6544 57.9392 83.981 57.6835C84.3075 57.4278 84.4706 57.0844 84.4706 56.6507C84.4706 56.2173 84.3243 55.8809 84.0296 55.645C83.7352 55.4085 83.316 55.2917 82.7755 55.2917C82.2445 55.2917 81.8889 55.3162 81.7086 55.3645Z" fill="#175CD3"/>
</svg>
