<svg width="383" height="221" viewBox="0 0 383 221" fill="none" xmlns="http://www.w3.org/2000/svg">
<mask id="mask0_9955_50294" style="mask-type:alpha" maskUnits="userSpaceOnUse" x="0" y="0" width="383" height="221">
<rect width="383" height="221" fill="#D9D9D9"/>
</mask>
<g mask="url(#mask0_9955_50294)">
<rect width="32.5413" height="219.9" rx="16.2707" transform="matrix(0.5118 -0.859104 -0.859104 -0.5118 269.902 162.62)" fill="#EFF1F5"/>
<rect width="32.5413" height="36.4095" rx="16.2707" transform="matrix(0.5118 -0.859104 -0.859104 -0.5118 306.351 184.334)" fill="#EFF1F5"/>
<rect width="32.5413" height="219.9" rx="16.2707" transform="matrix(0.5118 -0.859104 -0.859104 -0.5118 356.991 173.108)" fill="#EFF1F5"/>
<rect width="32.5413" height="219.9" rx="16.2707" transform="matrix(0.5118 -0.859104 -0.859104 -0.5118 277.46 208.516)" fill="#EFF1F5"/>
<rect width="32.5413" height="79.7122" rx="16.2707" transform="matrix(0.5118 -0.859104 -0.859104 -0.5118 82.8335 90.9466)" fill="#EFF1F5"/>
<rect width="32.5413" height="219.9" rx="16.2707" transform="matrix(0.5118 -0.859104 -0.859104 -0.5118 209.782 210.402)" fill="#EFF1F5"/>
<path d="M211.605 175.36C211.684 173.783 210.739 173.546 209.439 173.546C195.261 173.546 181.082 173.546 166.904 173.546C150.993 173.546 135.121 173.546 119.209 173.546C114.208 173.546 110.309 170.509 109.206 165.817C108.182 161.518 110.702 159.191 114.365 159.231C130.276 159.349 146.148 159.27 162.06 159.27C163.005 159.27 163.674 159.152 163.714 160.572C163.793 164.712 166.707 167.749 170.882 167.867C176.474 167.985 182.106 167.985 187.699 167.867C191.834 167.749 194.749 164.752 194.906 160.572C194.946 159.389 195.379 159.231 196.364 159.231C212.354 159.27 228.344 159.231 244.334 159.27C248.194 159.27 250.005 161.439 249.375 165.264C248.587 170.115 244.57 173.546 239.568 173.585C233.897 173.625 228.265 173.625 222.594 173.585C221.412 173.585 220.703 173.98 220.428 175.084C219.443 175.202 218.419 174.768 217.513 175.399C217.277 175.281 217.198 175.044 217.08 174.847C216.607 173.822 215.938 173.822 215.189 174.571C214.992 174.768 214.835 175.005 214.52 175.084C213.535 175.163 212.511 174.729 211.605 175.36Z" fill="#98A2B3"/>
<path d="M124.094 75.6272C124.606 75.1934 125.236 75.3905 125.788 75.3905C135.91 75.3905 146.071 75.3905 156.193 75.3905C156.705 75.3905 157.256 75.3905 157.926 75.3905C157.295 73.7343 156.114 72.5118 155.681 70.9738C156.035 70.9738 156.39 70.9738 156.705 70.9343C158.044 70.7371 158.871 71.1709 159.461 72.4723C159.934 73.5371 160.722 74.4441 161.588 75.706C160.407 75.706 159.343 75.706 158.319 75.706C146.937 75.6666 135.516 75.6272 124.094 75.6272Z" fill="#98A2B3"/>
<path d="M202.705 70.9738C202.351 72.1963 201.721 73.34 201.051 74.4047C200.5 75.3117 200.854 75.3906 201.642 75.3906C203.178 75.3906 204.674 75.3906 206.21 75.3906C214.993 75.3906 223.815 75.3906 232.598 75.3906C233.189 75.3906 233.78 75.1934 234.292 75.6272C229.172 75.6667 224.052 75.6667 218.971 75.7061C212.157 75.7061 205.305 75.6667 198.491 75.6667C198.058 75.6667 197.625 75.6667 197.073 75.6667C198.058 74.0892 198.806 72.5907 199.83 71.3287C200.5 70.4217 201.721 71.0133 202.705 70.9738Z" fill="#98A2B3"/>
<path d="M115.823 129.536C117.595 129.615 117.91 129.299 117.91 127.406C117.91 110.41 117.91 93.4128 117.91 76.416C117.91 72.5513 119.525 70.9345 123.385 70.9345C134.176 70.9345 144.928 70.9739 155.719 70.9739C156.94 71.9204 157.413 73.3401 158.043 74.6414C158.319 75.233 158.004 75.5485 157.334 75.509C156.98 75.509 156.664 75.509 156.31 75.509C146.109 75.509 135.909 75.509 125.708 75.509C125.157 75.509 124.645 75.3907 124.093 75.6273C123.03 75.7851 122.597 76.4555 122.636 77.4808C122.636 77.7174 122.636 77.954 122.636 78.2301C122.636 101.773 122.636 125.356 122.636 148.899C122.636 151.225 122.912 151.541 125.275 151.541C161.272 151.541 197.23 151.541 233.228 151.541C235.591 151.541 235.867 151.265 235.867 148.938C235.867 125.316 235.867 101.734 235.867 78.1118C235.867 76.9287 235.945 75.7456 234.291 75.6273C233.779 75.4301 233.228 75.509 232.676 75.509C222.515 75.509 212.315 75.509 202.154 75.509C200.184 75.509 200.066 75.3513 201.011 73.5372C201.484 72.6302 201.799 71.6049 202.705 70.9739C208.494 70.9345 214.323 70.9345 220.113 70.8951C225.233 70.8951 230.353 70.8951 235.473 70.8951C238.86 70.8951 240.593 72.5513 240.593 75.9428C240.593 102.246 240.593 128.55 240.632 154.893C240.632 155.958 240.396 156.313 239.254 156.313C199.278 156.273 159.343 156.273 119.367 156.313C118.186 156.313 117.91 155.997 117.91 154.853C117.989 150.121 117.95 145.389 117.95 140.657C117.95 138.921 117.595 138.606 115.862 138.645C116.729 137.66 116.729 136.398 115.862 135.451C116.295 134.86 117.516 135.136 117.477 134.031C117.438 133.046 116.335 133.322 115.862 132.77C116.689 131.784 116.689 130.482 115.823 129.536Z" fill="#98A2B3"/>
<path d="M211.606 175.36C211.33 176.188 210.739 176.504 209.912 176.504C209.321 176.504 208.731 176.504 208.14 176.504C178.562 176.504 148.984 176.504 119.407 176.504C112.632 176.504 107.473 172.363 106.213 165.935C104.953 159.586 109.521 155.958 113.814 156.273C114.917 156.352 114.956 155.839 114.956 154.972C114.917 150.2 114.956 145.428 114.917 140.617C114.917 139.789 114.996 139.04 115.783 138.606C117.556 138.172 118.264 138.685 118.304 140.696C118.383 144.482 118.304 148.268 118.343 152.093C118.383 156.392 117.949 155.918 122.124 155.918C160.406 155.918 198.688 155.918 236.969 155.918C239.963 155.918 239.963 155.918 239.963 152.961C239.963 127.682 239.963 102.404 239.963 77.126C239.963 76.4556 240.002 75.7457 239.923 75.0753C239.766 73.143 238.505 71.8022 236.575 71.4867C235.788 71.3684 235 71.4078 234.212 71.4078C223.736 71.3684 213.26 71.4473 202.784 71.3684C200.263 70.7769 199.357 72.6303 198.333 74.3655C198.018 74.9176 198.215 75.1936 198.806 75.1936C199.751 75.1936 200.657 75.2331 201.602 75.2331C212.512 75.2331 223.46 75.1936 234.37 75.2331C235.63 75.4303 236.063 76.2584 236.142 77.4415C236.182 78.033 236.182 78.6245 236.182 79.2161C236.182 102.089 236.182 124.961 236.182 147.834C236.182 151.58 235.67 152.132 231.928 152.132C196.797 152.132 161.627 152.132 126.496 152.132C126.102 152.132 125.708 152.132 125.314 152.132C122.833 152.014 122.085 151.225 122.085 148.741C122.085 125.316 122.085 101.931 122.085 78.5062C122.085 77.126 122.124 75.7852 123.818 75.312C128.308 75.1542 132.758 75.2725 137.248 75.2331C144.534 75.1936 151.82 75.2725 159.067 75.1936C159.461 75.1936 160.051 75.3908 160.248 74.9176C160.406 74.5232 159.973 74.2472 159.776 73.8923C159.697 73.7345 159.539 73.5768 159.461 73.3796C158.752 71.5261 157.334 71.0923 155.562 71.329C144.731 71.3684 133.9 71.329 123.069 71.3684C119.879 71.3684 118.383 72.9064 118.304 76.1007C118.304 76.6922 118.304 77.2837 118.304 77.8753C118.304 93.8467 118.304 109.818 118.304 125.75C118.304 126.42 118.343 127.13 118.264 127.801C118.068 129.418 117.398 129.851 115.744 129.457C114.759 128.944 114.877 128.037 114.877 127.13C114.877 113.131 114.877 99.1705 114.877 85.1708C114.877 82.2526 115.035 79.3344 114.838 76.4556C114.523 71.3684 118.146 67.7403 123.345 67.8192C134.176 68.0164 144.967 67.8586 155.798 67.8981C157.019 67.8981 157.216 67.7009 156.861 66.4389C154.38 57.1321 158.043 47.0761 165.841 41.6734C166.826 41.003 167.653 40.7664 168.598 41.6339C169.425 42.8564 168.716 43.6846 167.81 44.3944C166.235 45.6564 164.738 46.9578 163.478 48.5746C155.955 58.2363 159.106 73.9317 172.103 78.94C173.127 79.3344 174.151 79.6104 175.214 79.8865C176.357 80.202 176.908 80.9907 176.947 82.1737C176.987 83.1202 176.947 84.0272 176.947 84.9737C176.947 85.5258 176.947 86.0779 177.105 86.5905C177.381 87.6553 178.05 88.3651 179.192 88.3257C180.334 88.2863 180.925 87.4975 181.122 86.4328C181.319 85.368 181.201 84.2638 181.201 83.1991C181.24 80.7935 181.595 80.3597 183.918 79.6893C191.008 77.6781 195.852 73.2613 198.057 66.1235C201.563 54.766 193.725 42.5804 181.949 41.0424C180.846 40.8847 179.704 40.7664 178.562 40.6875C177.617 40.6086 176.632 40.4114 176.79 39.0706C176.987 37.6904 177.853 37.4143 179.113 37.4143C194.237 37.4143 205.304 51.8478 201.366 66.5572C201.248 66.9516 201.169 67.3065 201.09 67.7009C201.641 67.9769 202.153 67.8586 202.665 67.8586C213.457 67.8586 224.209 67.8586 235 67.8586C240.514 67.8586 243.389 70.698 243.389 76.219C243.389 102.286 243.389 128.353 243.35 154.42C243.35 155.8 243.625 156.234 245.082 156.273C250.399 156.431 253.393 160.966 252.014 166.526C250.596 172.284 245.673 176.307 239.766 176.385C233.976 176.464 228.147 176.385 222.358 176.425C221.255 176.425 220.585 175.952 220.31 174.926C220.113 173.783 220.861 173.349 221.767 173.112C222.397 172.954 223.027 173.033 223.697 173.033C228.856 173.033 234.015 173.073 239.214 173.033C244.295 172.954 247.958 169.879 248.863 164.949C249.454 161.873 247.8 159.783 244.689 159.783C236.26 159.744 227.871 159.783 219.443 159.783C212.157 159.783 204.871 159.783 197.585 159.783C195.616 159.783 195.616 159.783 195.143 161.715C194.158 165.777 191.362 168.222 187.187 168.301C181.87 168.419 176.554 168.419 171.237 168.301C167.456 168.222 163.517 165.777 163.163 161.006C163.084 160.138 162.69 159.783 161.863 159.783C161.469 159.783 161.075 159.783 160.682 159.783C145.282 159.783 129.883 159.783 114.444 159.783C114.09 159.783 113.735 159.783 113.42 159.783C110.939 159.901 109.442 161.479 109.442 163.963C109.403 168.617 113.46 172.678 118.461 173.033C119.21 173.073 119.919 173.073 120.667 173.073C149.693 173.073 178.759 173.073 207.785 173.073C208.573 173.073 209.361 173.033 210.148 173.152C211.527 173.388 211.881 173.98 211.606 175.36Z" fill="#344054"/>
<path d="M176.947 39.1888C177.341 40.3325 178.207 40.4902 179.27 40.4902C188.88 40.6085 196.796 47.0365 198.884 56.3828C201.208 66.8332 194.749 77.3625 184.39 80.0836C181.712 80.7934 181.712 80.7934 181.712 83.5539C181.712 84.4215 181.752 85.3285 181.712 86.1961C181.673 87.7341 180.649 88.8383 179.31 88.8777C177.971 88.9171 176.829 87.8524 176.75 86.3538C176.671 85.2102 176.71 84.106 176.71 82.9624C176.71 80.8723 176.513 80.6751 174.505 80.1624C166.825 78.1118 161.823 73.2612 159.775 65.5713C157.648 57.487 160.681 49.2449 167.494 44.3155C168.44 43.6451 168.991 42.9352 168.637 41.7522C169.542 41.1212 170.96 41.2001 171.236 39.7409C171.433 39.8198 171.512 39.9776 171.59 40.1747C172.299 41.3578 172.811 41.3972 173.52 40.2536C173.678 40.017 173.717 39.7015 174.032 39.6226C175.056 39.4649 176.001 39.3466 176.947 39.1888Z" fill="#13BE6D"/>
<path d="M143.745 41.9266C143.666 42.6758 143.273 43.1491 142.603 43.3068C140.161 43.9378 139.019 45.7124 138.468 47.9996C138.271 48.9067 137.995 49.7348 136.853 49.7742C135.671 49.7742 135.396 48.8672 135.238 47.9996C134.805 45.6335 133.505 44.0955 131.221 43.3857C130.512 43.1491 130 42.7153 130 41.9266C130 41.1378 130.433 40.6252 131.182 40.428C133.584 39.797 134.687 38.1013 135.199 35.814C135.278 35.538 135.356 35.2619 135.474 34.9859C135.671 34.3549 136.144 34.0394 136.814 34C137.522 34 138.034 34.276 138.271 34.9859C138.428 35.538 138.586 36.1295 138.783 36.6816C139.374 38.4562 140.398 39.797 142.288 40.3097C143.115 40.5463 143.706 40.9801 143.745 41.9266Z" fill="#344054"/>
<path d="M273.712 141.966C273.633 142.715 273.2 143.188 272.452 143.386C270.049 144.017 268.986 145.791 268.435 148C268.198 148.907 268.001 149.774 266.859 149.814C265.599 149.853 265.363 148.867 265.205 147.921C264.772 145.712 263.551 144.174 261.385 143.465C260.597 143.188 259.928 142.755 260.006 141.808C260.046 140.901 260.676 140.546 261.424 140.349C263.433 139.797 264.457 138.338 265.048 136.445C265.205 135.972 265.284 135.499 265.441 135.025C265.678 134.315 266.19 134 266.899 134C267.568 134 268.041 134.315 268.238 134.946C268.435 135.538 268.592 136.169 268.789 136.76C269.38 138.496 270.404 139.758 272.255 140.27C273.003 140.586 273.673 140.98 273.712 141.966Z" fill="#344054"/>
<path d="M214.52 175.044C214.796 174.137 215.268 173.388 216.371 173.585C217.316 173.782 217.553 174.492 217.513 175.36C217.277 176.109 216.765 176.503 215.977 176.464C215.111 176.425 214.796 175.754 214.52 175.044Z" fill="#344054"/>
<path d="M115.823 132.73C116.925 132.572 117.871 132.769 117.871 134.071C117.871 135.412 116.886 135.569 115.823 135.412C114.641 134.268 114.641 133.913 115.823 132.73Z" fill="#344054"/>
<path d="M174.151 39.6226C174.19 40.6085 173.875 41.3972 172.773 41.4761C171.631 41.5549 171.355 40.7268 171.315 39.7409C172.103 38.2029 173.048 38.1635 174.151 39.6226Z" fill="#344054"/>
<path d="M197.664 78.6638C206.959 78.6638 216.254 78.6244 225.548 78.6244C227.675 78.6244 229.763 78.6638 231.889 78.6244C232.638 78.6244 232.913 78.8216 232.913 79.6103C232.874 81.1877 232.913 82.7651 232.913 84.3426C232.913 105.243 232.913 126.144 232.953 147.006C232.953 148.268 232.677 148.662 231.338 148.662C196.64 148.623 161.943 148.623 127.245 148.662C125.866 148.662 125.551 148.268 125.551 146.966C125.591 124.764 125.591 102.522 125.551 80.3201C125.551 78.9793 125.866 78.6244 127.205 78.6244C137.997 78.7033 148.749 78.6638 159.54 78.6638C160.013 78.6638 160.525 78.7033 160.997 78.7033C161.47 78.9399 161.943 79.2159 162.336 79.6103C164.581 81.5821 167.063 83.1595 169.819 84.2242C170.883 84.6186 171.316 85.289 171.434 86.4326C171.789 90.0213 173.443 92.5846 176.987 93.8465C180.926 95.2662 186.676 92.1508 186.834 87.0636C186.873 85.4073 187.464 84.5397 189 84.0665C191.441 83.2778 193.45 81.7792 195.419 80.2018C196.168 79.5708 196.837 79.0187 197.664 78.6638Z" fill="white"/>
<path d="M179.428 159.27C183.17 159.27 186.911 159.31 190.653 159.231C191.953 159.191 192.15 159.744 191.992 160.808C191.677 163.174 189.983 164.87 187.502 164.91C181.988 164.988 176.475 164.988 170.961 164.91C168.401 164.87 166.628 162.898 166.589 160.453C166.55 159.546 166.825 159.27 167.771 159.27C171.63 159.31 175.529 159.27 179.428 159.27Z" fill="white"/>
<path d="M197.663 78.6638C195.064 81.2665 192.149 83.3566 188.644 84.5791C187.66 84.934 187.305 85.4073 187.305 86.472C187.305 90.6916 184.391 93.807 179.822 94.5563C176.553 95.069 172.654 92.3085 171.551 88.7593C171.394 88.2466 171.079 87.6945 171.157 87.2213C171.473 85.289 170.291 84.7369 168.794 84.1453C165.841 82.8834 163.162 81.1877 161.036 78.7032C163.162 78.4666 165.132 78.6243 166.943 80.1229C168.558 81.4637 170.567 82.2524 172.654 82.7651C173.639 83.0017 173.875 83.4749 173.836 84.4214C173.796 85.4467 173.757 86.472 173.954 87.4973C174.545 90.2184 176.986 92.1113 179.586 91.9141C182.461 91.6775 184.824 89.4297 184.627 86.5903C184.43 84.027 185.1 82.6468 187.738 82.1341C189.117 81.8975 190.456 81.1482 191.519 80.2018C193.331 78.506 195.418 78.4272 197.663 78.6638Z" fill="#EAECF0"/>
<path d="M176.947 71.5259C175.372 71.4471 173.954 70.895 172.773 69.7513C170.921 67.9373 169.031 66.0838 167.259 64.1909C165.093 61.9037 165.053 58.6305 167.141 56.4616C169.189 54.332 172.497 54.2532 174.86 56.3038C174.939 56.3827 175.017 56.4221 175.096 56.501C177.262 58.5122 177.262 58.5122 179.389 56.3827C180.728 55.0419 182.067 53.6222 183.485 52.3208C185.927 49.9941 189.196 49.9152 191.401 52.1236C193.607 54.332 193.528 57.6841 191.204 60.0502C188.054 63.2445 184.864 66.3993 181.713 69.5542C180.374 70.895 178.838 71.5259 176.947 71.5259Z" fill="#344054"/>
<path d="M131.497 109.66C131.497 118.336 131.497 127.012 131.497 135.688C131.497 136.358 131.576 137.107 130.907 137.581C130.04 138.212 128.78 137.738 128.583 136.713C128.504 136.279 128.544 135.845 128.544 135.372C128.544 118.336 128.544 101.26 128.544 84.2242C128.544 83.9482 128.544 83.6327 128.544 83.3566C128.544 82.4102 128.937 81.6609 129.961 81.6215C131.064 81.582 131.497 82.3313 131.497 83.3566C131.497 88.365 131.497 93.4127 131.497 98.421C131.497 102.207 131.497 105.953 131.497 109.66Z" fill="#EAECF0"/>
<path d="M229.92 117.429C229.92 125.947 229.92 134.465 229.92 142.983C229.92 143.417 229.92 143.89 229.88 144.324C229.801 145.074 229.329 145.507 228.659 145.586C227.911 145.665 227.281 145.35 227.084 144.561C226.966 144.088 226.966 143.575 226.966 143.102C226.966 126.066 226.966 109.029 226.966 91.9932C226.966 91.796 226.966 91.5988 226.966 91.4017C227.005 90.3369 227.242 89.3116 228.541 89.3116C229.92 89.3116 229.959 90.3763 229.959 91.4411C229.92 100.078 229.92 108.753 229.92 117.429Z" fill="#EAECF0"/>
<path d="M229.919 83.9481C229.88 84.5791 230.038 85.1706 229.683 85.6438C229.329 86.1565 228.777 86.472 228.147 86.2748C227.044 85.9199 226.926 84.9734 226.926 83.9875C226.926 83.0016 227.005 82.0552 228.068 81.6608C228.659 81.4637 229.25 81.6214 229.644 82.2129C230.077 82.765 229.841 83.4354 229.919 83.9481Z" fill="#EAECF0"/>
<path d="M131.497 143.259C131.497 144.206 131.615 145.192 130.395 145.468C129.804 145.586 129.134 145.547 128.859 144.916C128.347 143.811 128.386 142.628 128.898 141.524C129.174 140.893 129.843 140.854 130.434 140.972C131.655 141.327 131.497 142.352 131.497 143.259Z" fill="#EAECF0"/>
<path d="M177.066 68.5682C176.12 68.5682 175.372 68.1344 174.703 67.5035C172.97 65.7683 171.197 64.0331 169.504 62.298C168.283 61.036 168.243 59.5769 169.307 58.5122C170.37 57.4474 171.827 57.5657 173.088 58.7882C173.954 59.6558 174.821 60.5234 175.687 61.391C176.79 62.4557 177.459 62.4952 178.562 61.391C180.886 59.0643 183.21 56.6981 185.573 54.4109C186.872 53.1489 188.408 53.2278 189.432 54.4503C190.259 55.4756 190.259 56.777 189.235 57.8023C185.966 61.1543 182.658 64.4275 179.35 67.7007C178.72 68.3316 177.932 68.6077 177.066 68.5682Z" fill="#EEEEEE"/>
<path d="M280.699 87.3413C280.699 97.9742 280.699 108.646 280.699 119.279C280.699 124.322 277.889 127.137 272.815 127.137C254.667 127.137 236.518 127.137 218.369 127.137C213.217 127.137 210.446 124.322 210.446 119.162C210.446 97.857 210.446 76.552 210.446 55.2471C210.446 50.2043 213.256 47.3897 218.33 47.3897C236.518 47.3897 254.706 47.3897 272.933 47.3897C277.889 47.3897 280.699 50.2434 280.699 55.208C280.699 65.9191 280.699 76.6302 280.699 87.3413Z" fill="#344054"/>
<path d="M276.902 87.2611C276.902 98.2837 276.902 109.306 276.902 120.329C276.902 121.652 276.581 122.694 275.256 123.215C274.693 123.415 274.332 123.455 274.211 122.694C272.404 112.793 266.299 107.142 256.619 104.977C255.976 104.817 255.052 104.977 254.771 104.216C254.41 103.294 254.008 102.412 255.293 101.53C257.422 100.127 258.828 98.0031 259.511 95.518C259.712 94.8366 259.953 94.5159 260.796 94.4358C267.303 93.8345 271.239 87.6619 269.03 81.4491C268.829 80.8479 268.789 80.3268 268.95 79.7256C272.203 67.5406 263.407 55.9969 250.795 55.9969C246.336 55.9969 241.838 55.5961 237.42 56.2374C226.374 57.8808 219.305 68.6629 222.197 79.445C222.398 80.2066 222.438 80.8479 222.157 81.6095C220.028 87.5015 223.884 93.7143 230.15 94.3957C231.073 94.5159 231.515 94.7163 231.756 95.6382C232.439 98.0832 233.925 100.007 235.893 101.57C236.375 101.931 237.058 102.132 236.777 103.053C236.496 103.935 236.295 104.657 235.17 104.857C232.319 105.418 229.507 106.18 227.017 107.743C221.514 111.07 218.221 115.92 217.016 122.213C216.775 123.415 216.413 123.616 215.369 122.934C214.485 122.333 214.244 121.491 214.244 120.449C214.284 117.403 214.244 114.357 214.244 111.27C214.244 92.3916 214.244 73.5129 214.244 54.6341C214.244 51.8685 214.927 51.1871 217.698 51.1871C236.255 51.1871 254.851 51.1871 273.408 51.1871C276.179 51.1871 276.862 51.8685 276.862 54.6341C276.902 65.5365 276.902 76.3988 276.902 87.2611Z" fill="white"/>
<path d="M245.774 61.5472C248.413 61.7049 251.012 61.3894 253.612 61.8232C260.071 62.888 265.072 69.0794 264.757 75.6257C264.718 76.4933 264.679 77.0848 263.536 76.4933C262.158 75.8229 260.622 75.6651 259.086 75.744C254.163 76.02 249.988 74.5215 246.68 70.7751C246.05 70.0653 245.656 70.1441 245.065 70.8145C241.796 74.4821 237.661 76.02 232.777 75.744C231.241 75.6651 229.705 75.7834 228.287 76.4538C227.145 77.0059 226.988 76.6116 226.948 75.5468C226.673 69.1188 231.477 63.0457 237.858 61.8232C240.497 61.35 243.175 61.7049 245.774 61.5472Z" fill="#B17946"/>
<path d="M245.892 123.106C238.567 123.106 231.241 123.066 223.916 123.145C222.774 123.145 222.38 122.988 222.734 121.686C224.585 115.061 228.996 111.236 235.613 109.777C236.716 109.54 236.558 110.25 236.676 110.802C238.252 118.019 246.641 120.819 252.115 115.968C253.691 114.548 254.715 112.774 255.108 110.684C255.227 110.132 255.187 109.58 256.132 109.777C262.513 110.92 267.554 115.613 269.09 121.844C269.366 122.988 269.05 123.145 268.026 123.145C260.622 123.106 253.257 123.106 245.892 123.106Z" fill="#84CAFF"/>
<path d="M255.344 87.1801C255.344 88.9152 255.384 90.611 255.344 92.3461C255.266 96.3291 252.272 99.3657 248.334 99.4445C246.719 99.484 245.104 99.484 243.45 99.4445C239.591 99.3657 236.519 96.3686 236.44 92.5039C236.4 88.7969 236.44 85.1294 236.4 81.4225C236.4 80.5549 236.715 80.3577 237.464 80.2394C240.221 79.845 242.781 78.8197 245.026 77.1634C245.656 76.7296 246.05 76.7296 246.68 77.1634C249.003 78.8197 251.563 79.8845 254.399 80.2394C255.147 80.3183 255.344 80.6732 255.344 81.383C255.305 83.3154 255.344 85.2477 255.344 87.1801Z" fill="#EFCFB3"/>
<path d="M245.932 104.177C246.522 104.177 247.113 104.177 247.704 104.177C250.067 104.177 250.146 104.137 250.5 106.464C250.776 108.199 250.894 110.013 249.752 111.591C248.57 113.208 246.995 113.957 245.026 113.562C243.017 113.168 241.678 111.906 241.284 109.895C240.93 108.16 241.205 106.385 241.717 104.689C241.914 104.059 242.269 104.177 242.702 104.177C243.765 104.137 244.829 104.137 245.932 104.177Z" fill="#EFCFB3"/>
<rect x="264" y="141.828" width="4" height="4" transform="rotate(-45 264 141.828)" fill="#EBBC1F"/>
<rect x="134" y="41.8284" width="4" height="4" transform="rotate(-45 134 41.8284)" fill="#EBBC1F"/>
<path d="M231.714 85.2477C231.714 86.5097 231.675 87.811 231.714 89.073C231.753 89.98 231.399 90.0194 230.651 89.8617C228.484 89.349 226.909 87.3772 226.948 85.1294C226.988 82.9605 228.563 81.0676 230.69 80.5943C231.438 80.4366 231.753 80.5943 231.714 81.4225C231.635 82.7238 231.714 83.9858 231.714 85.2477Z" fill="#EFCFB3"/>
<path d="M260.071 85.2479C260.071 83.9071 260.11 82.6057 260.071 81.2649C260.031 80.555 260.307 80.4367 260.937 80.555C263.024 80.91 264.757 82.9606 264.797 85.1296C264.836 87.3774 263.103 89.5069 260.976 89.9013C260.228 90.059 260.071 89.783 260.071 89.0731C260.071 87.8112 260.071 86.5493 260.071 85.2479Z" fill="#EFCFB3"/>
<g clip-path="url(#clip0_9955_50294)">
<path d="M196.51 109.821C196.284 110.183 196.203 110.618 196.134 111.071C196.05 111.623 195.961 112.153 195.777 112.673C195.556 113.295 195.185 113.989 194.538 114.532C193.872 112.621 192.901 110.845 191.668 109.281C192.439 108.955 193.194 108.96 193.816 109.069C194.332 109.159 194.809 109.343 195.302 109.541C195.706 109.705 196.102 109.848 196.51 109.821H196.51ZM189.011 101.865L189.01 101.865L189.011 101.865C188.986 102.297 189.12 102.718 189.274 103.147C189.462 103.669 189.634 104.175 189.72 104.723C189.822 105.383 189.827 106.186 189.519 107.004C188.043 105.698 186.367 104.67 184.564 103.966C185.077 103.274 185.734 102.878 186.323 102.642C186.813 102.447 187.312 102.353 187.833 102.263C188.26 102.191 188.67 102.104 189.011 101.865ZM195.328 117.656C196.143 117.784 196.791 118.187 197.276 118.609C197.68 118.961 198.007 119.373 198.34 119.807C198.613 120.163 198.889 120.496 199.254 120.689H195.574C195.573 119.673 195.491 118.658 195.328 117.656ZM168.523 101.865L168.524 101.865V101.865C168.864 102.104 169.274 102.191 169.702 102.264C170.222 102.353 170.721 102.447 171.211 102.642C171.801 102.878 172.458 103.274 172.971 103.966C171.167 104.67 169.491 105.698 168.016 107.004C167.707 106.186 167.712 105.383 167.814 104.723C167.9 104.175 168.073 103.669 168.26 103.146C168.414 102.717 168.548 102.297 168.523 101.865ZM161.025 109.821L161.025 109.822L161.025 109.821C161.432 109.848 161.828 109.705 162.233 109.542C162.726 109.343 163.202 109.159 163.718 109.069C164.34 108.96 165.096 108.955 165.866 109.282C164.633 110.845 163.663 112.621 162.996 114.533C162.35 113.989 161.978 113.296 161.757 112.673C161.573 112.153 161.485 111.623 161.4 111.071C161.332 110.618 161.25 110.183 161.025 109.821ZM158.28 120.69C158.646 120.496 158.921 120.163 159.194 119.807C159.527 119.373 159.854 118.962 160.258 118.609C160.743 118.187 161.391 117.784 162.206 117.656C162.043 118.658 161.961 119.673 161.96 120.69H158.28ZM178.767 98.9528V98.9532L178.768 98.9528C178.95 99.3406 179.264 99.6331 179.599 99.923C180.008 100.276 180.396 100.623 180.729 101.052C181.129 101.569 181.511 102.262 181.629 103.135C180.684 102.963 179.726 102.876 178.767 102.876C177.792 102.876 176.836 102.966 175.905 103.135C176.023 102.262 176.406 101.569 176.806 101.052C177.138 100.623 177.527 100.276 177.935 99.9227C178.271 99.6332 178.585 99.3406 178.767 98.9528Z" fill="#FAB60F"/>
<path d="M175.349 120.693L176.614 120.69C176.78 119.556 176.455 118.684 175.375 118.892C174.464 119.067 173.486 120.027 172.895 120.69L174.562 120.682C174.748 120.552 175.112 120.404 175.261 120.514C175.317 120.556 175.346 120.614 175.349 120.693Z" fill="#1849A9"/>
<path d="M181.036 120.69H182.614C182.689 118.713 182.389 116.672 181.523 114.906C180.735 113.299 179.433 112.206 177.747 111.943C175.286 111.557 172.802 112.663 170.703 114.244C168.417 115.966 166.53 118.305 164.881 120.69L166.965 120.687C168.842 117.865 173.157 113.581 176.332 113.553C177.343 113.545 178.372 113.796 179.132 114.516C179.683 115.038 180.351 116.051 180.319 116.873C180.299 117.361 179.891 117.51 179.5 117.359C179.197 117.242 178.982 116.947 178.77 116.638C178.079 115.631 177.001 115.139 175.82 115.311C174.41 115.515 172.663 116.676 171.536 117.732C170.564 118.643 169.672 119.64 168.831 120.69H171.071C171.892 119.638 172.76 118.741 173.874 118.004C174.227 117.771 174.662 117.524 175.118 117.358C176.27 116.938 177.416 117.044 177.925 118.566C178.125 119.164 178.155 119.689 178.097 120.65V120.69H179.62L179.624 120.64C179.625 120.114 179.614 119.759 179.659 119.237C179.697 118.787 179.829 118.321 180.223 118.266C181.06 118.079 181.02 120.055 181.036 120.69V120.69Z" fill="#1849A9"/>
<path d="M184.273 120.69H185.864C185.941 118.856 185.792 116.683 185.233 114.786C185.125 114.417 184.998 114.055 184.853 113.701C184.515 112.881 184.059 112.139 183.516 111.453C182.912 110.692 182.193 110.006 181.382 109.467C181.141 109.307 180.893 109.16 180.638 109.028V109.027C180.382 108.895 180.119 108.777 179.85 108.676L179.849 108.675C176.752 107.508 173.619 108.338 170.99 109.855C170.484 110.148 169.992 110.467 169.515 110.81C169.056 111.141 168.61 111.493 168.179 111.864L168.178 111.865C167.563 112.395 166.982 112.966 166.437 113.576C166.315 113.713 166.195 113.852 166.078 113.993C165.766 114.369 165.284 114.896 165.427 115.441C165.54 115.873 166.066 115.746 166.249 115.597C166.53 115.437 166.839 115.183 167.103 114.946C167.461 114.625 167.798 114.279 168.153 113.953C169.585 112.636 171.078 111.62 172.549 110.932C172.864 110.785 173.185 110.65 173.51 110.528C173.823 110.412 174.139 110.309 174.46 110.22L174.461 110.22C177.198 109.466 180.172 109.954 182.076 112.322C183.91 114.603 184.245 117.656 184.273 120.69V120.69ZM164.535 118.112C164.706 117.942 164.881 117.721 165.062 117.477C165.316 117.135 165.341 116.804 165.241 116.565C165.205 116.478 165.15 116.401 165.081 116.34C165.015 116.281 164.936 116.239 164.852 116.218C164.645 116.168 164.397 116.247 164.187 116.518C163.95 116.825 163.621 117.349 163.554 117.813C163.542 117.896 163.539 117.981 163.547 118.064C163.555 118.141 163.575 118.215 163.607 118.282L163.608 118.282C163.661 118.391 163.751 118.449 163.872 118.453C163.897 118.454 163.924 118.453 163.953 118.45C163.981 118.446 164.012 118.44 164.044 118.432V118.433L164.046 118.432C164.208 118.391 164.37 118.275 164.535 118.111V118.112Z" fill="#1849A9"/>
<path d="M188.252 120.69L188.263 120.69H188.269C188.435 120.7 188.724 120.618 188.891 120.32C188.924 120.26 188.952 120.192 188.974 120.115C188.996 120.036 189.011 119.947 189.018 119.847L189.019 119.826C189.145 115.139 187.792 111.258 185.495 108.622C185.053 108.114 184.57 107.647 184.052 107.228C183.539 106.814 182.992 106.448 182.419 106.136H182.419L182.409 106.131L182.409 106.131C180.478 105.084 178.288 104.682 176.139 104.875C175.301 104.95 174.472 105.116 173.665 105.368L173.659 105.37C171.449 106.064 169.392 107.441 167.715 109.248C167.226 109.775 166.771 110.337 166.354 110.929C167.529 109.853 168.79 108.909 170.11 108.159C170.404 107.991 170.703 107.833 171.005 107.684C171.305 107.537 171.609 107.4 171.917 107.273L171.917 107.272L171.918 107.272C173.084 106.791 174.233 106.485 175.382 106.348C176.531 106.211 177.681 106.243 178.849 106.44C179.68 106.581 180.491 106.812 181.222 107.135C181.364 107.197 181.503 107.264 181.64 107.334C181.775 107.403 181.908 107.477 182.038 107.555H182.038L182.04 107.556L182.04 107.556C184.613 109.051 186.4 112.118 187.187 115.581C187.496 116.943 187.648 118.339 187.64 119.74V119.74L187.64 119.78C187.653 120.155 187.774 120.469 187.981 120.61C188.02 120.637 188.062 120.657 188.106 120.67H188.107C188.152 120.684 188.201 120.691 188.252 120.69Z" fill="#1849A9"/>
<path d="M183.651 105.068C189.837 107.236 194.308 113.408 194.334 120.69H191.273C191.476 114.329 188.859 108.587 183.651 105.068Z" fill="#FAB60F"/>
<path d="M165.691 125.798H164.453L164.146 126.942H163.159L164.465 122.559H165.715L167.057 126.942H166.028L165.691 125.798ZM164.593 125.056H165.544C165.294 124.2 165.133 123.612 165.059 123.294H165.047L164.851 124.126L164.593 125.056ZM170.238 125.798H169L168.694 126.942H167.707L169.012 122.559H170.263L171.605 126.942H170.576L170.238 125.798ZM169.141 125.056H170.091C169.842 124.2 169.68 123.612 169.607 123.294H169.595L169.399 124.126L169.141 125.056ZM172.549 126.923V122.617C172.957 122.552 173.395 122.52 173.86 122.52C174.741 122.52 175.373 122.715 175.757 123.106C176.14 123.498 176.331 124.009 176.331 124.64C176.331 125.386 176.113 125.963 175.677 126.373C175.241 126.783 174.568 126.988 173.658 126.988C173.237 126.988 172.868 126.966 172.549 126.923ZM173.499 123.333V126.188C173.552 126.201 173.666 126.207 173.842 126.207C174.314 126.207 174.68 126.075 174.938 125.812C175.197 125.548 175.325 125.171 175.325 124.679C175.325 124.228 175.208 123.884 174.972 123.648C174.736 123.412 174.396 123.294 173.952 123.294C173.766 123.294 173.615 123.307 173.499 123.333ZM177.348 122.559H178.298V124.243H179.922V122.559H180.872V126.942H179.922V125.115H178.298V126.942H177.348V122.559ZM184.317 125.798H183.079L182.772 126.942H181.785L183.091 122.559H184.341L185.684 126.942H184.654L184.317 125.798ZM183.22 125.056H184.17C183.92 124.2 183.759 123.612 183.685 123.294H183.673L183.477 124.126L183.22 125.056ZM188.864 125.798H187.626L187.32 126.942H186.333L187.638 122.559H188.889L190.231 126.942H189.202L188.864 125.798ZM187.767 125.056H188.717C188.468 124.2 188.306 123.612 188.233 123.294H188.221L188.025 124.126L187.767 125.056ZM191.175 126.942V122.617C191.522 122.552 191.949 122.52 192.456 122.52C193.081 122.52 193.531 122.629 193.804 122.848C194.078 123.067 194.215 123.38 194.215 123.788C194.215 124.031 194.146 124.25 194.009 124.446C193.874 124.639 193.688 124.784 193.473 124.861V124.887C193.731 124.989 193.917 125.258 194.031 125.693C194.242 126.478 194.356 126.894 194.374 126.942H193.406C193.324 126.78 193.226 126.439 193.112 125.921C193.055 125.661 192.977 125.479 192.879 125.375C192.781 125.271 192.623 125.219 192.407 125.219H192.113V126.942H191.175V126.942ZM192.113 123.294V124.497H192.505C192.742 124.497 192.929 124.439 193.066 124.326C193.203 124.212 193.271 124.059 193.271 123.866C193.271 123.673 193.21 123.523 193.086 123.418C192.963 123.313 192.787 123.261 192.56 123.261C192.337 123.261 192.188 123.272 192.113 123.294Z" fill="#1849A9"/>
</g>
<path d="M150.857 134.762L148.571 137.619L152 137.238V138.762L148.571 138.381L150.857 141.048L149.333 142L148 138.762L146.476 142L145.143 141.238L147.238 138.381L144 138.762V137.238L147.429 137.619L145.143 134.762L146.667 134L148 137.238L149.524 134L150.857 134.762Z" fill="#344054"/>
<path d="M160.761 134.762L158.476 137.619L161.904 137.238V138.762L158.476 138.381L160.761 141.048L159.238 142L157.904 138.762L156.38 142L155.047 141.238L157.142 138.381L153.904 138.762V137.238L157.333 137.619L155.047 134.762L156.38 134L157.714 137.238L159.238 134L160.761 134.762Z" fill="#344054"/>
<path d="M170.476 134.762L168.381 137.619L171.81 137.238V138.762L168.381 138.381L170.667 141.048L169.143 141.81L167.81 138.571L166.286 141.81L164.952 141.048L167.048 138.19L163.81 138.762V137.238L167.238 137.619L165.143 134.762L166.286 134L167.619 137.238L169.143 134L170.476 134.762Z" fill="#344054"/>
<path d="M180.571 134.762L178.476 137.619L181.905 137.238V138.762L178.476 138.381L180.762 141.048L179.238 141.81L177.905 138.571L176.381 141.81L175.048 141.048L177.143 138.19L173.714 138.571V137.238L177.143 137.619L175.048 134.762L176.381 134L177.714 137.238L179.238 134L180.571 134.762Z" fill="#344054"/>
<path d="M190.857 134.762L188.761 137.619L192.19 137.238V138.762L188.761 138.381L191.047 141.048L189.523 141.81L188 138.762L186.476 142L185.142 141.238L187.238 138.381L183.809 138.762V137.238L187.238 137.619L185.142 134.762L186.666 134L188 137.238L189.523 134L190.857 134.762Z" fill="#344054"/>
<path d="M201.142 134.762L199.047 137.619L202.476 137.238V138.762L199.047 138.381L201.333 141.048L199.809 141.81L198.285 138.762L196.761 142L195.428 141.238L197.523 138.381L194.095 138.762V137.238L197.523 137.619L195.428 134.762L196.952 134L198.285 137.238L199.809 134L201.142 134.762Z" fill="#344054"/>
<path d="M211.428 134.762L209.333 137.619L212.761 137.238V138.762L209.333 138.381L211.618 141.048L210.095 141.81L208.571 138.762L207.047 142L205.714 141.238L207.809 138.381L204.38 138.762V137.238L207.809 137.619L205.714 134.762L207.047 134L208.571 137.238L209.904 134L211.428 134.762Z" fill="#344054"/>
</g>
<defs>
<clipPath id="clip0_9955_50294">
<rect width="41.6261" height="28.481" fill="white" transform="translate(158 98.6556)"/>
</clipPath>
</defs>
</svg>
