<svg width="74" height="74" viewBox="0 0 74 74" fill="none" xmlns="http://www.w3.org/2000/svg">
<g filter="url(#filter0_dd_10152_108814)">
<rect x="12" width="50" height="50" rx="25" fill="url(#paint0_linear_10152_108814)"/>
<rect x="12.5" y="0.5" width="49" height="49" rx="24.5" stroke="white"/>
</g>
<circle cx="37" cy="25" r="15.25" stroke="white" strokeWidth="1.5"/>
<path d="M44.9597 32.1547C44.287 32.1547 43.6143 32.1547 42.9416 32.1639C42.7849 32.1639 42.6836 32.1178 42.6098 31.9702C42.1398 30.9739 41.6607 29.9869 41.1538 28.9261C42.0293 28.9261 42.831 28.9261 43.6327 28.9261C43.8355 28.9261 43.8815 29.0645 43.9461 29.2028C44.1764 29.7009 44.416 30.1991 44.6556 30.688C44.8123 31.1308 45.0058 31.5459 45.2362 31.961C45.2546 32.1731 45.098 32.1547 44.9597 32.1547Z" fill="#2E397C"/>
<path d="M44.9597 32.1547C44.287 32.1547 43.6143 32.1547 42.9416 32.1639C42.7849 32.1639 42.6836 32.1178 42.6098 31.9702C42.1398 30.9739 41.6607 29.9869 41.1538 28.9261C42.0293 28.9261 42.831 28.9261 43.6327 28.9261C43.8355 28.9261 43.8815 29.0645 43.9461 29.2028C44.1764 29.7009 44.416 30.1991 44.6556 30.688C44.8123 31.1308 45.0058 31.5459 45.2362 31.961C45.2546 32.1731 45.098 32.1547 44.9597 32.1547Z" fill="#FEFEFE"/>
<path d="M44.9597 32.1547C44.287 32.1547 43.6143 32.1547 42.9416 32.1639C42.7849 32.1639 42.6836 32.1178 42.6098 31.9702C42.1398 30.9739 41.6607 29.9869 41.1538 28.9261C42.0293 28.9261 42.831 28.9261 43.6327 28.9261C43.8355 28.9261 43.8815 29.0645 43.9461 29.2028C44.1764 29.7009 44.416 30.1991 44.6556 30.688C44.4713 30.6603 44.4253 30.5035 44.3515 30.3743C44.2778 30.236 44.2225 30.0976 44.1672 29.9592C43.7802 29.0368 43.7802 29.0368 42.7941 29.0368C42.444 29.0368 42.0938 29.0368 41.7436 29.0368C41.4763 29.0368 41.3565 29.1106 41.504 29.3873C41.9003 30.1345 42.1951 30.9186 42.5914 31.6658C42.702 31.8687 42.831 32.0163 43.0798 32.0163C43.7986 32.0071 44.5174 32.0717 45.227 31.961C45.2546 32.1731 45.098 32.1547 44.9597 32.1547Z" fill="#E4E4E6"/>
<path d="M36.9898 36.1799C43.0706 36.1799 48 31.2455 48 25.1586C48 19.0717 43.0706 14.1373 36.9898 14.1373C30.909 14.1373 25.9795 19.0717 25.9795 25.1586C25.9795 31.2455 30.909 36.1799 36.9898 36.1799Z" fill="white"/>
<path d="M46.3624 33.4897C45.5713 33.4897 44.7802 33.4897 43.9891 33.5005C43.8048 33.5005 43.6856 33.4463 43.5989 33.2727C43.0463 32.1012 42.4827 30.9405 41.8867 29.693C42.9162 29.693 43.859 29.693 44.8018 29.693C45.0403 29.693 45.0944 29.8557 45.1703 30.0184C45.4412 30.6042 45.723 31.19 46.0047 31.7649C46.189 32.2856 46.4165 32.7737 46.6875 33.2619C46.7091 33.5114 46.5249 33.4897 46.3624 33.4897Z" fill="#DC3333"/>
<path d="M43.4798 26.4822C43.003 25.5276 42.5479 24.573 42.0927 23.6075C42.0711 23.6184 42.0277 23.4882 41.9735 23.3472L42.472 20.8522C42.5696 20.3423 42.1903 19.8759 41.6809 19.8759L40.348 19.865C39.752 18.5958 38.1806 15.2656 37.5629 13.9639C37.3895 13.6384 37.2161 13.3238 37.0211 12.955C36.8043 13.3672 36.6201 13.7252 36.425 14.0832C36.2733 14.4086 36.1324 14.7341 35.9807 15.0595C35.298 16.5022 34.4094 18.3247 33.705 19.8108H33.5424C33.1415 19.8108 32.7947 20.1037 32.7297 20.5051L32.4371 22.4143C31.8735 23.575 29.0885 29.3568 27.9614 31.6674C27.7555 32.123 27.5605 32.5786 27.3329 33.0233C27.127 33.4139 27.1378 33.5766 27.6472 33.5549C28.3949 33.5223 29.1427 33.5657 29.8904 33.5766C30.0746 33.5332 30.2697 33.544 30.3781 33.3054C31.1258 31.6565 32.1011 29.5195 32.8705 27.8381H40.4022C40.7923 27.8381 41.1282 27.5669 41.2041 27.1764L41.2691 26.8618C41.7243 26.8618 42.7971 26.8727 43.2198 26.8944C43.5991 26.9269 43.6532 26.8076 43.4798 26.4822ZM36.9994 18.8345L37.5304 19.8433L36.5117 19.8325L36.9994 18.8345ZM40.1204 27.1764H32.9247C32.708 27.1764 32.5346 26.9812 32.5779 26.7642L33.5099 20.7871C33.5424 20.6135 33.6833 20.4834 33.8675 20.4834L41.3233 20.5376C41.5509 20.5376 41.7134 20.7437 41.6701 20.9607L40.478 26.8835C40.4347 27.0571 40.2938 27.1764 40.1204 27.1764Z" fill="#2E397D"/>
<path d="M39.2867 23.1195H37.8888V21.7201C37.8888 21.5466 37.7479 21.4055 37.5745 21.4055H36.6642C36.4908 21.4055 36.3499 21.5466 36.3499 21.7201V23.1195H34.952C34.7786 23.1195 34.6377 23.2605 34.6377 23.4341V24.3453C34.6377 24.5188 34.7786 24.6599 34.952 24.6599H36.3499V26.0592C36.3499 26.2328 36.4908 26.3738 36.6642 26.3738H37.5745C37.7479 26.3738 37.8888 26.2328 37.8888 26.0592V24.6599H39.2867C39.4601 24.6599 39.601 24.5188 39.601 24.3453V23.4341C39.6118 23.2713 39.4601 23.1195 39.2867 23.1195Z" fill="#DF3434"/>
<defs>
<filter id="filter0_dd_10152_108814" x="0" y="0" width="74" height="74" filterUnits="userSpaceOnUse" color-interpolation-filters="sRGB">
<feFlood flood-opacity="0" result="BackgroundImageFix"/>
<feColorMatrix in="SourceAlpha" type="matrix" values="0 0 0 0 0 0 0 0 0 0 0 0 0 0 0 0 0 0 127 0" result="hardAlpha"/>
<feMorphology radius="2" operator="erode" in="SourceAlpha" result="effect1_dropShadow_10152_108814"/>
<feOffset dy="4"/>
<feGaussianBlur stdDeviation="3"/>
<feColorMatrix type="matrix" values="0 0 0 0 0.0627451 0 0 0 0 0.0941176 0 0 0 0 0.156863 0 0 0 0.03 0"/>
<feBlend mode="normal" in2="BackgroundImageFix" result="effect1_dropShadow_10152_108814"/>
<feColorMatrix in="SourceAlpha" type="matrix" values="0 0 0 0 0 0 0 0 0 0 0 0 0 0 0 0 0 0 127 0" result="hardAlpha"/>
<feMorphology radius="4" operator="erode" in="SourceAlpha" result="effect2_dropShadow_10152_108814"/>
<feOffset dy="12"/>
<feGaussianBlur stdDeviation="8"/>
<feColorMatrix type="matrix" values="0 0 0 0 0.0627451 0 0 0 0 0.0941176 0 0 0 0 0.156863 0 0 0 0.08 0"/>
<feBlend mode="normal" in2="effect1_dropShadow_10152_108814" result="effect2_dropShadow_10152_108814"/>
<feBlend mode="normal" in="SourceGraphic" in2="effect2_dropShadow_10152_108814" result="shape"/>
</filter>
<linearGradient id="paint0_linear_10152_108814" x1="12" y1="0" x2="62" y2="-5.21204e-09" gradientUnits="userSpaceOnUse">
<stop stop-color="#1570EF"/>
<stop offset="1" stop-color="#2E90FA"/>
</linearGradient>
</defs>
</svg>
