<svg width="26" height="26" viewBox="0 0 26 26" fill="none" xmlns="http://www.w3.org/2000/svg">
<path d="M20.6484 20.2258L18.3301 15.6L16.0117 20.2258" stroke="white" strokeWidth="1.5" stroke-linecap="round" stroke-linejoin="round"/>
<path d="M16.4341 19.4025H20.2474" stroke="white" strokeWidth="1.5" stroke-linecap="round" stroke-linejoin="round"/>
<path d="M18.33 23.8333C15.2967 23.8333 12.8267 21.3741 12.8267 18.33C12.8267 15.2966 15.2858 12.8267 18.33 12.8267C21.3633 12.8267 23.8333 15.2858 23.8333 18.33C23.8333 21.3741 21.3742 23.8333 18.33 23.8333Z" stroke="white" strokeWidth="1.5" stroke-linecap="round" stroke-linejoin="round"/>
<path d="M4.00149 12.8238C3.80651 12.8264 3.60554 12.7856 3.40935 12.6959C3.21316 12.6063 3.02745 12.4893 2.85208 12.3343C2.55613 12.0723 2.34107 11.7822 2.20134 11.453C2.06168 11.1294 1.98666 10.7777 1.9817 10.398C1.97447 9.84471 2.09673 9.25176 2.35397 8.62449C2.61122 7.99722 2.96053 7.36875 3.402 6.7445C3.84881 6.11476 4.34479 5.51692 4.89528 4.9455C5.45127 4.37943 6.03504 3.86725 6.64661 3.40896C7.25824 2.9561 7.87101 2.59002 8.47964 2.32166C9.09368 2.05322 9.68235 1.91532 10.2456 1.90796C10.6139 1.90315 10.9668 1.96364 11.2935 2.08957C11.6256 2.21544 11.9316 2.4176 12.2062 2.70155C12.5519 3.04425 12.7248 3.42176 12.73 3.82316C12.732 3.97505 12.7015 4.12735 12.6383 4.26381C12.5751 4.40569 12.4793 4.53173 12.3397 4.6312L10.5851 5.9128C10.4509 6.0122 10.3273 6.08435 10.2088 6.13472C10.0957 6.18503 9.98229 6.21364 9.87938 6.21498C9.74939 6.21668 9.61891 6.18041 9.49334 6.1061C9.36785 6.03721 9.23651 5.93584 9.10482 5.80736L8.67156 5.4007C8.6112 5.34181 8.54043 5.31561 8.45377 5.31674C8.41044 5.31731 8.3726 5.32323 8.32941 5.33464C8.2863 5.35148 8.25401 5.36818 8.22166 5.37945C8.0442 5.47943 7.8135 5.65063 7.53497 5.89298C7.25652 6.14075 6.97287 6.40487 6.68949 6.69069C6.40626 6.98736 6.14455 7.27289 5.90458 7.56357C5.66995 7.84875 5.51052 8.08412 5.41544 8.26982C5.40496 8.29708 5.38913 8.32984 5.37338 8.36802C5.3577 8.41163 5.35285 8.45509 5.35349 8.50391C5.35469 8.59613 5.38811 8.66622 5.44847 8.72511L5.86007 9.13205C5.99725 9.26589 6.10186 9.39473 6.16848 9.51864C6.24594 9.64241 6.28549 9.76667 6.28726 9.90228C6.2886 10.0053 6.26836 10.1141 6.22117 10.2341C6.17398 10.3541 6.1052 10.4797 6.0149 10.6165L4.76556 12.4286C4.66991 12.5709 4.55744 12.6701 4.42282 12.7315C4.28812 12.7875 4.15314 12.8218 4.00149 12.8238Z" stroke="white" strokeWidth="1.5" stroke-miterlimit="10"/>
<path d="M2.1665 16.25C2.1665 20.4425 5.55734 23.8333 9.74984 23.8333L8.61233 21.9375" stroke="white" strokeWidth="1.5" stroke-linecap="round" stroke-linejoin="round"/>
<path d="M23.8333 9.75C23.8333 5.5575 20.4425 2.16667 16.25 2.16667L17.3875 4.0625" stroke="white" strokeWidth="1.5" stroke-linecap="round" stroke-linejoin="round"/>
</svg>
