<svg width="32" height="32" viewBox="0 0 32 32" fill="none" xmlns="http://www.w3.org/2000/svg">
<circle cx="16" cy="16" r="15.25" stroke="white" strokeWidth="1.5"/>
<path d="M23.9597 23.1547C23.287 23.1547 22.6143 23.1547 21.9416 23.1639C21.7849 23.1639 21.6836 23.1178 21.6098 22.9702C21.1398 21.9739 20.6607 20.9869 20.1538 19.9261C21.0293 19.9261 21.831 19.9261 22.6327 19.9261C22.8355 19.9261 22.8815 20.0645 22.9461 20.2028C23.1764 20.7009 23.416 21.1991 23.6556 21.688C23.8123 22.1308 24.0058 22.5459 24.2362 22.961C24.2546 23.1731 24.098 23.1547 23.9597 23.1547Z" fill="#2E397C"/>
<path d="M23.9597 23.1547C23.287 23.1547 22.6143 23.1547 21.9416 23.1639C21.7849 23.1639 21.6836 23.1178 21.6098 22.9702C21.1398 21.9739 20.6607 20.9869 20.1538 19.9261C21.0293 19.9261 21.831 19.9261 22.6327 19.9261C22.8355 19.9261 22.8815 20.0645 22.9461 20.2028C23.1764 20.7009 23.416 21.1991 23.6556 21.688C23.8123 22.1308 24.0058 22.5459 24.2362 22.961C24.2546 23.1731 24.098 23.1547 23.9597 23.1547Z" fill="#FEFEFE"/>
<path d="M23.9597 23.1547C23.287 23.1547 22.6143 23.1547 21.9416 23.1639C21.7849 23.1639 21.6836 23.1178 21.6098 22.9702C21.1398 21.9739 20.6607 20.9869 20.1538 19.9261C21.0293 19.9261 21.831 19.9261 22.6327 19.9261C22.8355 19.9261 22.8815 20.0645 22.9461 20.2028C23.1764 20.7009 23.416 21.1991 23.6556 21.688C23.4713 21.6603 23.4253 21.5035 23.3515 21.3743C23.2778 21.236 23.2225 21.0976 23.1672 20.9592C22.7802 20.0368 22.7802 20.0368 21.7941 20.0368C21.444 20.0368 21.0938 20.0368 20.7436 20.0368C20.4763 20.0368 20.3565 20.1106 20.504 20.3873C20.9003 21.1345 21.1951 21.9186 21.5914 22.6658C21.702 22.8687 21.831 23.0163 22.0798 23.0163C22.7986 23.0071 23.5174 23.0717 24.227 22.961C24.2546 23.1731 24.098 23.1547 23.9597 23.1547Z" fill="#E4E4E6"/>
<path d="M15.9898 27.1799C22.0706 27.1799 27 22.2455 27 16.1586C27 10.0717 22.0706 5.1373 15.9898 5.1373C9.90896 5.1373 4.97949 10.0717 4.97949 16.1586C4.97949 22.2455 9.90896 27.1799 15.9898 27.1799Z" fill="white"/>
<path d="M25.3624 24.4897C24.5713 24.4897 23.7802 24.4897 22.9891 24.5005C22.8048 24.5005 22.6856 24.4463 22.5989 24.2727C22.0463 23.1012 21.4827 21.9405 20.8867 20.693C21.9162 20.693 22.859 20.693 23.8018 20.693C24.0403 20.693 24.0944 20.8557 24.1703 21.0184C24.4412 21.6042 24.723 22.19 25.0047 22.7649C25.189 23.2856 25.4165 23.7737 25.6875 24.2619C25.7091 24.5114 25.5249 24.4897 25.3624 24.4897Z" fill="#DC3333"/>
<path d="M22.4798 17.4822C22.003 16.5276 21.5479 15.573 21.0927 14.6075C21.0711 14.6184 21.0277 14.4882 20.9735 14.3472L21.472 11.8522C21.5696 11.3423 21.1903 10.8759 20.6809 10.8759L19.348 10.865C18.752 9.59585 17.1806 6.26559 16.5629 4.96387C16.3895 4.63843 16.2161 4.32385 16.0211 3.95503C15.8043 4.36724 15.6201 4.72521 15.425 5.08319C15.2733 5.40862 15.1324 5.73405 14.9807 6.05949C14.298 7.50224 13.4094 9.32466 12.705 10.8108H12.5424C12.1415 10.8108 11.7947 11.1037 11.7297 11.5051L11.4371 13.4143C10.8735 14.575 8.08847 20.3568 6.96143 22.6674C6.75553 23.123 6.56047 23.5786 6.3329 24.0233C6.12699 24.4139 6.13783 24.5766 6.64717 24.5549C7.39491 24.5223 8.14265 24.5657 8.8904 24.5766C9.07463 24.5332 9.26969 24.544 9.37806 24.3054C10.1258 22.6565 11.1011 20.5195 11.8705 18.8381H19.4022C19.7923 18.8381 20.1282 18.5669 20.2041 18.1764L20.2691 17.8618C20.7243 17.8618 21.7971 17.8727 22.2198 17.8944C22.5991 17.9269 22.6532 17.8076 22.4798 17.4822ZM15.9994 9.8345L16.5304 10.8433L15.5117 10.8325L15.9994 9.8345ZM19.1204 18.1764H11.9247C11.708 18.1764 11.5346 17.9812 11.5779 17.7642L12.5099 11.7871C12.5424 11.6135 12.6833 11.4834 12.8675 11.4834L20.3233 11.5376C20.5509 11.5376 20.7134 11.7437 20.6701 11.9607L19.478 17.8835C19.4347 18.0571 19.2938 18.1764 19.1204 18.1764Z" fill="#2E397D"/>
<path d="M18.2867 14.1195H16.8888V12.7201C16.8888 12.5466 16.7479 12.4055 16.5745 12.4055H15.6642C15.4908 12.4055 15.3499 12.5466 15.3499 12.7201V14.1195H13.952C13.7786 14.1195 13.6377 14.2605 13.6377 14.4341V15.3453C13.6377 15.5188 13.7786 15.6599 13.952 15.6599H15.3499V17.0592C15.3499 17.2328 15.4908 17.3738 15.6642 17.3738H16.5745C16.7479 17.3738 16.8888 17.2328 16.8888 17.0592V15.6599H18.2867C18.4601 15.6599 18.601 15.5188 18.601 15.3453V14.4341C18.6118 14.2713 18.4601 14.1195 18.2867 14.1195Z" fill="#DF3434"/>
</svg>
