<svg width="348" height="177" viewBox="0 0 348 177" fill="none" xmlns="http://www.w3.org/2000/svg">
<path d="M258.23 120.496C262.83 112.776 260.3 102.786 252.58 98.1856L91.6198 2.29563C83.8998 -2.30437 73.9098 0.225634 69.3098 7.94563C64.7098 15.6656 67.2398 25.6556 74.9598 30.2556L235.92 126.146C243.65 130.746 253.64 128.216 258.23 120.496Z" fill="#EFF1F5"/>
<path d="M294.68 142.206C299.28 134.486 296.75 124.496 289.03 119.896L285.71 117.916C277.99 113.316 268 115.846 263.4 123.566C258.8 131.286 261.33 141.276 269.05 145.876L272.37 147.856C280.1 152.456 290.08 149.926 294.68 142.206Z" fill="#EFF1F5"/>
<path d="M345.32 130.986C349.92 123.266 347.39 113.276 339.67 108.676L178.71 12.7856C170.99 8.18562 161 10.7156 156.4 18.4356C151.8 26.1556 154.33 36.1456 162.05 40.7456L323.01 136.636C330.74 141.236 340.72 138.706 345.32 130.986Z" fill="#EFF1F5"/>
<path d="M265.79 166.396C270.39 158.676 267.86 148.686 260.14 144.086L99.1799 48.1956C91.4599 43.5956 81.4699 46.1256 76.8699 53.8456C72.2699 61.5656 74.7998 71.5556 82.5198 76.1556L243.48 172.046C251.21 176.646 261.19 174.116 265.79 166.396Z" fill="#EFF1F5"/>
<path d="M71.1699 48.8256C75.7699 41.1056 73.2399 31.1156 65.5199 26.5156L24.9899 2.37562C17.2699 -2.22438 7.27991 0.30562 2.67991 8.02562C-1.92009 15.7456 0.609911 25.7356 8.32991 30.3356L48.8499 54.4756C56.5799 59.0756 66.5699 56.5456 71.1699 48.8256Z" fill="#EFF1F5"/>
<path d="M198.11 168.276C202.71 160.556 200.18 150.566 192.46 145.966L31.4997 50.0856C23.7797 45.4856 13.7897 48.0156 9.18968 55.7356C4.58968 63.4556 7.11968 73.4456 14.8397 78.0456L175.8 173.936C183.53 178.526 193.52 175.996 198.11 168.276Z" fill="#EFF1F5"/>
<path d="M151.72 144.906C151.83 146.036 151.86 147.156 151.72 148.286C151.17 148.246 150.63 148.216 150.08 148.216C134.24 148.216 118.44 148.216 102.6 148.176C102.6 143.666 102.53 139.206 102.6 134.696C102.64 132.476 103.65 130.696 105.61 129.576C105.94 129.906 105.86 130.336 105.83 130.736C105.76 132.186 105.79 133.646 105.79 135.096C105.83 140.586 109.6 144.396 115.13 144.466C120.43 144.536 125.74 144.466 131.04 144.466C137.25 144.466 143.47 144.466 149.68 144.466C150.37 144.506 151.1 144.396 151.72 144.906Z" fill="#53B1FD"/>
<path d="M105.18 79.7656C104.71 81.4756 104.24 81.8756 102.2 81.7656C100.96 81.6956 100.71 82.0956 100.71 83.2556C100.78 87.2156 100.71 91.1356 100.75 95.0956C100.75 96.2556 100.53 97.2756 99.3298 97.7456C98.1698 98.2156 97.3298 97.6356 96.5698 96.8356C91.9898 92.1856 87.3398 87.5756 82.7998 82.8856C81.9598 82.0556 81.1298 81.6456 79.9698 81.7256C78.2598 81.8356 76.5198 81.7656 74.8098 81.7656C70.5198 81.6956 67.5398 78.7156 67.5098 74.4656C67.5098 55.7156 67.5098 36.9756 67.5098 18.2256C67.5098 13.9056 70.5598 10.8556 74.8798 10.8556C109.76 10.8556 144.6 10.8556 179.47 10.8556C183.79 10.8556 186.85 13.9056 186.85 18.2256C186.85 36.9756 186.85 55.7156 186.85 74.4656C186.85 78.7156 183.84 81.7656 179.58 81.7656C171.19 81.8056 162.8 81.8056 154.37 81.7656C152.66 81.7656 152.19 81.3656 151.68 79.5156C151.43 78.2756 152.15 77.6656 153.13 77.2256C154.04 76.8256 154.98 76.8656 155.96 76.8656C163.59 76.8656 171.22 76.8656 178.85 76.8656C179.87 76.8656 180.99 77.0856 181.61 75.9256C182.01 75.1656 182.05 74.3656 182.05 73.5256C182.05 55.3556 182.05 37.1956 182.05 19.0656C182.05 16.4156 181.18 15.6556 178.16 15.6556C147.79 15.6556 117.42 15.6556 87.0498 15.6556C83.1598 15.6556 79.2398 15.6956 75.3498 15.6156C73.0998 15.7656 72.2598 16.5956 72.2598 18.8856C72.2598 37.1556 72.2598 55.4656 72.2598 73.7456C72.2598 76.2156 72.9898 76.9056 75.4198 76.9456C77.3098 76.9456 79.2298 76.9856 81.1198 76.9456C82.8298 76.9056 84.1698 77.5256 85.3698 78.7256C88.5298 81.9256 91.4698 85.3056 94.7398 88.3856C95.0698 88.6756 95.3198 89.0756 95.8698 89.3256C96.0498 87.6556 95.9098 86.0556 95.9398 84.4556C95.9398 83.2956 95.9398 82.0956 95.9398 80.9356C95.9798 78.1056 96.6998 77.2656 99.5698 76.9756C100.95 77.0156 102.37 76.8256 103.71 77.3356C105 77.7756 105.43 78.4956 105.18 79.7656Z" fill="#344054"/>
<path d="M151.72 144.906C139.55 144.906 127.42 144.906 115.24 144.906C109.39 144.906 105.36 140.876 105.39 134.986C105.39 133.166 105.21 131.356 105.61 129.576C106.19 128.996 106.95 128.816 107.68 128.596C110.88 127.656 114.11 126.776 117.31 125.796C118.11 125.546 118.47 125.686 118.91 126.416C121.34 130.336 125.56 132.046 130.03 130.956C132.54 130.336 134.43 128.846 135.59 126.526C135.95 125.796 136.28 125.546 137.12 125.796C140.32 126.776 143.55 127.646 146.75 128.596C149.95 129.536 151.73 131.866 151.76 135.206C151.82 138.476 151.75 141.716 151.72 144.906Z" fill="#84CAFF"/>
<path d="M112.75 77.4156C108.82 77.4156 104.01 77.3456 104.01 77.3456C104.01 77.3456 98.8097 76.0056 97.0097 78.3456C95.9297 79.7456 96.0097 80.8456 96.0097 80.8456V88.8456L93.9897 84.9056C92.0997 83.0156 90.2097 81.1256 88.3897 79.1956C87.4597 78.2156 86.4597 77.7256 85.0897 77.7556C83.9997 76.8456 82.2497 76.4256 80.4997 76.3456C76.3097 76.1956 73.5597 75.2956 73.5197 71.0256C73.5197 52.6956 73.5197 34.3656 73.5197 16.0356C73.5197 15.2756 73.3697 14.5256 73.9297 13.8856C74.3697 13.8856 74.8597 13.8456 75.2997 13.8456C110.04 13.8456 144.78 13.8456 179.52 13.8456C182.63 13.8456 183.49 14.6756 183.49 17.8556C183.49 36.8256 183.49 55.7956 183.49 74.8056C183.49 75.6756 183.64 76.6156 182.9 77.3356C170.52 77.3356 158.09 77.3356 145.71 77.3356C145.15 76.8056 144.78 76.0156 144 75.7156C143.11 75.4156 142.22 75.4556 141.59 76.2056C140.03 77.9856 138.22 78.2056 136.1 77.3756C131.76 75.7156 127.28 74.8056 122.57 74.9956C119.17 75.2256 115.87 75.9456 112.75 77.4156Z" fill="white"/>
<path d="M74.81 13.8556C74.81 32.5356 74.81 51.1756 74.81 69.8556C74.81 73.4256 76.5 73.8556 76.5 73.8556C76.5 73.8556 82.49 73.9256 84.5 73.8556C87 73.7156 88.36 75.9256 89.11 76.7056C91.52 79.1756 93.55 81.4256 96 83.8556C96 85.8056 96 87.7556 96 89.7156C93.33 87.1356 91.22 84.7756 88.62 82.2356C87.25 80.8756 85.83 79.5056 84.53 78.1056C83.49 77.3556 83.49 77.3556 81.71 76.9256C79.41 76.9656 77.07 76.9656 74.76 76.9256C72.53 76.8856 71.49 75.8956 71.49 73.7156C71.49 54.8556 71.49 35.9556 71.49 17.0956C71.47 14.8456 72.55 13.8156 74.81 13.8556Z" fill="#EAECF0"/>
<path d="M154.7 150.106C154.23 150.106 153.79 150.106 153.32 150.106C152.45 149.816 152.05 149.056 151.72 148.286C151.03 147.346 151.36 146.216 151.32 145.196C151.39 141.886 151.21 138.586 151.39 135.276C151.54 132.076 149.32 129.756 146.74 129.026C144.12 128.266 141.51 127.536 138.89 126.776C138.6 126.706 138.27 126.636 137.98 126.526C136.85 125.986 136.2 126.416 135.55 127.396C131.3 133.786 122.69 132.296 119.35 127.726C118.08 126.016 118.08 126.016 116.08 126.596C113.46 127.326 110.85 128.086 108.23 128.846C107.32 129.096 106.41 129.466 105.61 129.976C103.94 131.286 103.03 132.916 103.03 135.096C103.07 138.806 103.07 142.546 103.03 146.246C103.03 146.896 103.14 147.626 102.59 148.176C102.3 149.006 101.94 149.776 101.03 150.066C100.56 150.066 100.12 150.066 99.6499 150.066C98.5199 149.626 98.1599 148.726 98.1599 147.556C98.1599 143.416 98.1199 139.306 98.1999 135.166C98.2699 129.826 101.36 125.906 106.48 124.376C109.75 123.436 112.98 122.446 116.25 121.576C117.23 121.326 117.59 120.926 117.59 119.866C117.66 117.176 117.48 114.816 115.3 112.636C112.79 110.126 112.25 106.646 112.54 103.116C112.65 101.486 112.18 100.286 110.98 99.0856C105.89 94.1456 104.59 86.4056 109.2 79.5056C110 77.7256 111.67 76.9256 113.12 75.8756C116.1 74.3456 119.3 73.8056 122.57 73.6556C126.93 73.4756 131.18 74.0956 135.25 75.6556C135.79 75.8756 136.38 75.9856 136.96 76.1656C138.34 76.5656 139.5 76.2356 140.63 75.3656C142.74 73.6556 143.83 73.7656 145.53 75.8356C146.18 77.0356 147.16 78.0856 147.31 79.5056C148.91 83.9756 148.94 88.4456 147.27 92.9056C146.25 95.5956 144.47 97.7756 142.44 99.6956C141.82 100.276 141.57 100.826 141.57 101.696C141.61 103.366 141.68 105.076 141.46 106.706C141.1 109.686 139.61 112.196 137.5 114.266C136.88 114.886 136.67 115.466 136.7 116.296C136.77 117.536 136.77 118.766 136.7 119.966C136.66 120.836 136.92 121.206 137.79 121.456C141.21 122.366 144.58 123.386 147.96 124.396C152.86 125.846 155.95 129.666 156.1 134.746C156.25 139.066 156.14 143.356 156.14 147.676C156.18 148.836 155.75 149.666 154.7 150.106Z" fill="#344054"/>
<path d="M111.36 91.5056C109.36 86.3156 112.09 80.8656 117.72 79.2256C122.7 77.7756 127.67 78.1756 132.58 79.7356C133.82 80.1356 135.09 80.5356 136.36 80.8956C138.21 81.4356 140.03 81.3656 141.77 80.3856C142.39 80.0256 142.82 79.9856 143.12 80.7856C145.04 85.6156 144.57 90.1556 141.56 94.4056C141.12 95.0256 140.76 95.2756 140.43 94.2556C140.21 93.5656 139.81 92.9456 139.49 92.2956C139.2 91.8556 138.91 91.3856 138.65 90.9156C137.96 89.6456 137.56 89.4656 136.43 90.2656C131.92 93.3556 127.27 92.7756 122.55 90.9956C121.46 90.5956 120.48 89.7556 119.43 91.0356C119.32 91.1756 118.99 91.0756 118.78 91.1756C117.98 91.3956 117.54 92.0156 117.22 92.7056C116.75 93.7256 116.24 94.7056 115.51 95.5756C113.91 95.5356 113.33 94.1556 112.42 93.2156C111.94 92.7756 111.61 92.1256 111.36 91.5056Z" fill="#52545A"/>
<path d="M136.28 95.7956C136.82 97.3956 137.26 98.8856 137.26 100.486C137.26 101.536 137.26 102.556 137.26 103.606C137.26 109.016 133.85 113.556 128.61 115.046C127.3 115.406 126.03 115.266 124.76 114.796C119.67 112.796 117.02 108.726 116.84 103.276C116.77 101.316 117.46 99.9356 118.66 98.5856C119.28 97.9356 119.57 96.8056 120.26 96.4756C120.99 96.1156 121.89 96.9456 122.77 97.1656C127.45 98.5156 131.99 98.8456 136.28 95.7956Z" fill="#FEDDCE"/>
<path d="M128.54 119.626C129.78 119.226 131.01 118.826 132.32 118.426C132.32 120.026 132.54 121.626 132.28 123.146C131.59 126.856 126.83 128.196 123.85 125.656C123.31 125.186 122.8 124.676 122.58 123.946C122.47 122.926 123.16 122.276 123.82 121.656C125.12 120.426 126.72 119.766 128.54 119.626Z" fill="#FBD2C3"/>
<path d="M118.73 91.1756C118.95 91.0256 119.35 90.9556 119.42 90.7756C120.04 89.1056 120.98 89.9756 121.96 90.3756C126.17 92.1556 130.42 93.0256 134.78 90.8156C135.32 90.5256 135.83 90.1256 136.38 89.7956C137.58 89.0356 138.12 89.1456 138.74 90.4156C139.03 91.0356 139.21 91.6856 139.43 92.3056C137.25 90.4156 136.41 90.3756 134.05 92.0556C130.45 94.5656 126.71 93.9456 122.86 92.6356C121.49 92.1956 120.36 90.9556 118.73 91.1756Z" fill="#484A4F"/>
<path d="M128.54 119.626C127.2 120.246 125.78 120.536 124.54 121.446C123.63 122.136 123.05 122.966 122.54 123.916C121.41 122.316 122.07 120.536 121.96 118.826C121.92 118.176 122.47 118.576 122.72 118.676C124.62 119.516 126.5 119.846 128.54 119.626Z" fill="#FCC5B3"/>
<path d="M111.35 91.5056C112.66 92.9256 113.64 94.6656 115.45 95.5756C114.62 96.8456 114.54 96.8856 113.63 95.6856C112.66 94.4156 111.61 93.1756 111.35 91.5056Z" fill="#46484D"/>
<path d="M114.7 43.5856C114.7 47.7656 114.7 51.9456 114.7 56.1156C114.7 58.1156 113.97 58.8356 112.01 58.8356C103.65 58.8356 95.3297 58.8356 86.9797 58.8356C85.0197 58.8356 84.2197 58.0756 84.2197 56.1456C84.2197 47.7556 84.2197 39.3656 84.2197 30.9656C84.2197 29.1156 85.0197 28.3156 86.9097 28.3156C95.2997 28.3156 103.69 28.3156 112.09 28.3156C113.98 28.3156 114.74 29.0456 114.74 30.9356C114.7 35.1256 114.7 39.3356 114.7 43.5856Z" fill="#344054"/>
<path d="M149.57 32.6556C142.41 32.6556 135.22 32.6556 128.06 32.6556C127.7 32.6556 127.33 32.6956 126.97 32.6556C125.77 32.5456 124.97 31.6756 124.94 30.5156C124.94 29.3556 125.7 28.4856 126.9 28.3356C127.26 28.2956 127.63 28.3356 127.99 28.3356C142.38 28.3356 156.76 28.3356 171.11 28.3356C171.47 28.3356 171.84 28.2956 172.2 28.3756C173.36 28.5256 174.27 29.4656 174.2 30.5956C174.13 31.7556 173.44 32.5256 172.27 32.7056C171.87 32.7756 171.47 32.7456 171.03 32.7456C163.92 32.6556 156.73 32.6556 149.57 32.6556Z" fill="#344054"/>
<path d="M149.65 41.3756C156.77 41.3756 163.89 41.3756 171.01 41.3756C171.41 41.3756 171.85 41.3356 172.25 41.4156C173.41 41.5656 174.32 42.5056 174.25 43.6356C174.18 44.7956 173.49 45.5656 172.32 45.7456C171.96 45.8156 171.59 45.7856 171.23 45.7856C156.81 45.7856 142.38 45.7856 127.96 45.7856C127.63 45.7856 127.31 45.8256 127.02 45.7856C125.82 45.6756 125.02 44.8056 124.99 43.6456C124.99 42.4856 125.75 41.5756 126.95 41.4656C127.35 41.4256 127.75 41.4656 128.19 41.4656C135.33 41.3756 142.49 41.3756 149.65 41.3756Z" fill="#344054"/>
<path d="M149.5 58.8056C142.38 58.8056 135.26 58.8056 128.14 58.8056C127.74 58.8056 127.3 58.8456 126.9 58.7656C125.7 58.6156 124.9 57.7156 124.94 56.5456C124.98 55.3056 125.67 54.6556 126.86 54.4356C127.26 54.3656 127.66 54.3956 128.1 54.3956C142.45 54.3956 156.76 54.3956 171.11 54.3956C171.51 54.3956 171.95 54.3556 172.35 54.4356C173.55 54.6556 174.24 55.3756 174.24 56.5756C174.24 57.7356 173.55 58.5056 172.39 58.7556C171.99 58.8256 171.59 58.7956 171.15 58.7956C163.92 58.8056 156.69 58.8056 149.5 58.8056Z" fill="#344054"/>
<path d="M110.34 43.5556C110.34 46.8656 110.3 50.1656 110.34 53.4756C110.34 54.2356 110.16 54.4556 109.36 54.4556C102.75 54.4156 96.0998 54.4156 89.4898 54.4556C88.7298 54.4556 88.5098 54.2756 88.5098 53.4756C88.5498 46.8656 88.5498 40.2156 88.5098 33.6056C88.5098 32.8456 88.7298 32.6256 89.4898 32.6256C96.0998 32.6656 102.75 32.6656 109.36 32.6256C110.12 32.6256 110.34 32.8456 110.34 33.6056C110.34 36.9356 110.34 40.2456 110.34 43.5556Z" fill="#FEFEFE"/>
<path d="M97.6201 51.8356C96.8601 51.8756 96.3101 51.6156 95.8401 51.2556C94.3501 50.0556 92.8601 48.8956 91.3701 47.6956C90.2101 46.7556 89.9901 45.4756 90.7201 44.4956C91.5601 43.4056 92.7601 43.3356 94.0601 44.2756C94.1001 44.3156 94.1301 44.3456 94.1701 44.3456C95.1501 45.0356 96.1001 46.5656 97.0401 46.3456C97.9801 46.1256 98.6401 44.6056 99.3601 43.6556C101.18 41.3656 102.96 39.0756 104.77 36.8256C105.79 35.5556 107.02 35.3356 108.08 36.1356C109.13 36.9756 109.21 38.2456 108.19 39.5156C105.25 43.2556 102.3 46.9956 99.3301 50.7456C98.8901 51.3256 98.3101 51.8356 97.6201 51.8356Z" fill="#FD853A"/>
<path d="M247.22 151.826C247.56 151.486 247.99 151.546 248.43 151.606C248.37 151.666 248.37 151.726 248.4 151.826C248 151.826 247.63 151.826 247.22 151.826Z" fill="#404040"/>
<path d="M261.65 64.2856C262.95 64.7156 264.28 65.1256 265.58 65.6156C266.85 66.1156 267.44 67.2256 267.28 68.5856C267.06 70.3856 266.85 72.1756 266.57 73.9756C266.38 75.1856 266.72 76.0156 267.93 76.4256C267.71 77.5356 267.47 78.6856 267.25 79.7956C266.01 79.7356 265.36 80.3556 265.08 81.5556C262.94 90.2556 260.1 98.7356 256.57 106.996C256.2 107.866 255.92 108.146 254.93 107.766C252.08 106.656 249.2 105.696 246.32 104.666C245.98 104.206 246.26 103.766 246.41 103.336C250.62 90.6156 255.11 78.0156 260.31 65.6356C260.53 65.0956 260.56 64.1356 261.65 64.2856Z" fill="#D94A54"/>
<path d="M161.33 130.896C161.33 129.746 161.33 128.606 161.33 127.496C162.82 127.066 163.09 126.696 163.09 124.956C163.09 111.146 163.09 97.3456 163.09 83.5056C163.09 77.0356 166.77 71.9256 172.62 70.2556C174.01 69.8556 175.44 69.7256 176.86 69.7256C179.77 69.7256 182.68 69.7856 185.56 69.6956C191.63 69.5456 196.24 64.8356 196.33 58.7356C196.39 55.8856 196.33 53.0056 196.33 50.1656C196.36 42.1156 202.02 36.4856 210.07 36.4856C222.05 36.4856 234.06 36.4856 246.04 36.4856C250.93 36.4856 254.12 39.6456 254.12 44.5356C254.12 50.5356 254.12 56.5156 254.12 62.5156C254.12 63.0156 254.09 63.4756 253.81 63.9356C246.85 75.1756 242.17 87.3956 238.61 100.056C236.54 107.486 234.93 114.976 234.8 122.746C234.77 125.256 234.89 127.756 235.82 130.176C236.01 130.636 236.19 131.106 236.5 131.506C237 132.156 237.34 132.746 237 133.676C236.69 134.516 237.18 135.286 238.08 135.596C238.95 135.876 239.81 135.656 240.15 134.796C240.46 133.986 241.02 133.776 241.76 133.586C243.43 133.186 244.73 132.126 245.94 130.986C249.01 128.076 251.23 124.576 253.4 120.986C253.59 120.676 253.74 120.396 253.96 120.056C254.33 120.306 254.15 120.616 254.15 120.896C254.15 127.396 254.18 133.896 254.15 140.396C254.15 145.226 250.96 148.386 246.16 148.386C221.12 148.386 196.11 148.386 171.07 148.386C166.24 148.386 163.11 145.256 163.08 140.396C163.05 137.956 163.08 135.536 163.08 133.096C163.06 131.646 162.69 131.236 161.33 130.896Z" fill="white"/>
<mask id="mask0_13466_4757" style="mask-type:luminance" maskUnits="userSpaceOnUse" x="191" y="63" width="27" height="18">
<path d="M217.03 63.3656H191.89V80.5656H217.03V63.3656Z" fill="white"/>
</mask>
<g mask="url(#mask0_13466_4757)">
<path d="M215.15 70.1056C215.01 70.3256 214.96 70.5856 214.92 70.8556C214.87 71.1856 214.82 71.5056 214.7 71.8256C214.57 72.2056 214.34 72.6256 213.95 72.9456C213.55 71.7956 212.96 70.7156 212.22 69.7756C212.69 69.5756 213.14 69.5856 213.52 69.6456C213.83 69.6956 214.12 69.8156 214.42 69.9356C214.66 70.0356 214.9 70.1256 215.15 70.1056ZM210.62 65.3056C210.61 65.5656 210.69 65.8156 210.78 66.0756C210.89 66.3956 211 66.6956 211.05 67.0256C211.11 67.4256 211.11 67.9056 210.93 68.4056C210.04 67.6156 209.03 66.9956 207.94 66.5756C208.25 66.1556 208.65 65.9156 209 65.7756C209.3 65.6556 209.6 65.6056 209.91 65.5456C210.16 65.4956 210.41 65.4456 210.62 65.3056ZM214.43 74.8356C214.92 74.9156 215.31 75.1556 215.61 75.4156C215.85 75.6256 216.05 75.8756 216.25 76.1356C216.42 76.3456 216.58 76.5556 216.8 76.6656H214.58C214.58 76.0556 214.53 75.4456 214.43 74.8356ZM198.24 65.3056C198.45 65.4456 198.69 65.5056 198.95 65.5456C199.27 65.5956 199.57 65.6556 199.86 65.7756C200.22 65.9156 200.61 66.1556 200.92 66.5756C199.83 67.0056 198.82 67.6256 197.93 68.4056C197.74 67.9156 197.75 67.4256 197.81 67.0256C197.86 66.6956 197.97 66.3856 198.08 66.0756C198.18 65.8156 198.26 65.5656 198.24 65.3056ZM193.72 70.1056C193.97 70.1256 194.21 70.0356 194.45 69.9356C194.75 69.8156 195.04 69.7056 195.35 69.6456C195.73 69.5756 196.18 69.5756 196.65 69.7756C195.91 70.7156 195.32 71.7956 194.92 72.9456C194.53 72.6156 194.31 72.1956 194.17 71.8256C194.06 71.5156 194.01 71.1956 193.96 70.8556C193.9 70.5856 193.85 70.3256 193.72 70.1056ZM192.06 76.6756C192.28 76.5556 192.45 76.3556 192.61 76.1456C192.81 75.8856 193.01 75.6356 193.25 75.4256C193.54 75.1756 193.93 74.9256 194.43 74.8456C194.33 75.4556 194.28 76.0656 194.28 76.6756H192.06ZM204.43 63.5456C204.54 63.7756 204.73 63.9556 204.93 64.1356C205.18 64.3456 205.41 64.5556 205.61 64.8156C205.85 65.1256 206.08 65.5456 206.15 66.0756C205.58 65.9756 205 65.9156 204.42 65.9156C203.83 65.9156 203.25 65.9656 202.69 66.0756C202.76 65.5456 202.99 65.1256 203.23 64.8156C203.43 64.5556 203.66 64.3456 203.91 64.1356C204.13 63.9556 204.32 63.7756 204.43 63.5456Z" fill="#FAB60F"/>
<path d="M202.37 76.6756H203.13C203.23 75.9956 203.03 75.4656 202.38 75.5956C201.83 75.7056 201.24 76.2756 200.88 76.6756H201.89C202 76.5956 202.22 76.5056 202.31 76.5756C202.35 76.5956 202.36 76.6256 202.37 76.6756Z" fill="#1849A9"/>
<path d="M205.8 76.6756H206.75C206.8 75.4856 206.61 74.2456 206.09 73.1856C205.61 72.2156 204.83 71.5556 203.81 71.3956C202.32 71.1656 200.82 71.8256 199.56 72.7856C198.18 73.8256 197.04 75.2356 196.04 76.6756H197.3C198.43 74.9656 201.04 72.3856 202.96 72.3656C203.57 72.3556 204.19 72.5156 204.65 72.9456C204.98 73.2656 205.39 73.8756 205.37 74.3656C205.36 74.6556 205.11 74.7456 204.87 74.6556C204.69 74.5856 204.56 74.4056 204.43 74.2156C204.01 73.6056 203.36 73.3156 202.65 73.4156C201.8 73.5356 200.74 74.2356 200.06 74.8756C199.47 75.4256 198.94 76.0256 198.43 76.6656H199.78C200.28 76.0256 200.8 75.4856 201.47 75.0456C201.68 74.9056 201.95 74.7556 202.22 74.6556C202.92 74.4056 203.61 74.4656 203.92 75.3856C204.04 75.7456 204.06 76.0656 204.02 76.6456V76.6656H204.94V76.6356C204.94 76.3156 204.93 76.1056 204.96 75.7856C204.98 75.5156 205.06 75.2356 205.3 75.1956C205.82 75.0956 205.79 76.2856 205.8 76.6756Z" fill="#1849A9"/>
<path d="M207.76 76.6756H208.72C208.77 75.5656 208.68 74.2556 208.34 73.1056C208.27 72.8856 208.2 72.6656 208.11 72.4556C207.9 71.9556 207.63 71.5156 207.3 71.0956C206.94 70.6356 206.5 70.2256 206.01 69.8956C205.86 69.7956 205.72 69.7056 205.56 69.6256C205.41 69.5456 205.25 69.4756 205.08 69.4156C203.21 68.7156 201.32 69.2156 199.73 70.1256C199.43 70.3056 199.13 70.4956 198.84 70.7056C198.56 70.9056 198.29 71.1156 198.03 71.3456C197.66 71.6656 197.31 72.0156 196.98 72.3756C196.91 72.4556 196.83 72.5456 196.76 72.6256C196.57 72.8556 196.28 73.1656 196.37 73.5056C196.44 73.7656 196.76 73.6856 196.87 73.5956C197.04 73.4956 197.23 73.3456 197.38 73.2056C197.6 73.0156 197.8 72.8056 198.01 72.6056C198.87 71.8056 199.78 71.1956 200.66 70.7856C200.85 70.6956 201.04 70.6156 201.24 70.5456C201.43 70.4756 201.62 70.4156 201.81 70.3556C203.46 69.8956 205.26 70.1956 206.41 71.6256C207.54 72.9956 207.74 74.8356 207.76 76.6756ZM195.84 75.1156C195.94 75.0156 196.05 74.8756 196.16 74.7356C196.31 74.5256 196.33 74.3256 196.27 74.1856C196.25 74.1356 196.22 74.0856 196.17 74.0456C196.13 74.0056 196.08 73.9856 196.03 73.9756C195.91 73.9456 195.76 73.9956 195.63 74.1556C195.49 74.3356 195.29 74.6556 195.25 74.9356C195.24 74.9856 195.24 75.0356 195.25 75.0856C195.26 75.1356 195.27 75.1756 195.29 75.2156C195.32 75.2856 195.38 75.3156 195.45 75.3156C195.46 75.3156 195.48 75.3156 195.5 75.3156C195.52 75.3156 195.54 75.3056 195.56 75.3056C195.64 75.2856 195.74 75.2156 195.84 75.1156Z" fill="#1849A9"/>
<path d="M210.16 76.6756C210.27 76.6856 210.44 76.6356 210.55 76.4556C210.57 76.4156 210.59 76.3756 210.6 76.3356C210.61 76.2956 210.62 76.2356 210.63 76.1756V76.1656C210.71 73.3356 209.89 70.9956 208.5 69.3956C208.23 69.0856 207.94 68.8056 207.63 68.5556C207.32 68.3056 206.99 68.0856 206.64 67.8956H206.63C205.46 67.2656 204.14 67.0156 202.84 67.1356C202.33 67.1856 201.83 67.2856 201.35 67.4356C200.01 67.8556 198.77 68.6856 197.76 69.7756C197.46 70.0956 197.19 70.4356 196.94 70.7956C197.65 70.1456 198.41 69.5756 199.21 69.1256C199.39 69.0256 199.57 68.9256 199.75 68.8356C199.93 68.7456 200.11 68.6656 200.3 68.5856C201 68.2956 201.7 68.1056 202.39 68.0256C203.08 67.9456 203.78 67.9656 204.48 68.0856C204.98 68.1656 205.47 68.3056 205.91 68.5056C206 68.5456 206.08 68.5856 206.16 68.6256C206.24 68.6656 206.32 68.7156 206.4 68.7556C207.95 69.6556 209.03 71.5156 209.51 73.6056C209.7 74.4256 209.79 75.2756 209.78 76.1156V76.1356C209.79 76.3656 209.86 76.5556 209.99 76.6356C210.01 76.6456 210.04 76.6656 210.06 76.6756C210.1 76.6656 210.13 76.6756 210.16 76.6756Z" fill="#1849A9"/>
<path d="M207.38 67.2356C211.12 68.5456 213.82 72.2756 213.83 76.6756H211.98C212.11 72.8356 210.53 69.3656 207.38 67.2356Z" fill="#FAB60F"/>
<path d="M196.53 79.7556H195.78L195.59 80.4456H194.99L195.78 77.7956H196.54L197.35 80.4456H196.73L196.53 79.7556ZM195.87 79.3056H196.44C196.29 78.7856 196.19 78.4356 196.15 78.2356H196.14L196.02 78.7356L195.87 79.3056ZM199.28 79.7556H198.53L198.35 80.4456H197.75L198.54 77.7956H199.3L200.11 80.4456H199.49L199.28 79.7556ZM198.62 79.3056H199.19C199.04 78.7856 198.94 78.4356 198.9 78.2356H198.89L198.77 78.7356L198.62 79.3056ZM200.68 80.4356V77.8356C200.93 77.7956 201.19 77.7756 201.47 77.7756C202 77.7756 202.38 77.8956 202.61 78.1256C202.84 78.3656 202.96 78.6656 202.96 79.0556C202.96 79.5056 202.83 79.8556 202.57 80.1056C202.31 80.3556 201.9 80.4756 201.35 80.4756C201.09 80.4756 200.87 80.4656 200.68 80.4356ZM201.25 78.2656V79.9856C201.28 79.9956 201.35 79.9956 201.46 79.9956C201.74 79.9956 201.97 79.9156 202.12 79.7556C202.28 79.5956 202.35 79.3656 202.35 79.0756C202.35 78.8056 202.28 78.5956 202.14 78.4556C202 78.3156 201.79 78.2456 201.52 78.2456C201.41 78.2456 201.32 78.2556 201.25 78.2656ZM203.57 77.8056H204.14V78.8256H205.12V77.8056H205.69V80.4556H205.12V79.3556H204.14V80.4556H203.57V77.8056ZM207.78 79.7556H207.03L206.84 80.4456H206.24L207.03 77.7956H207.79L208.6 80.4456H207.98L207.78 79.7556ZM207.12 79.3056H207.69C207.54 78.7856 207.44 78.4356 207.4 78.2356H207.39L207.27 78.7356L207.12 79.3056ZM210.53 79.7556H209.78L209.6 80.4456H209L209.79 77.7956H210.54L211.35 80.4456H210.73L210.53 79.7556ZM209.87 79.3056H210.44C210.29 78.7856 210.19 78.4356 210.15 78.2356H210.14L210.02 78.7356L209.87 79.3056ZM211.92 80.4456V77.8356C212.13 77.7956 212.39 77.7756 212.69 77.7756C213.07 77.7756 213.34 77.8456 213.5 77.9756C213.66 78.1056 213.75 78.2956 213.75 78.5456C213.75 78.6956 213.71 78.8256 213.63 78.9456C213.55 79.0656 213.44 79.1456 213.31 79.1956V79.2156C213.47 79.2756 213.58 79.4356 213.65 79.7056C213.78 80.1756 213.85 80.4256 213.86 80.4556H213.28C213.23 80.3556 213.17 80.1556 213.1 79.8356C213.06 79.6756 213.02 79.5656 212.96 79.5056C212.9 79.4456 212.81 79.4156 212.67 79.4156H212.49V80.4556H211.92V80.4456ZM212.49 78.2456V78.9756H212.73C212.87 78.9756 212.99 78.9456 213.07 78.8756C213.15 78.8056 213.19 78.7156 213.19 78.5956C213.19 78.4756 213.15 78.3856 213.08 78.3256C213.01 78.2656 212.9 78.2256 212.76 78.2256C212.63 78.2256 212.54 78.2356 212.49 78.2456Z" fill="#1849A9"/>
</g>
<path d="M267.22 79.7956C268.55 80.4756 268.77 80.9356 268.43 82.3956C265.98 92.4856 262.61 102.266 258.22 111.706C257.85 112.516 257.66 113.346 257.66 114.246C257.69 123.006 257.69 131.796 257.66 140.556C257.66 145.876 254.35 150.156 249.33 151.486C249.02 151.576 248.71 151.576 248.43 151.636C248.06 151.856 247.59 151.576 247.22 151.856C221.06 151.856 194.91 151.856 168.75 151.856C164.35 151.176 161.51 148.606 159.93 144.556C159.62 143.746 159.5 143.356 159.47 142.106C159.43 140.856 159.47 141.646 159.47 141.396C159.72 139.726 159.53 138.026 159.59 136.346C159.62 135.076 159.59 133.806 159.59 132.536C159.74 131.116 159.93 130.896 161.39 130.646C162.81 130.926 163.4 131.606 163.49 133.246C163.58 134.706 163.52 136.186 163.52 137.646C163.52 138.756 163.52 139.876 163.52 141.016C163.58 144.826 166.49 147.856 170.33 148.016C170.64 148.016 170.95 148.016 171.26 148.016C196.15 148.016 221 148.016 245.89 148.016C247.81 148.016 249.57 147.616 251.09 146.376C253.04 144.796 253.85 142.726 253.85 140.246C253.85 134.306 253.85 128.326 253.85 122.386C253.85 121.896 253.82 121.396 253.91 120.836C251.68 124.546 249.36 128.136 246.23 131.146C245.02 132.326 243.66 133.246 242.05 133.806C241.37 134.056 240.84 134.396 240.38 134.986C239.7 135.856 238.83 136.096 237.93 135.756C236.94 135.386 236.63 134.576 236.72 133.616C236.78 132.966 236.66 132.406 236.32 131.856C235.08 129.816 234.65 127.556 234.56 125.206C234.22 117.066 235.86 109.206 237.9 101.406C239.94 93.5156 242.7 85.8956 245.92 78.4056C247.99 73.5756 250.38 68.8756 253.13 64.3856C253.63 63.5856 253.84 62.8056 253.84 61.8756C253.81 56.1456 253.78 50.4256 253.84 44.6956C253.9 40.0556 250.47 36.7356 245.88 36.7756C233.81 36.8656 221.74 36.8056 209.67 36.8056C202.36 36.8056 196.7 42.4656 196.7 49.7456C196.7 52.6856 196.73 55.6256 196.7 58.5656C196.61 64.0756 193.23 68.3456 187.94 69.7356C187.2 69.9256 186.42 69.9856 185.65 69.9856C182.74 69.9856 179.83 69.9256 176.95 69.9856C171.81 70.0756 167.76 72.1256 165.1 76.6356C164.05 78.4356 163.52 80.3856 163.55 82.5156C163.55 96.1956 163.55 109.906 163.55 123.596C163.55 124.216 163.58 124.836 163.49 125.456C163.3 126.636 162.72 127.466 161.48 127.686C160.06 127.436 159.75 127.096 159.62 125.766C159.62 110.446 159.62 95.1256 159.62 79.7956C159.62 79.3256 159.74 78.8656 159.5 78.4356C159.5 77.8156 159.5 77.1956 159.5 76.5756C160.06 75.6156 159.93 74.5356 160.15 73.4756C161.2 68.1856 163.49 63.5056 167.24 59.6656C173.52 53.2556 179.87 46.8556 186.34 40.5956C191.48 35.6156 197.82 33.0456 204.97 32.9856C218.87 32.8956 232.73 32.9256 246.63 32.9556C252.76 32.9856 257.56 37.7556 257.65 43.9156C257.71 48.0056 257.65 52.1156 257.65 56.2056C257.65 56.5756 257.65 56.9456 257.84 57.3556C258.09 56.7356 258.3 56.0856 258.55 55.4656C259.54 52.9256 261.95 51.7156 264.56 52.5556C266.2 53.0856 267.84 53.6656 269.45 54.2856C271.9 55.2156 273.04 57.5956 272.33 60.1056C272.05 61.0356 271.34 62.0256 271.53 62.8256C271.71 63.6656 273.08 63.7256 273.85 64.2756C277.35 66.6256 278.9 70.7756 278.03 75.4156C277.01 80.8656 274.66 85.8156 272.46 90.8356C270.17 96.0356 267.57 101.076 265.74 106.436C265.28 107.766 264.84 109.126 265.06 110.616C265.18 111.546 264.6 112.256 263.61 112.376C262.62 112.496 261.94 112.066 261.69 111.106C261.29 109.586 261.63 108.106 262.06 106.646C263.33 102.286 265.31 98.2256 267.17 94.1456C269.68 88.5456 272.4 83.0656 274.1 77.1556C274.72 74.9856 275.09 72.7556 274.44 70.5356C273.88 68.6456 272.65 67.3756 270.76 66.6056C271.01 69.4856 270.42 72.1456 270.02 74.8656C269.87 76.0156 269.09 76.4756 267.98 76.4456C266.8 76.3556 266.15 75.4856 266.31 74.0956C266.49 72.3656 266.87 70.6556 266.99 68.9256C267.11 67.1656 266.59 66.2656 264.89 65.6756C263.84 65.3056 262.82 64.8756 261.73 64.5256C261.48 64.4356 261.24 64.3356 260.96 64.2456C259.32 63.6856 258.36 63.9656 257.4 65.4556C254.68 69.6356 252.42 74.0556 250.37 78.6056C247.46 85.1056 245.08 91.7956 243 98.5656C242.66 99.6856 242.44 100.826 242.07 101.906C241.85 102.556 242.1 102.926 242.75 103.116C244.02 103.486 245.2 104.046 246.46 104.416C249.22 105.406 252.03 106.276 254.76 107.356C255.66 107.726 256.06 107.416 256.43 106.586C259.71 98.8456 262.44 90.9556 264.45 82.8156C264.64 82.0756 264.76 81.2956 265.19 80.6156C265.61 79.8856 266.2 79.2956 267.22 79.7956Z" fill="#344054"/>
<path d="M197.64 37.9456C195.91 39.8056 194.54 41.8756 193.74 44.2956C193.21 45.9056 192.87 47.5756 192.87 49.2756C192.87 52.2756 192.87 55.3156 192.87 58.3156C192.84 62.9856 189.68 66.1456 185.01 66.2056C182.78 66.2356 180.52 66.2656 178.29 66.2056C173.09 66.0156 168.42 67.2856 164.42 71.1856C164.76 69.6056 165.41 68.3956 166.03 67.2256C167.14 65.1256 168.54 63.2356 170.21 61.5656C176.18 55.5656 182.19 49.5856 188.19 43.6156C190.67 41.1656 193.55 39.3156 196.8 38.1056C197.05 37.9756 197.29 37.7556 197.64 37.9456Z" fill="#EAEAEA"/>
<path d="M261.65 64.2856C260.85 64.5056 260.75 65.3056 260.51 65.8956C256.55 75.5256 252.83 85.2756 249.49 95.1456C248.41 98.3056 247.32 101.496 246.3 104.646C244.88 104.186 243.45 103.656 242.03 103.226C241.23 102.976 241.57 102.486 241.69 102.046C243.18 96.5356 244.94 91.1156 247.01 85.7956C249.73 78.7956 252.83 71.9856 256.85 65.6456C258.24 63.4856 259.2 63.2056 261.65 64.2856Z" fill="#C53D4F"/>
<path d="M245.37 108.176C248.22 109.136 251.07 110.126 253.91 111.086C254.5 111.276 254.47 111.556 254.22 112.016C251.71 117.126 249.02 122.106 245.37 126.506C244.23 127.866 243.02 129.196 241.38 129.976C240.7 130.316 239.96 130.566 239.52 129.606C239.24 128.806 239.27 128.026 239.46 127.226C240.85 121.126 242.65 115.096 244.54 109.116C244.68 108.706 244.75 108.176 245.37 108.176Z" fill="#D94A54"/>
<path d="M245.37 108.176C244.41 109.696 244.16 111.456 243.64 113.126C242.25 117.586 241.01 122.106 239.96 126.656C239.74 127.616 239.53 128.606 239.56 129.596C238.69 128.416 238.54 127.026 238.45 125.636C238.02 119.356 239.1 113.256 240.46 107.156C240.58 106.626 240.71 106.416 241.3 106.626C242.61 107.186 244 107.686 245.37 108.176Z" fill="#C53D4F"/>
<path d="M264.65 56.3656C265.83 56.7356 266.97 57.1056 268.15 57.5456C268.92 57.8256 269.2 58.4156 268.95 59.2156C268.64 60.2056 268.24 61.1656 267.93 62.1556C267.78 62.6856 267.59 62.7156 267.13 62.4956C265.77 61.9356 264.41 61.4756 263.01 60.9756C262.95 60.8856 262.82 60.7856 262.82 60.6956C263.04 59.0856 263.44 57.5756 264.65 56.3656Z" fill="#F3DC45"/>
<path d="M264.65 56.3656C263.97 57.8556 263.19 59.3056 263.01 60.9756C260.53 60.1756 260.53 60.1756 261.4 57.7256C261.43 57.6656 261.46 57.5756 261.49 57.5056C262.17 55.5256 262.54 55.4056 264.65 56.3656Z" fill="#E8AF4C"/>
<path d="M208.75 124.186C203.58 124.186 198.38 124.186 193.21 124.186C192.9 124.186 192.59 124.216 192.28 124.186C191.32 124.066 190.58 123.286 190.67 122.386C190.76 121.426 191.32 120.806 192.31 120.746C193.05 120.686 193.77 120.716 194.51 120.716C204.38 120.716 214.23 120.716 224.1 120.716C224.41 120.716 224.72 120.716 225.03 120.716C226.08 120.776 226.82 121.486 226.82 122.446C226.82 123.406 226.08 124.116 225.03 124.176C224.75 124.206 224.5 124.176 224.22 124.176C219.02 124.186 213.89 124.186 208.75 124.186Z" fill="#344054"/>
<path d="M204.97 87.5956C200.95 87.5956 196.92 87.5956 192.9 87.5956C191.44 87.5956 190.64 86.9456 190.64 85.8656C190.64 84.7856 191.51 84.1356 192.93 84.1356C200.98 84.1356 209.03 84.1356 217.07 84.1356C218.56 84.1356 219.33 84.7556 219.36 85.8356C219.39 86.9156 218.62 87.5956 217.26 87.5956C213.17 87.5956 209.06 87.5956 204.97 87.5956Z" fill="#344054"/>
<path d="M204.85 136.376C200.86 136.376 196.89 136.376 192.9 136.376C192.13 136.376 191.41 136.316 190.95 135.606C190.3 134.616 190.76 133.316 191.91 133.006C192.34 132.886 192.84 132.886 193.3 132.886C201.1 132.886 208.93 132.886 216.73 132.886C216.95 132.886 217.19 132.886 217.41 132.886C218.62 132.946 219.33 133.566 219.36 134.586C219.39 135.636 218.65 136.346 217.38 136.346C213.21 136.376 209.03 136.376 204.85 136.376Z" fill="#344054"/>
<path d="M205 111.986C200.91 111.986 196.8 111.986 192.71 111.986C191.44 111.986 190.67 111.306 190.67 110.286C190.67 109.266 191.48 108.586 192.71 108.526C192.99 108.526 193.24 108.526 193.52 108.526C197.54 108.526 201.57 108.526 205.59 108.526C209.3 108.526 213.02 108.526 216.73 108.526C217.07 108.526 217.44 108.526 217.78 108.556C218.8 108.676 219.42 109.396 219.42 110.316C219.39 111.246 218.74 111.926 217.69 111.986C216.48 112.016 215.31 112.016 214.1 112.016C211.04 111.986 208 111.986 205 111.986Z" fill="#344054"/>
<path d="M229.64 71.9356C231.62 67.8856 233.54 64.0156 235.43 60.1756C235.58 59.8356 235.77 59.4656 236.02 59.1856C236.64 58.4756 237.38 58.3156 238.19 58.7856C238.93 59.2156 239.24 59.8956 238.96 60.7656C238.87 61.1056 238.71 61.4156 238.56 61.7256C236.33 66.2756 234.07 70.8556 231.81 75.4056C230.76 77.5456 229.46 77.6656 228.03 75.7156C226.85 74.0756 225.68 72.4656 224.5 70.8256C223.73 69.7456 223.82 68.7256 224.72 68.1056C225.59 67.5156 226.51 67.7656 227.29 68.7856C228.06 69.7656 228.78 70.7856 229.64 71.9356Z" fill="#FD853A"/>
<path d="M229.64 99.9456C231.62 95.9256 233.51 92.0556 235.43 88.1856C235.61 87.8156 235.8 87.4156 236.08 87.1056C236.67 86.4556 237.44 86.3656 238.18 86.7956C238.92 87.2256 239.23 87.9056 238.99 88.7756C238.9 89.0556 238.77 89.3656 238.62 89.6156C236.33 94.2556 234.07 98.8756 231.78 103.516C230.79 105.496 229.43 105.616 228.16 103.856C226.95 102.216 225.74 100.546 224.57 98.8756C223.8 97.7556 223.89 96.7656 224.79 96.1556C225.63 95.5656 226.59 95.8156 227.36 96.8356C228.09 97.7756 228.81 98.7956 229.64 99.9456Z" fill="#FD853A"/>
<path d="M200.33 99.8256C197.82 99.8256 195.32 99.8256 192.81 99.8256C191.48 99.8256 190.64 99.1456 190.64 98.0956C190.64 97.0456 191.44 96.3656 192.78 96.3656C197.82 96.3656 202.9 96.3656 207.95 96.3656C209.31 96.3656 210.09 96.9856 210.09 98.0956C210.09 99.1756 209.32 99.8256 207.95 99.8556C205.44 99.8256 202.87 99.8256 200.33 99.8256Z" fill="#344054"/>
<path d="M179.81 96.3256C181.23 96.3256 182.66 96.2956 184.08 96.3256C185.29 96.3556 185.97 97.0056 186 98.0256C186 99.0456 185.29 99.7856 184.14 99.7856C181.26 99.8156 178.35 99.8156 175.47 99.7856C174.29 99.7856 173.55 99.0756 173.55 98.0556C173.52 97.0056 174.29 96.3256 175.53 96.2956C176.96 96.3256 178.38 96.3256 179.81 96.3256Z" fill="#344054"/>
<path d="M179.74 111.986C178.32 111.986 176.89 112.016 175.47 111.986C174.26 111.956 173.55 111.336 173.52 110.316C173.49 109.296 174.2 108.556 175.38 108.516C178.32 108.486 181.23 108.486 184.17 108.516C185.35 108.546 186.03 109.286 186 110.346C185.97 111.336 185.32 111.956 184.14 111.986C182.69 111.986 181.23 111.986 179.74 111.986Z" fill="#344054"/>
<path d="M179.74 87.5956C178.32 87.5956 176.89 87.6256 175.47 87.5956C174.26 87.5656 173.55 86.9456 173.55 85.9256C173.52 84.9056 174.23 84.1656 175.41 84.1656C178.35 84.1356 181.26 84.1356 184.2 84.1656C185.38 84.1956 186.06 84.9356 186 85.9956C185.97 87.0156 185.32 87.6056 184.14 87.6356C182.69 87.5956 181.2 87.5656 179.74 87.5956Z" fill="#344054"/>
<path d="M179.74 120.716C181.16 120.716 182.59 120.716 184.01 120.716C185.25 120.746 185.99 121.426 185.96 122.476C185.93 123.496 185.22 124.146 184.04 124.176C181.19 124.206 178.34 124.206 175.47 124.176C174.23 124.176 173.49 123.436 173.52 122.376C173.55 121.356 174.26 120.706 175.47 120.706C176.9 120.686 178.32 120.716 179.74 120.716Z" fill="#344054"/>
<path d="M179.71 136.376C178.29 136.376 176.86 136.406 175.44 136.376C174.23 136.346 173.55 135.696 173.52 134.676C173.52 133.656 174.2 132.946 175.41 132.946C178.29 132.916 181.2 132.916 184.08 132.946C185.29 132.946 185.97 133.626 185.97 134.676C185.97 135.756 185.29 136.376 183.99 136.406C182.59 136.406 181.14 136.376 179.71 136.376Z" fill="#344054"/>
<path d="M259.1 151.896H83.9297C82.8297 151.896 81.9297 150.996 81.9297 149.896C81.9297 148.796 82.8297 147.896 83.9297 147.896H259.1C260.2 147.896 261.1 148.796 261.1 149.896C261.1 150.996 260.2 151.896 259.1 151.896Z" fill="#344054"/>
</svg>
