<svg width="380" height="315" viewBox="0 0 380 315" fill="none" xmlns="http://www.w3.org/2000/svg">
<rect width="32.5413" height="219.9" rx="16.2707" transform="matrix(0.5118 -0.859104 -0.859104 -0.5118 266.438 214.58)" fill="#EFF1F5"/>
<rect width="32.5413" height="36.4095" rx="16.2707" transform="matrix(0.5118 -0.859104 -0.859104 -0.5118 302.887 236.294)" fill="#EFF1F5"/>
<rect width="32.5413" height="219.9" rx="16.2707" transform="matrix(0.5118 -0.859104 -0.859104 -0.5118 353.527 225.068)" fill="#EFF1F5"/>
<rect width="32.5413" height="219.9" rx="16.2707" transform="matrix(0.5118 -0.859104 -0.859104 -0.5118 273.996 260.476)" fill="#EFF1F5"/>
<rect width="32.5413" height="79.7122" rx="16.2707" transform="matrix(0.5118 -0.859104 -0.859104 -0.5118 79.3696 142.906)" fill="#EFF1F5"/>
<rect width="32.5413" height="219.9" rx="16.2707" transform="matrix(0.5118 -0.859104 -0.859104 -0.5118 206.318 262.362)" fill="#EFF1F5"/>
<mask id="mask0_11433_4276" style="mask-type:alpha" maskUnits="userSpaceOnUse" x="12" y="11" width="356" height="298">
<rect x="12" y="11" width="356" height="298" fill="#D9D9D9"/>
</mask>
<g mask="url(#mask0_11433_4276)">
<path d="M244.423 84.0828C245.15 81.3691 246.021 80.6619 248.79 80.6561C254.184 80.6446 259.577 80.6159 264.971 80.6619C274.916 80.7424 282.439 88.188 282.45 98.1174C282.491 130.09 282.496 162.063 282.45 194.037C282.439 203.943 274.882 211.394 264.908 211.429C250.884 211.481 236.86 211.469 222.837 211.406C221.019 211.4 220.471 211.642 221.071 213.608C223.108 220.266 227.221 225.038 233.624 227.74C237.12 229.218 240.72 230.471 244.302 231.725C246.661 232.553 249.148 231.978 251.57 232.081C257.581 232.334 262.341 234.847 265.75 239.797C267.498 242.332 268.415 245.178 268.611 248.237C268.813 251.359 267.492 252.728 264.325 252.733C250.947 252.745 237.57 252.739 224.192 252.739C217.431 252.739 210.67 252.745 203.909 252.733C201.14 252.728 200.269 252.02 199.531 249.312C199.162 247.3 200.033 245.966 202.098 245.414C203.223 245.115 204.377 245.184 205.525 245.184C222.242 245.178 238.96 245.184 255.678 245.178C256.18 245.178 256.687 245.219 257.183 245.167C257.928 245.092 258.966 245.506 259.318 244.644C259.652 243.822 258.683 243.316 258.233 242.7C256.497 240.786 254.276 239.912 251.749 239.705C250.676 239.613 249.592 239.659 248.513 239.659C210.324 239.659 172.135 239.659 133.947 239.659C132.002 239.659 130.064 239.665 128.126 239.601C124.694 239.532 121.792 240.654 119.606 243.373C119.294 243.758 118.873 244.178 119.098 244.701C119.329 245.247 119.94 245.144 120.419 245.173C121.065 245.213 121.711 245.184 122.357 245.184C143.748 245.184 165.138 245.184 186.528 245.19C187.745 245.19 188.974 245.098 190.168 245.42C192.245 245.972 193.11 247.3 192.741 249.312C191.997 252.026 191.132 252.733 188.363 252.733C163.621 252.739 138.879 252.739 114.137 252.733C110.901 252.733 109.631 251.313 109.845 248.024C110.404 239.504 117.667 231.995 126.24 232.254C133.329 232.466 139.461 230.017 145.611 227.355C151.847 224.653 155.66 219.708 157.5 213.188C157.933 211.659 157.517 211.406 156.064 211.412C142.184 211.458 128.305 211.446 114.419 211.435C103.32 211.429 96 204.179 96 193.174C96.0058 161.776 96.0058 130.378 96.0115 98.9798C96.0115 87.9293 103.297 80.6791 114.362 80.6504C116.219 80.6446 118.706 81.2771 119.767 80.3341C121.002 79.236 120.148 76.7005 120.159 74.7974C120.205 66.771 120.171 58.739 120.182 50.7127C120.188 47.3607 121.33 46.2453 124.745 46.2453C160.852 46.2395 196.958 46.2395 233.059 46.2453C236.439 46.2453 237.57 47.3837 237.576 50.7644C237.604 61.8725 237.622 72.9863 237.645 84.0943C238.4 85.1062 238.181 86.2906 238.187 87.4175C238.199 100.239 238.193 113.066 238.199 125.888C238.199 128.889 238.204 128.895 241.002 129.837C255.568 134.719 263.708 144.941 265.64 159.965C266.621 167.583 264.706 174.776 260.662 181.336C259.162 183.774 257.61 184.165 254.784 183.061C252.453 180.801 252.395 179.64 254.426 176.035C263.31 159.315 253.128 139.123 234.362 136.461C228.686 135.656 223.177 136.593 218.025 139.238C207.203 145.286 202.173 155.664 203.846 167.255C205.553 179.048 214.703 187.977 226.413 189.857C232.759 190.874 238.683 189.655 244.25 186.528C247.088 184.935 248.6 185.171 250.659 187.517C251.576 190.443 251.184 191.788 248.611 193.306C239.866 198.452 230.595 199.694 220.794 196.888C214.391 195.054 209.003 191.633 204.648 186.643C203.298 185.096 201.792 184.527 199.762 184.533C175.747 184.584 151.726 184.567 127.711 184.567C126.845 184.567 125.986 184.573 125.12 184.561C120.915 184.504 119.531 183.17 119.519 179.002C119.49 167.319 119.49 155.636 119.519 143.953C119.531 140.417 120.482 139.209 123.511 138.611C126.597 139.065 127.682 140.325 127.693 143.751C127.739 153.353 127.705 162.96 127.711 172.562C127.711 176.38 127.716 176.386 131.483 176.386C152.764 176.386 174.045 176.386 195.331 176.386C195.689 176.386 196.052 176.363 196.41 176.391C197.823 176.501 197.945 175.885 197.512 174.712C196.11 170.912 195.458 166.979 195.476 162.914C195.539 146.764 207.203 132.425 223.062 129.067C224.4 128.785 225.75 128.567 227.1 128.366C229.944 127.94 229.944 127.946 230.03 125.111C229.88 121.167 229.967 117.229 229.967 113.285C229.955 94.5757 229.961 75.8725 229.961 57.1636C229.961 53.8461 229.944 53.8289 226.592 53.8289C204.659 53.8231 182.727 53.8289 160.8 53.8289C159.935 53.8289 159.075 53.8519 158.215 53.7714C149.309 53.8921 140.402 53.7886 131.495 53.8231C130.78 53.8231 130.058 53.8174 129.343 53.8691C128.409 53.9324 127.907 54.3866 127.837 55.341C127.774 56.1977 127.78 57.0601 127.78 57.9168C127.78 80.4721 127.78 103.027 127.78 125.583C127.78 126.583 127.814 127.589 127.728 128.59C127.509 131.2 126.459 132.316 123.759 132.85C120.886 132.459 119.669 131.252 119.548 128.394C119.404 124.956 119.502 121.512 119.502 118.074C119.49 109.11 119.507 100.153 119.49 91.1892C119.484 88.4065 119.311 88.2627 116.577 88.2225C116.219 88.2167 115.856 88.2512 115.498 88.2167C107.97 87.498 103.401 92.8968 103.499 99.986C103.765 119.408 103.592 138.841 103.592 158.269C103.592 169.739 103.586 181.209 103.597 192.68C103.603 199.953 107.509 203.88 114.771 203.885C164.469 203.897 214.166 203.897 263.864 203.885C271.023 203.885 274.859 199.97 274.888 192.766C274.899 189.54 274.824 186.315 274.928 183.089C274.83 173.994 274.893 164.892 274.888 155.797C274.876 137.024 274.755 118.258 274.957 99.4858C275.026 93.1843 270.78 87.797 263.581 88.1765C258.92 88.4237 254.241 88.2282 249.569 88.2167C248.565 88.2167 247.55 88.2225 246.586 87.866C244.781 87.1991 244.083 85.9687 244.423 84.0828Z" fill="#033C59"/>
<path d="M275.505 183.089C275.522 186.959 275.632 190.834 275.528 194.698C275.395 199.953 270.953 204.317 265.686 204.541C264.971 204.57 264.25 204.558 263.529 204.558C213.976 204.558 164.423 204.478 114.869 204.65C107.722 204.673 102.772 199.723 102.824 192.685C103.038 161.506 102.917 130.32 102.917 99.1351C102.917 91.7009 107.076 87.521 114.506 87.5613C116.34 87.5728 118.786 86.7276 119.848 87.981C120.748 89.0447 120.171 91.3905 120.177 93.1728C120.188 104.787 120.177 116.401 120.188 128.015C120.188 130.775 120.909 131.643 123.644 132.35C124.67 134.604 124.67 136.852 123.644 139.106C120.915 139.801 120.194 140.675 120.188 143.435C120.177 155.475 120.177 167.514 120.188 179.548C120.188 182.767 121.359 183.906 124.636 183.912C149.58 183.917 174.529 183.952 199.473 183.86C201.96 183.848 203.615 184.504 205.328 186.407C216.272 198.573 234.08 201.195 248.144 192.91C250.734 191.38 251.132 190.317 250.18 187.413C251.369 185.458 252.943 183.889 254.905 182.704C257.829 183.653 258.897 183.256 260.42 180.675C271.922 161.19 261.96 136.449 239.993 130.211C237.956 129.63 237.529 128.82 237.547 126.888C237.651 112.629 237.633 98.3646 237.656 84.1058C238.77 84.1231 239.883 84.1403 240.996 84.1633C241.729 84.8475 241.804 85.8192 242.092 86.6931C243.517 90.9938 247.071 93.6615 251.611 93.788C253.624 93.8398 255.637 93.7823 257.651 93.8053C264.637 93.8858 269.286 98.4911 269.298 105.46C269.327 127.095 269.402 148.736 269.24 170.372C269.2 175.506 270.307 179.709 274.922 182.486C275.153 182.612 275.309 182.877 275.505 183.089Z" fill="#FFF8E0"/>
<path d="M275.505 183.09C271.496 181.991 268.663 177.961 268.663 173.281C268.657 150.656 268.64 128.026 268.68 105.402C268.686 102.039 267.538 99.3076 265.087 97.0193C263.252 95.3117 261.083 94.5412 258.654 94.4435C256.433 94.3573 254.201 94.4263 251.974 94.4205C245.761 94.4033 241.435 90.3556 240.991 84.1461C242.139 84.1289 243.281 84.1059 244.429 84.0886C245.138 86.8081 246.021 87.5326 248.773 87.5383C254.236 87.5556 259.704 87.5038 265.167 87.5556C271.069 87.6131 275.539 92.0402 275.545 97.9449C275.58 126.112 275.557 154.279 275.557 182.451C275.557 182.658 275.522 182.877 275.505 183.09Z" fill="#F1E5C4"/>
<path d="M192.753 249.318C192.032 246.535 191.172 245.863 188.213 245.863C165.461 245.857 142.703 245.863 119.952 245.845C119.202 245.845 118.14 246.259 117.748 245.587C117.275 244.764 118.186 244 118.677 243.356C121.001 240.303 124.065 238.733 127.982 239.061C131.477 241.947 135.631 241.757 139.825 241.752C178.037 241.711 216.249 241.729 254.46 241.723C255.972 241.723 257.489 241.642 258.885 242.384C259.047 242.522 259.248 242.626 259.37 242.792C259.987 243.643 261.164 244.557 260.719 245.506C260.321 246.357 258.902 245.834 257.951 245.84C239.993 245.868 222.04 245.857 204.082 245.863C201.111 245.863 200.252 246.535 199.542 249.318C197.275 249.318 195.014 249.318 192.753 249.318Z" fill="#CFD7D9"/>
<path d="M123.638 139.1C123.638 136.846 123.638 134.598 123.638 132.344C126.436 131.597 127.082 130.757 127.082 127.779C127.088 103.694 127.111 79.6154 127.041 55.5364C127.036 53.5931 127.503 53.0469 129.493 53.0757C139.052 53.2079 148.616 53.1734 158.181 53.1964C159.317 55.2892 158.816 57.474 158.556 59.6416C158.031 60.6708 156.993 60.5328 156.098 60.642C151.195 61.24 146.834 63.0108 142.957 66.127C133.624 73.6417 131.812 88.6651 139.254 98.1173C145.08 105.517 152.706 108.547 162.063 107.248C162.704 107.161 163.344 107.046 163.996 107.144C165.225 107.886 165.651 109.266 166.459 110.335C169.038 113.768 172.314 116.424 175.729 118.954C176.623 120.655 177.991 121.541 179.964 121.443C180.517 121.414 181.071 121.552 181.596 121.788C186.142 123.783 190.93 124.674 195.851 124.709C206.338 124.784 216.831 124.72 227.319 124.743C228.444 124.743 229.644 124.525 230.613 125.382C230.636 126.025 230.607 126.675 230.694 127.308C230.861 128.544 230.319 128.82 229.13 128.889C205.23 130.297 190.174 153.353 198.521 175.701C198.643 176.029 198.752 176.362 198.873 176.696C198.268 177.259 197.599 177.001 197.004 177.001C174.431 177.018 151.858 176.989 129.286 177.058C127.486 177.064 127.036 176.61 127.047 174.822C127.14 164.363 127.099 153.899 127.088 143.435C127.076 140.692 126.361 139.824 123.638 139.1Z" fill="white"/>
<path d="M158.175 59.9349C158.175 57.6868 158.175 55.4387 158.175 53.1907C168.743 53.1677 179.312 53.1332 189.88 53.1217C202.825 53.1102 215.764 53.1217 228.709 53.1159C229.782 53.1159 230.728 52.863 230.722 54.6511C230.653 78.0861 230.67 101.521 230.665 124.956C230.665 125.1 230.624 125.238 230.607 125.382C218.539 125.387 206.476 125.531 194.414 125.318C189.799 125.238 185.155 124.513 181.054 122.012C182.046 121 183.338 121.299 184.521 121.299C195.597 121.271 206.673 121.288 217.748 121.282C218.683 121.282 219.623 121.334 220.546 121.138C221.971 120.839 222.9 120.017 222.911 118.505C222.923 116.976 221.994 116.165 220.564 115.872C219.641 115.682 218.7 115.74 217.766 115.74C205.9 115.74 194.028 115.803 182.161 115.688C179.231 115.659 176.733 115.958 175.383 118.931C170.52 116.205 166.713 112.462 164.221 107.437C164.561 106.581 165.397 106.454 166.119 106.184C175.966 102.487 181.994 93.6673 181.763 83.2836C181.527 72.5666 173.053 62.8096 162.467 60.9755C161.031 60.7283 159.438 60.9525 158.175 59.9349Z" fill="#F4F6FE"/>
<path d="M208.663 211.509C213.33 211.274 213.335 211.274 214.547 215.568C216.301 221.778 219.814 226.786 224.971 230.655C225.467 231.023 225.952 231.403 226.465 231.794C226.044 232.294 225.588 232.087 225.202 232.087C204.809 232.098 184.417 232.098 164.019 232.093C163.661 232.093 163.303 232.047 162.946 232.024C162.94 231.058 163.771 230.948 164.388 230.672C174.483 226.142 184.625 221.715 194.731 217.196C197.881 215.787 201.048 214.424 204.192 213.004C205.646 212.343 207.134 211.883 208.663 211.509Z" fill="#CFD7D9"/>
<path d="M254.893 182.687C253.526 184.464 251.957 186.033 250.169 187.396C248.415 185.608 246.627 185.769 244.544 186.976C227.428 196.917 205.767 186.321 203.108 166.755C201.579 155.492 207.774 143.654 217.725 138.841C218.273 139.64 218.008 140.526 217.875 141.342C217.385 144.407 217.339 147.46 217.852 150.53C217.991 151.358 218.175 152.232 217.708 153.048C216.606 153.79 215.343 153.497 214.143 153.577C211.686 153.732 210.693 154.589 210.63 156.992C210.52 161.218 210.515 165.45 210.636 169.676C210.699 171.843 211.691 172.752 213.872 172.907C215.378 173.016 216.889 172.947 218.4 172.953C220.085 172.959 220.921 173.718 220.927 175.425C220.933 176.857 220.892 178.294 220.967 179.726C221.094 182.175 221.994 183.17 224.388 183.227C228.559 183.331 232.73 183.331 236.895 183.227C239.329 183.164 240.206 182.187 240.368 179.772C240.448 178.576 240.16 177.317 240.875 176.207C240.933 176.167 240.996 176.092 241.054 176.098C245.652 176.403 250.255 176.23 254.859 176.184C253.722 178.352 252.511 180.525 254.893 182.687Z" fill="#EE5350"/>
<path d="M208.663 211.509C203.073 214.045 197.495 216.609 191.887 219.104C184.711 222.301 177.5 225.44 170.318 228.626C167.843 229.724 165.403 230.885 162.946 232.018C159.358 232.018 155.77 232.018 152.164 232.018C152.014 231.443 152.585 231.362 152.874 231.155C159.196 226.567 163.159 220.473 164.567 212.797C164.774 211.67 165.207 211.423 166.228 211.429C180.373 211.469 194.518 211.486 208.663 211.509Z" fill="#B7BDBE"/>
<path d="M217.725 152.864C216.439 148.19 216.641 143.516 217.731 138.847C233.809 129.849 255.262 140.434 257.904 158.614C258.804 164.829 258.06 170.699 254.882 176.184C250.29 177.306 245.692 177.397 241.1 176.167C240.131 174.109 240.575 173.195 242.704 172.993C244.204 172.85 245.715 172.999 247.221 172.907C249.661 172.758 250.659 171.843 250.705 169.469C250.792 165.324 250.803 161.172 250.699 157.027C250.636 154.641 249.644 153.738 247.204 153.606C245.698 153.526 244.192 153.6 242.687 153.549C241.204 153.497 240.466 152.761 240.414 151.283C240.362 149.783 240.437 148.276 240.356 146.781C240.223 144.355 239.318 143.36 236.924 143.303C232.764 143.194 228.599 143.211 224.44 143.297C222.064 143.343 221.146 144.338 220.996 146.77C220.904 148.27 221.054 149.777 220.91 151.272C220.702 153.388 219.785 153.83 217.725 152.864Z" fill="#FE7373"/>
<path d="M258.879 242.378C231.513 242.39 204.14 242.401 176.773 242.413C162.911 242.419 149.043 242.367 135.181 242.453C132.124 242.47 129.718 241.585 127.976 239.055C128.547 239.026 129.124 238.975 129.695 238.975C169.943 238.969 210.191 238.975 250.44 238.963C253.739 238.969 256.693 239.711 258.879 242.378Z" fill="#E8F0F1"/>
<path d="M158.175 59.9349C171.426 60.4523 179.012 69.1226 181.388 77.4939C184.948 90.0278 178.083 102.832 165.651 106.966C165.173 107.127 164.699 107.282 164.221 107.443C148.218 111.341 133.525 99.1868 133.993 83.1629C134.35 71.0314 144.388 60.7456 156.669 60.0326C157.171 60.0039 157.673 59.9694 158.175 59.9349Z" fill="#033C59"/>
<path d="M175.383 118.936C175.775 116.016 176.802 115.078 179.721 115.078C193.001 115.067 206.28 115.067 219.56 115.078C222.231 115.078 223.811 116.441 223.754 118.603C223.696 120.684 222.173 121.943 219.595 121.949C206.748 121.984 193.901 121.995 181.054 122.018C178.591 122.03 176.139 122.03 175.383 118.936Z" fill="#033C59"/>
<path d="M151.201 135.719C146.822 135.719 142.444 135.736 138.065 135.713C135.521 135.696 134.004 134.38 134.004 132.281C134.004 130.177 135.516 128.854 138.065 128.849C146.891 128.831 155.718 128.826 164.544 128.849C167.024 128.854 168.57 130.292 168.501 132.384C168.438 134.403 166.949 135.696 164.549 135.713C160.102 135.742 155.654 135.719 151.201 135.719Z" fill="#033C59"/>
<path d="M151.258 149.489C146.955 149.489 142.646 149.501 138.342 149.484C135.591 149.478 134.045 148.253 134.004 146.103C133.964 143.935 135.527 142.613 138.221 142.607C146.903 142.596 155.585 142.596 164.273 142.607C166.972 142.613 168.536 143.924 168.501 146.091C168.466 148.247 166.926 149.472 164.175 149.484C159.871 149.501 155.568 149.489 151.258 149.489Z" fill="#033C59"/>
<path d="M151.489 156.371C155.793 156.371 160.102 156.354 164.405 156.377C166.961 156.389 168.484 157.682 168.507 159.775C168.53 161.879 167.001 163.242 164.48 163.248C155.654 163.271 146.828 163.271 138.002 163.248C135.492 163.242 133.97 161.851 134.01 159.741C134.05 157.717 135.533 156.4 137.927 156.383C142.444 156.348 146.966 156.371 151.489 156.371Z" fill="#033C59"/>
<path d="M189.24 128.837C192.539 128.837 195.839 128.808 199.139 128.849C201.515 128.877 203.004 130.205 203.032 132.229C203.067 134.259 201.579 135.696 199.237 135.708C192.568 135.742 185.894 135.742 179.225 135.708C176.889 135.696 175.406 134.253 175.441 132.224C175.475 130.2 176.958 128.877 179.34 128.849C182.64 128.814 185.94 128.837 189.24 128.837Z" fill="#033C59"/>
<path d="M154.933 115.073C158.164 115.073 161.388 115.044 164.619 115.084C166.995 115.113 168.478 116.447 168.507 118.471C168.536 120.5 167.047 121.932 164.705 121.943C158.037 121.978 151.362 121.978 144.694 121.943C142.363 121.932 140.875 120.483 140.915 118.448C140.955 116.424 142.438 115.107 144.821 115.084C148.189 115.044 151.564 115.073 154.933 115.073Z" fill="#033C59"/>
<path d="M183.927 149.478C182.277 149.478 180.627 149.535 178.983 149.466C176.82 149.38 175.395 147.92 175.441 145.965C175.481 144.085 176.86 142.67 178.919 142.624C182.357 142.55 185.796 142.55 189.234 142.624C191.282 142.67 192.655 144.125 192.672 146.005C192.689 147.885 191.328 149.346 189.297 149.449C187.515 149.547 185.721 149.478 183.927 149.478Z" fill="#033C59"/>
<path d="M182.34 163.248C181.198 163.248 180.044 163.3 178.908 163.236C176.854 163.121 175.481 161.747 175.447 159.873C175.412 157.993 176.768 156.486 178.787 156.406C181.146 156.308 183.511 156.314 185.871 156.406C187.896 156.486 189.257 157.981 189.228 159.861C189.199 161.736 187.826 163.121 185.778 163.242C184.63 163.305 183.482 163.248 182.34 163.248Z" fill="#033C59"/>
<path d="M211.714 108.185C208.992 108.185 206.263 108.214 203.54 108.179C201.158 108.15 199.664 106.845 199.612 104.833C199.56 102.734 201.088 101.331 203.581 101.314C208.957 101.285 214.333 101.291 219.71 101.314C222.237 101.326 223.765 102.671 223.748 104.77C223.736 106.857 222.202 108.162 219.669 108.185C217.022 108.208 214.368 108.185 211.714 108.185Z" fill="#033C59"/>
<path d="M217.725 152.864C219.779 153.347 220.604 152.617 220.35 150.472C220.183 149.058 220.275 147.609 220.333 146.178C220.425 143.987 221.665 142.665 223.84 142.636C228.369 142.567 232.903 142.573 237.431 142.63C239.71 142.659 240.956 143.993 241.019 146.316C241.071 148.104 241.066 149.903 241.019 151.691C240.996 152.617 241.331 152.974 242.271 152.945C243.996 152.899 245.721 152.91 247.452 152.939C250.042 152.985 251.351 154.21 251.38 156.728C251.426 161.098 251.426 165.473 251.38 169.848C251.351 172.263 250.048 173.499 247.602 173.574C246.234 173.614 244.85 173.718 243.506 173.551C241.354 173.292 240.616 174.114 241.1 176.161C241.077 177.593 241.1 179.03 241.019 180.456C240.904 182.52 239.67 183.837 237.61 183.871C233.013 183.946 228.409 183.946 223.806 183.877C221.642 183.843 220.408 182.509 220.333 180.307C220.275 178.519 220.275 176.725 220.333 174.931C220.362 173.907 219.981 173.534 218.96 173.568C217.235 173.626 215.51 173.614 213.785 173.574C211.322 173.517 210.007 172.292 209.978 169.889C209.926 165.444 209.926 161 209.978 156.561C210.007 154.261 211.311 153.037 213.63 152.945C214.991 152.887 216.358 152.887 217.725 152.864Z" fill="#033C59"/>
<path d="M158.181 73.6705C149.164 74.0787 145.017 83.5999 149.828 90.1141C150.284 90.7293 150.376 91.1605 149.862 91.7872C148.559 93.3855 148.074 95.3289 147.693 97.3125C142.669 94.7827 139.698 86.4056 141.423 79.7477C143.407 72.0951 150.491 66.6733 158.175 66.9263C159.179 69.1686 159.196 71.4167 158.181 73.6705Z" fill="white"/>
<path d="M158.181 73.6704C158.175 71.4224 158.175 69.1743 158.169 66.9263C165.38 66.679 172.176 71.5029 174.524 78.5345C176.837 85.4512 174.449 93.3798 168.674 97.4734C168.213 95.2771 167.676 93.1613 166.228 91.4537C165.767 90.9075 166.194 90.5395 166.488 90.1485C171.374 83.6458 167.053 74.0097 158.181 73.6704Z" fill="#ACCCEF"/>
<path d="M161.233 100.912C160.235 101.446 159.133 101.303 158.083 101.274C156.935 101.239 155.227 101.711 154.864 100.411C154.426 98.8533 154.281 96.9445 155.648 95.5589C156.71 94.4837 158.002 93.9547 159.496 94.8114C159.802 96.9215 160.362 98.9626 161.233 100.912Z" fill="#EBB78D"/>
<path d="M158.175 87.4578C155.862 87.1244 154.662 85.917 154.72 83.9851C154.772 82.1338 155.92 81.0529 158.175 80.7252C159.185 82.9675 159.185 85.2155 158.175 87.4578Z" fill="#E9B58C"/>
<path d="M158.175 87.4578C158.175 85.2155 158.175 82.9675 158.175 80.7252C160.465 81.0759 161.74 82.3005 161.584 84.1979C161.411 86.2044 160.321 87.4176 158.175 87.4578Z" fill="#F5D8AD"/>
<path d="M161.233 100.912C159.785 99.7387 158.862 96.5133 159.496 94.8057C161.7 96.0936 162.225 97.9276 161.233 100.912Z" fill="#F5D7AC"/>
<path fill-rule="evenodd" clip-rule="evenodd" d="M244.407 163.242L244.417 163.242C244.424 163.132 244.428 163.02 244.432 162.907L244.432 162.906C244.441 162.663 244.449 162.418 244.492 162.179C244.861 160.183 243.996 159.568 242.069 159.781C240.774 159.923 239.46 159.868 238.153 159.814L237.991 159.807L237.777 159.798C235.499 159.712 234.235 158.447 234.143 156.176C234.107 155.284 234.116 154.389 234.124 153.496V153.495V153.495V153.494V153.494C234.128 153.104 234.132 152.713 234.132 152.324C234.132 150.887 234.132 150.16 233.768 149.802C233.396 149.436 232.641 149.457 231.115 149.501C231.025 149.504 230.938 149.519 230.85 149.534C230.796 149.543 230.742 149.552 230.688 149.558V149.559L230.676 149.547C228.934 149.46 228.069 149.417 227.639 149.829C227.215 150.235 227.215 151.084 227.215 152.772V154.273C227.215 159.022 226.482 159.775 221.804 159.81C221.474 159.814 221.142 159.833 220.809 159.852L220.604 159.863C220.504 159.869 220.404 159.874 220.304 159.879L220.304 159.886L220.304 159.884C220.082 159.877 219.854 159.852 219.626 159.827C219.128 159.771 218.629 159.716 218.181 159.85C216.324 160.407 216.576 161.589 216.83 162.78C216.964 163.41 217.099 164.043 216.924 164.588C216.658 165.421 216.387 166.807 218.25 166.721C219.756 166.652 221.264 166.666 222.773 166.68C223.398 166.686 224.023 166.692 224.648 166.692L224.64 166.679L224.648 166.686C225.836 167.215 226.69 168.078 227.226 169.256C227.226 169.256 227.227 169.256 227.227 169.256C227.227 169.895 227.225 170.534 227.224 171.172C227.222 171.809 227.221 172.445 227.221 173.08C227.221 175.065 227.221 176.05 227.713 176.538C228.197 177.018 229.158 177.018 231.063 177.018C234.212 177.018 234.218 177.018 234.086 173.798C234.086 173.741 234.076 173.688 234.066 173.635C234.063 173.618 234.059 173.602 234.057 173.585C234.049 173.583 234.042 173.581 234.035 173.578C234.036 173.577 234.038 173.575 234.039 173.574C234.047 173.271 234.055 172.967 234.063 172.663L234.063 172.655L234.063 172.653L234.064 172.65C234.08 172.03 234.097 171.41 234.109 170.791C234.166 167.951 235.349 166.738 238.152 166.686C238.956 166.67 239.759 166.674 240.563 166.677C240.907 166.679 241.252 166.68 241.596 166.68C244.55 166.68 244.55 166.68 244.458 163.656C244.454 163.561 244.44 163.469 244.426 163.376C244.419 163.332 244.413 163.287 244.407 163.242Z" fill="white"/>
<path d="M230.852 90.2216C220.586 90.2216 210.32 90.1973 200.053 90.2362C197.367 90.2459 195.12 89.5366 193.77 87.0635C192.414 84.5857 193.024 82.3216 194.52 80.0915C204.309 65.5011 214.059 50.8817 223.842 36.2865C227.669 30.5777 234.196 30.5679 238.023 36.2768C247.807 50.872 257.552 65.4914 267.345 80.0818C268.842 82.3118 269.461 84.5759 268.11 87.0587C266.765 89.5366 264.522 90.2556 261.832 90.2459C251.507 90.1973 241.177 90.2216 230.852 90.2216Z" fill="#EE5350" stroke="#033C59" strokeWidth="7" stroke-miterlimit="10"/>
<path d="M228.015 58.0432C228.015 55.3856 228 52.728 228.02 50.0703C228.035 47.9131 229.117 46.6353 230.886 46.6061C232.661 46.577 233.836 47.8694 233.845 49.9829C233.865 55.4779 233.865 60.973 233.845 66.468C233.836 68.5718 232.656 69.8739 230.886 69.8447C229.127 69.8156 228.035 68.5183 228.02 66.3757C228 63.6015 228.015 60.8223 228.015 58.0432Z" fill="#F4F6FE"/>
<path d="M233.841 78.5173C233.884 80.0769 232.622 81.4178 231.047 81.4859C229.482 81.5539 228.113 80.3149 228.025 78.7505C227.932 77.118 229.258 75.7042 230.901 75.6896C232.48 75.675 233.797 76.948 233.841 78.5173Z" fill="#F2F5FE"/>
<rect x="76.8334" y="60" width="2.33333" height="14" rx="1.16667" fill="#AFC2D2"/>
<rect x="71" y="68.1667" width="2.33333" height="14" rx="1.16667" transform="rotate(-90 71 68.1667)" fill="#AFC2D2"/>
<rect x="277.833" y="276" width="2.33333" height="14" rx="1.16667" fill="#AFC2D2"/>
<rect x="272" y="284.167" width="2.33333" height="14" rx="1.16667" transform="rotate(-90 272 284.167)" fill="#AFC2D2"/>
<rect x="323.125" y="145.775" width="2.33333" height="14" rx="1.16667" transform="rotate(-45 323.125 145.775)" fill="#AFC2D2"/>
<rect x="324.775" y="155.674" width="2.33333" height="14" rx="1.16667" transform="rotate(-135 324.775 155.674)" fill="#AFC2D2"/>
<circle cx="287" cy="27" r="4" stroke="#AFC2D2" strokeWidth="2"/>
<circle cx="69" cy="231" r="4" stroke="#AFC2D2" strokeWidth="2"/>
</g>
</svg>
