<svg width="338" height="338" viewBox="0 0 338 338" fill="none" xmlns="http://www.w3.org/2000/svg">
<g opacity="0.2">
<path d="M169 311C90.7 311 27 247.3 27 169C27 90.7 90.7 27 169 27C247.3 27 311 90.7 311 169C311 247.3 247.3 311 169 311ZM169 29C91.8 29 29 91.8 29 169C29 246.2 91.8 309 169 309C246.2 309 309 246.2 309 169C309 91.8 246.2 29 169 29Z" fill="#98D3FF"/>
<path d="M169 338C75.81 338 0 262.19 0 169C0 75.81 75.81 0 169 0C262.19 0 338 75.81 338 169C338 262.19 262.19 338 169 338ZM169 2C76.92 2 2 76.92 2 169C2 261.08 76.92 336 169 336C261.08 336 336 261.08 336 169C336 76.92 261.08 2 169 2Z" fill="#61ADF3"/>
<path d="M169 284C105.59 284 54 232.41 54 169C54 105.59 105.59 54 169 54C232.41 54 284 105.59 284 169C284 232.41 232.41 284 169 284ZM169 56C106.69 56 56 106.69 56 169C56 231.31 106.69 282 169 282C231.31 282 282 231.31 282 169C282 106.69 231.31 56 169 56Z" fill="white"/>
<path d="M169 219C196.614 219 219 196.614 219 169C219 141.386 196.614 119 169 119C141.386 119 119 141.386 119 169C119 196.614 141.386 219 169 219Z" fill="white"/>
<path d="M169 249C124.89 249 89 213.11 89 169C89 124.89 124.89 89 169 89C213.11 89 249 124.89 249 169C249 213.11 213.11 249 169 249ZM169 149C157.97 149 149 157.97 149 169C149 180.03 157.97 189 169 189C180.03 189 189 180.03 189 169C189 157.97 180.03 149 169 149Z" fill="#EEEEEE"/>
<path d="M237 297C239.761 297 242 294.761 242 292C242 289.239 239.761 287 237 287C234.239 287 232 289.239 232 292C232 294.761 234.239 297 237 297Z" fill="#2B8DF9"/>
<path d="M237 298C233.69 298 231 295.31 231 292C231 288.69 233.69 286 237 286C240.31 286 243 288.69 243 292C243 295.31 240.31 298 237 298ZM237 288C234.79 288 233 289.79 233 292C233 294.21 234.79 296 237 296C239.21 296 241 294.21 241 292C241 289.79 239.21 288 237 288Z" fill="#98D3FF"/>
<path d="M46 242C48.7614 242 51 239.761 51 237C51 234.239 48.7614 232 46 232C43.2386 232 41 234.239 41 237C41 239.761 43.2386 242 46 242Z" fill="#2B8DF9"/>
<path d="M46 243C42.69 243 40 240.31 40 237C40 233.69 42.69 231 46 231C49.31 231 52 233.69 52 237C52 240.31 49.31 243 46 243ZM46 233C43.79 233 42 234.79 42 237C42 239.21 43.79 241 46 241C48.21 241 50 239.21 50 237C50 234.79 48.21 233 46 233Z" fill="#98D3FF"/>
<path d="M84 98C86.7614 98 89 95.7614 89 93C89 90.2386 86.7614 88 84 88C81.2386 88 79 90.2386 79 93C79 95.7614 81.2386 98 84 98Z" fill="#2B8DF9"/>
<path d="M84 99C80.69 99 78 96.31 78 93C78 89.69 80.69 87 84 87C87.31 87 90 89.69 90 93C90 96.31 87.31 99 84 99ZM84 89C81.79 89 80 90.79 80 93C80 95.21 81.79 97 84 97C86.21 97 88 95.21 88 93C88 90.79 86.21 89 84 89Z" fill="white"/>
<path d="M283 164C285.761 164 288 161.761 288 159C288 156.239 285.761 154 283 154C280.239 154 278 156.239 278 159C278 161.761 280.239 164 283 164Z" fill="#2B8DF9"/>
<path d="M283 165C279.69 165 277 162.31 277 159C277 155.69 279.69 153 283 153C286.31 153 289 155.69 289 159C289 162.31 286.31 165 283 165ZM283 155C280.79 155 279 156.79 279 159C279 161.21 280.79 163 283 163C285.21 163 287 161.21 287 159C287 156.79 285.21 155 283 155Z" fill="white"/>
<path d="M254 62C256.761 62 259 59.7614 259 57C259 54.2386 256.761 52 254 52C251.239 52 249 54.2386 249 57C249 59.7614 251.239 62 254 62Z" fill="#2B8DF9"/>
<path d="M254 63C250.69 63 248 60.31 248 57C248 53.69 250.69 51 254 51C257.31 51 260 53.69 260 57C260 60.31 257.31 63 254 63ZM254 53C251.79 53 250 54.79 250 57C250 59.21 251.79 61 254 61C256.21 61 258 59.21 258 57C258 54.79 256.21 53 254 53Z" fill="#98D3FF"/>
</g>
<path d="M262 123C273.046 123 282 114.046 282 103C282 91.9543 273.046 83 262 83C250.954 83 242 91.9543 242 103C242 114.046 250.954 123 262 123Z" fill="white"/>
<path d="M262 123C250.97 123 242 114.03 242 103C242 91.97 250.97 83 262 83C273.03 83 282 91.97 282 103C282 114.03 273.03 123 262 123ZM262 85C252.08 85 244 93.07 244 103C244 112.93 252.08 121 262 121C271.92 121 280 112.93 280 103C280 93.07 271.92 85 262 85Z" fill="#B2DDFF"/>
<path d="M271.89 100.3C272.05 104.2 270.94 107.68 268.48 110.71C267.43 112.01 266.19 113.08 264.77 113.96C262.91 115.1 261.04 115.11 259.18 113.96C256.92 112.57 255.17 110.73 253.88 108.4C253.77 108.19 253.68 107.93 253.69 107.7C253.71 107.34 253.96 107.1 254.33 107.04C254.73 106.96 254.99 107.18 255.21 107.5C255.86 108.44 256.43 109.43 257.2 110.25C258.04 111.14 259.03 111.89 260.03 112.58C261.28 113.44 262.61 113.42 263.88 112.59C267.99 109.93 270.13 106.15 270.31 101.25C270.35 100.25 270.32 99.25 270.32 98.25C270.32 97.53 270.05 97.28 269.32 97.26C266.92 97.21 264.64 96.66 262.54 95.46C262.13 95.22 261.77 95.22 261.36 95.46C259.27 96.66 256.99 97.22 254.58 97.26C253.84 97.27 253.58 97.52 253.58 98.25C253.58 99.51 253.6 100.77 253.63 102.05C253.64 102.72 253.39 103.1 252.87 103.11C252.36 103.12 252.06 102.8 252.05 102.15C252.02 100.79 251.97 99.44 252 98.08C252.02 96.64 253.02 95.7 254.44 95.68C256.68 95.66 258.78 95.13 260.73 94.01C261.51 93.56 262.34 93.54 263.13 93.99C265.15 95.15 267.33 95.68 269.64 95.7C270.77 95.71 271.75 96.57 271.86 97.71C271.95 98.59 271.89 99.45 271.89 100.3Z" fill="#1570EF"/>
<path d="M259.06 101.06C259.21 100.55 259.27 100.07 259.47 99.66C259.84 98.9 260.5 98.47 261.36 98.4C261.48 98.39 261.61 98.39 261.73 98.37C263.5 98.23 264.68 99.08 264.8 101.04C265.63 101.05 266.38 101.29 266.93 101.98C267.47 102.64 267.48 103.42 267.45 104.2C267.4 105.67 266.57 106.47 264.78 106.7C264.77 106.82 264.77 106.96 264.76 107.1C264.65 108.39 263.68 109.31 262.39 109.36C262.13 109.37 261.87 109.37 261.59 109.36C260.26 109.32 259.27 108.37 259.17 107.05C259.16 106.94 259.16 106.84 259.15 106.71C258.84 106.66 258.53 106.65 258.24 106.56C257.29 106.27 256.7 105.64 256.53 104.65C256.46 104.21 256.46 103.75 256.49 103.3C256.59 102.08 257.42 101.24 258.63 101.08C258.8 101.08 258.96 101.07 259.06 101.06ZM261.96 107.78C262.94 107.78 263.17 107.56 263.17 106.57C263.17 106.37 263.17 106.17 263.17 105.96C263.18 105.37 263.47 105.09 264.07 105.07C264.33 105.07 264.59 105.07 264.87 105.07C265.55 105.06 265.84 104.79 265.85 104.11C265.85 103.93 265.86 103.77 265.85 103.6C265.83 102.98 265.54 102.69 264.93 102.66C264.59 102.65 264.25 102.67 263.91 102.65C263.46 102.61 263.21 102.34 263.18 101.89C263.17 101.74 263.18 101.58 263.18 101.43C263.18 100.11 262.99 99.92 261.66 99.98C261.07 100 260.8 100.29 260.78 100.89C260.77 101.2 260.78 101.51 260.78 101.83C260.76 102.35 260.49 102.63 259.97 102.65C259.65 102.66 259.31 102.61 259 102.68C258.74 102.73 258.32 102.88 258.28 103.05C258.18 103.56 258.13 104.14 258.24 104.64C258.35 105.13 258.89 105.08 259.31 105.08C260.71 105.08 260.79 105.17 260.79 106.55C260.76 107.55 260.98 107.78 261.96 107.78Z" fill="#1570EF"/>
<path d="M57 191C68.0457 191 77 182.046 77 171C77 159.954 68.0457 151 57 151C45.9543 151 37 159.954 37 171C37 182.046 45.9543 191 57 191Z" fill="white"/>
<path d="M57 191C45.97 191 37 182.03 37 171C37 159.97 45.97 151 57 151C68.03 151 77 159.97 77 171C77 182.03 68.03 191 57 191ZM57 153C47.07 153 39 161.07 39 171C39 180.92 47.07 189 57 189C66.93 189 75 180.92 75 171C75 161.07 66.93 153 57 153Z" fill="#B2DDFF"/>
<path d="M54.2501 176.33C53.9601 176.33 53.6801 176.21 53.4701 176L49.3201 171.79C48.8901 171.36 48.8901 170.64 49.3201 170.21C49.7501 169.78 50.4501 169.78 50.8801 170.21L54.2601 173.63L61.8001 165.98C62.2301 165.55 62.9301 165.55 63.3601 165.98C63.7901 166.41 63.7901 167.13 63.3601 167.56L55.0401 176C54.8201 176.21 54.5401 176.33 54.2501 176.33Z" fill="#1570EF"/>
<path d="M169 329C180.046 329 189 320.046 189 309C189 297.954 180.046 289 169 289C157.954 289 149 297.954 149 309C149 320.046 157.954 329 169 329Z" fill="white"/>
<path d="M169 329C157.97 329 149 320.03 149 309C149 297.97 157.97 289 169 289C180.03 289 189 297.97 189 309C189 320.03 180.03 329 169 329ZM169 291C159.07 291 151 299.08 151 309C151 318.92 159.07 327 169 327C178.92 327 187 318.92 187 309C187 299.08 178.92 291 169 291Z" fill="#B2DDFF"/>
<mask id="mask0_13472_4871" style="mask-type:luminance" maskUnits="userSpaceOnUse" x="160" y="298" width="17" height="22">
<path d="M177 298H160V320H177V298Z" fill="white"/>
</mask>
<g mask="url(#mask0_13472_4871)">
<path d="M176.84 315.14C176.05 310.7 171.61 307.57 167.15 308.39C163.63 309.03 161.35 311.13 160.31 314.54C160.05 315.4 159.93 316.3 160.05 317.19C160.29 318.86 161.66 320.01 163.35 320.01C165.06 320.01 166.79 320.01 168.5 320.01C170.25 320.01 172 320.02 173.75 320.01C175.23 320 176.52 318.98 176.88 317.56C177.09 316.74 176.98 315.94 176.84 315.14ZM173.69 318.43C173.26 318.43 172.82 318.43 172.39 318.43C171.09 318.43 169.79 318.43 168.49 318.43C166.8 318.43 165.11 318.43 163.42 318.43C162.29 318.43 161.58 317.7 161.6 316.58C161.66 313.1 164.37 310.2 167.87 309.88C171.52 309.54 174.83 312.13 175.35 315.73C175.4 316.05 175.42 316.38 175.42 316.71C175.42 317.68 174.68 318.42 173.69 318.43Z" fill="#1570EF"/>
<path d="M168.5 298C165.96 298 163.87 300.06 163.87 302.6C163.86 305.15 165.95 307.23 168.5 307.23C171.04 307.23 173.13 305.16 173.13 302.63C173.14 300.08 171.06 298 168.5 298ZM168.48 305.66C166.81 305.65 165.44 304.28 165.44 302.61C165.44 300.93 166.82 299.57 168.5 299.57C170.18 299.57 171.56 300.95 171.55 302.62C171.55 304.3 170.16 305.67 168.48 305.66Z" fill="#1570EF"/>
</g>
<mask id="mask1_13472_4871" style="mask-type:luminance" maskUnits="userSpaceOnUse" x="105" y="73" width="128" height="193">
<path d="M233 73H105V266H233V73Z" fill="white"/>
</mask>
<g mask="url(#mask1_13472_4871)">
<path d="M233 254.9C232.89 255.19 232.83 255.53 232.89 256.05C233 257.54 232.95 259.03 232.89 260.57C232.78 263.77 230.85 265.72 227.73 265.95C227.22 266.01 226.71 265.95 226.26 265.95C188.05 265.95 149.85 265.95 111.7 266.01C108.64 266.01 106.37 265.09 105.07 262.18V207.25C105.51 205.51 105.52 206.11 105.69 205.53C107.79 199.24 111.93 195.23 118.39 193.92C128.71 191.86 139.08 189.91 149.45 187.91C150.07 187.8 151.04 188.02 151.04 186.94C150.98 185.91 151.49 184.77 150.08 183.96C142.94 179.9 137.67 174.12 134.15 166.68C133.7 165.65 133.02 165.65 132.11 165.59C129.84 165.53 127.58 165.88 125.37 165.25C120.89 163.99 117.77 160.5 117.26 155.87C116.92 152.95 116.86 150.03 118.05 147.23C118.39 146.43 118.28 145.51 118.28 144.71C118.28 123.31 118.28 101.91 118.28 80.57C118.28 76.45 120.15 73.93 123.67 73.19C125.31 72.85 126.73 73.3 128.15 74.05C131.61 75.77 135.12 77.48 138.58 79.31C142.04 81.14 145.72 81.94 149.63 81.88C157.34 81.82 165.11 81.94 172.81 81.82C181.71 81.71 189.25 84.85 195.31 91.43C195.93 92.17 196.61 92.35 197.52 92.35C200.35 92.35 203.19 92.18 206.02 92.52C208.91 92.86 211.58 93.89 213.73 95.78C213.9 95.95 214.07 96.07 214.24 96.18C215.77 97.5 220.14 102.13 219.23 112.54L219.63 128.51C219.63 134.29 219.57 140.07 219.8 145.85C219.91 148.6 220.99 151.34 220.88 154.26C220.65 160.95 216.12 165.82 209.6 165.53C205.8 165.36 203.76 166.45 202.06 169.94C199.06 175.89 194.24 180.41 188.46 183.67C187.04 184.47 186.82 185.44 186.99 186.82C187.16 188.25 188.35 187.85 189.14 188.02C196.28 189.45 203.43 190.77 210.62 192.2C210.73 192.26 210.85 192.26 211.02 192.26C211.53 192.37 212.04 192.43 212.49 192.55C213.17 192.66 233.29 193.35 233.12 211.66V213.38C233.12 214.24 233.18 215.15 233.12 216.13C233.12 223.4 233.12 230.61 233.12 237.87L233.18 246.68L233 254.9Z" fill="#101828"/>
<path d="M136.86 137.6C136.86 130.96 136.92 125.58 136.8 120.26C136.74 118.32 137.31 118.2 138.95 118.66C144.34 120.2 149.61 121.92 155.1 123.12C166.84 125.64 178.34 124.38 189.68 120.83C192.85 119.86 196.03 118.94 199.32 118.31C200.74 118.08 201.13 118.48 201.08 119.91C201.02 130.21 201.14 140.51 201.02 150.81C200.79 167.8 187.7 181.31 170.35 182.57C154.53 183.71 139.68 171.47 137.25 155.16C136.29 148.93 137.14 142.64 136.86 137.6Z" fill="#FFF6ED"/>
<path d="M157.15 214.56C159.13 218.34 160.55 221.88 159.7 226.46C157.83 236.76 156.58 247.23 155.22 257.64C155.05 259.13 154.54 259.53 153.12 259.47C146.66 259.41 140.25 259.41 133.79 259.47C132.26 259.47 131.92 258.96 131.92 257.53C131.98 248.37 131.98 239.22 131.92 230.06C131.92 229.26 131.92 228.46 131.81 227.71C131.47 226.11 130.39 225.25 128.8 225.25C127.33 225.25 126.19 225.99 125.8 227.48C125.57 228.28 125.57 229.2 125.57 230.05C125.57 239.15 125.51 248.19 125.63 257.29C125.63 259.12 125.12 259.58 123.36 259.46C119.96 259.35 116.56 259.35 113.16 259.46C111.86 259.52 111.35 259.23 111.35 257.74C111.41 241.89 111.35 225.98 111.41 210.13C111.41 205.21 114.53 201.26 119.23 200.29C125.75 198.92 132.27 197.77 138.79 196.46C140.04 196.23 140.49 196.46 140.72 197.83C141.63 202.98 142.7 208.07 143.72 213.16C144.91 219.05 149.9 220.77 154.43 216.82C155.34 216.1 156.19 215.36 157.15 214.56Z" fill="white"/>
<path d="M190.37 95.6601C192.18 98.0601 194.56 98.9201 197.57 98.7501C200.12 98.6401 202.79 98.3501 205.34 99.0401C208.12 100.93 209.25 103.85 209.31 106.99C209.54 117.4 209.42 127.88 209.37 138.29C209.37 139.26 209.6 140.86 207.61 140.29C207.55 133.42 207.5 126.56 207.5 119.69C207.5 113.68 205.23 111.57 199.28 111.91C195.77 112.14 192.42 113.11 189.19 114.26C174.45 119.47 159.88 118.95 145.26 113.8C142.6 112.89 139.93 111.91 137.04 111.86C132.9 111.75 130.52 113.86 130.52 117.98C130.46 124.67 130.46 131.43 130.52 138.12C130.52 139.95 130.18 140.87 128.2 140.52C127.07 140.35 125.48 141.32 124.85 140.52C124.23 139.78 124.62 138.17 124.62 136.97C124.62 118.6 124.62 100.24 124.62 81.8101C124.62 79.2901 124.62 79.2901 126.83 80.3801C129.95 81.9201 133.07 83.4701 136.13 85.0701C140.15 87.1901 144.46 88.1001 149 88.1001C157.05 88.1001 165.16 88.1001 173.21 88.1001C175.87 88.1001 178.59 88.2101 181.09 89.4701C182.22 89.9801 183.3 90.6701 184.09 91.6401C185.78 93.8301 187.88 95.1401 190.37 95.6601Z" fill="#C68561"/>
<path d="M212.25 227.84C211.63 226.01 210.38 224.92 208.4 225.38C206.42 225.84 205.91 227.44 205.91 229.33C205.91 238.71 205.85 248.04 205.97 257.42C205.97 259.14 205.46 259.54 203.81 259.54C197.46 259.43 191.06 259.48 184.71 259.54C183.41 259.54 182.95 259.25 182.73 257.82C181.14 246.2 179.44 234.65 177.8 223.03C177.63 222 177.74 221.08 178.2 220.11C179.11 218.16 179.96 216.22 180.86 214.1C182.16 215.19 183.41 216.22 184.66 217.25C189.02 220.86 193.84 219.14 195.03 213.53C195.99 209.01 196.9 204.43 197.81 199.91C198.55 199.22 199.4 199.4 200.25 199.57C204.73 200.43 209.15 201.17 213.63 202.09C218.96 203.24 221.79 206.72 221.79 212.27C221.85 226.86 221.79 241.45 221.79 255.99C221.79 256.68 221.79 257.42 221.68 258.11C221.51 258.91 221.11 259.37 220.21 259.37C218 259.37 215.84 259.31 213.63 259.37C212.04 259.43 212.44 258.28 212.44 257.42C212.44 249.7 212.44 241.97 212.44 234.25C212.37 232.13 212.48 230.01 212.25 227.84Z" fill="white"/>
<path d="M212.25 227.84C212.82 228.53 212.59 229.33 212.59 230.13C212.59 239.06 212.65 247.98 212.59 256.91C212.59 258.68 213.1 259.37 214.86 259.14C216.84 258.91 219.45 260 220.76 258.62C221.95 257.36 221.1 254.79 221.1 252.84C221.16 239.39 220.99 226 221.16 212.56C221.22 207.41 218.44 203.69 213.39 202.72C208.23 201.75 203.02 200.89 197.86 199.92C198.48 196.32 198.48 196.37 201.94 197C207.1 197.97 212.2 199 217.36 199.92C223.43 201.06 226.6 204.84 226.6 211.08C226.6 226.53 226.6 241.92 226.66 257.37C226.66 259.03 226.26 259.6 224.56 259.49C221.05 259.38 217.47 259.43 213.96 259.49C212.66 259.55 212.26 259.09 212.32 257.77C212.25 247.86 212.25 237.85 212.25 227.84Z" fill="#EAECF0"/>
<path d="M169 259.53C167.07 259.53 165.15 259.42 163.27 259.59C161.63 259.7 161.4 258.96 161.63 257.59C162.65 250.44 163.67 243.34 164.69 236.19C165.2 232.76 165.77 229.27 166.16 225.83C166.33 224.57 166.73 224.06 167.97 224.17C168.65 224.23 169.39 224.23 170.07 224.17C171.09 224.11 171.54 224.51 171.71 225.6C173.18 236.42 174.71 247.23 176.3 257.99C176.47 259.25 176.13 259.65 174.88 259.59C172.97 259.48 170.98 259.53 169 259.53Z" fill="#F04438"/>
<path d="M179.37 196.48C177.73 200.6 175.57 202.14 171.32 202.14C169.85 202.14 168.37 202.14 166.9 202.14C162.02 202.14 158.96 199.68 157.77 194.82C157.26 192.7 157.37 190.59 157.37 188.41C157.37 187.44 157.82 187.32 158.56 187.55C164 189.27 169.56 189.21 175.11 188.64C175.9 189.44 175.73 190.47 175.73 191.44C175.67 193.5 176.3 195.04 178.51 195.56C178.92 195.62 179.49 195.79 179.37 196.48Z" fill="#FFF6ED"/>
<path d="M207.6 140.23C208.56 140.29 208.79 139.77 208.79 138.91C208.79 128.1 208.85 117.34 208.73 106.52C208.73 103.66 206.92 101.37 205.39 99.02C209.07 99.36 212.36 102.28 212.99 105.94C213.16 106.97 213.27 108.06 213.27 109.14C213.27 119.1 213.27 129 213.33 138.95C213.33 140.38 213.16 141.18 211.52 140.67C210.21 140.29 208.79 141.03 207.6 140.23Z" fill="#B6734E"/>
<path d="M169 208.55C170.47 208.55 172 208.49 173.48 208.55C175.35 208.66 175.8 209.58 175.12 211.24C174.78 212.1 174.21 212.9 174.04 213.81C173.3 217.13 171.32 218.04 168.09 217.76C166.16 217.59 165.14 217.13 164.58 215.3C164.18 214.04 163.5 212.84 162.99 211.58C162.25 209.81 162.93 208.72 164.8 208.55C164.86 208.55 164.91 208.55 165.03 208.55C166.28 208.55 167.64 208.55 169 208.55Z" fill="#F04438"/>
<path d="M157.38 205.75C155 207.87 152.67 209.87 150.12 212.16C148.99 206.55 147.91 201.23 146.83 195.91C146.66 195.11 147 194.88 147.68 194.82C148.3 194.71 148.93 194.59 149.55 194.48C150.68 194.19 151.25 194.37 151.53 195.74C152.28 199.68 154.26 202.95 157.38 205.75Z" fill="#DBEAFE"/>
<path d="M191.33 198.65C190.48 203.11 189.69 207.58 188.78 212.38C186.17 210.2 183.79 208.2 181.41 206.26C180.62 205.57 181.07 205.23 181.52 204.77C183.5 202.77 184.87 200.36 185.89 197.79C187.88 196.88 189.75 197.11 191.33 198.65Z" fill="#DBEAFE"/>
<path d="M123.42 153.05C123.42 148.81 125.18 146.93 128.98 146.98C130 146.98 130.51 147.21 130.45 148.41C130.34 151.67 130.45 154.93 131.24 158.14C131.41 158.77 131.41 159.11 130.56 159.28C126.03 159.97 123.42 157.74 123.42 153.05Z" fill="#FFF6ED"/>
<path d="M214.41 153.16C214.41 157.79 212.26 159.68 207.55 159.23C206.64 159.17 206.47 158.89 206.64 158.09C207.32 154.77 207.55 151.45 207.43 148.08C207.43 147.22 207.71 146.99 208.56 146.99C211.86 146.81 214.75 148.3 214.41 153.16Z" fill="#FFF6ED"/>
<path d="M179.37 196.48C179.09 196.08 178.63 196.14 178.24 196.08C176.2 195.79 175.18 194.59 175.12 192.53C175.12 191.27 175.12 190.01 175.12 188.7C175.57 188.59 176.03 188.41 176.54 188.3C180.56 187.5 180.62 187.5 180.45 191.79C180.34 193.39 180.34 195.05 179.37 196.48Z" fill="#E6D2B4"/>
<path d="M191.34 198.65C189.58 198.02 187.77 197.74 185.9 197.79C186.81 194.19 186.81 194.24 190.21 194.81C191.51 195.04 192.53 195.32 191.8 197.04C191.56 197.51 191.51 198.08 191.34 198.65Z" fill="#B2DDFF"/>
<path d="M190.37 95.6601C188.16 95.9501 186.46 95.1501 184.98 93.4301C183.79 92.0601 182.37 90.8601 181.07 89.6001C184.87 90.6201 187.88 92.7401 190.37 95.6601Z" fill="#C68561"/>
<path d="M168.89 169.41C165.21 169.24 161.92 168.15 159.2 165.58C157.5 163.98 157.27 162.15 158.52 160.72C159.82 159.23 161.58 159.23 163.4 160.78C166.91 163.7 170.94 163.75 174.4 160.84C176.27 159.3 177.97 159.24 179.28 160.67C180.64 162.16 180.41 164.05 178.6 165.71C175.8 168.21 172.51 169.3 168.89 169.41Z" fill="#101828"/>
<path d="M154.09 129.3C156.24 129.36 158.57 129.81 160.72 131.07C162.65 132.16 163.21 133.87 162.42 135.53C161.57 137.25 159.87 137.76 157.89 136.85C155 135.48 152.28 135.19 149.61 137.54C148.25 138.74 146.6 138.34 145.47 136.97C144.28 135.6 144.39 134.05 145.64 132.68C147.8 130.22 150.69 129.36 154.09 129.3Z" fill="#101828"/>
<path d="M193.15 134.8C193.15 136.06 192.64 137.03 191.56 137.66C190.43 138.35 189.18 138.35 188.21 137.49C185.55 135.14 182.83 135.54 179.93 136.86C178.06 137.72 176.47 137.26 175.51 135.66C174.66 134.17 175.11 132.46 176.59 131.37C180.62 128.51 187.64 128.68 191.33 131.77C192.64 132.79 193.09 133.65 193.15 134.8Z" fill="#101828"/>
<path d="M186.69 147.61C186.69 148.3 186.75 149.04 186.69 149.73C186.58 151.62 185.33 152.82 183.57 152.88C181.87 152.88 180.51 151.73 180.34 149.85C180.23 148.36 180.23 146.87 180.34 145.33C180.45 143.38 181.87 142.01 183.57 142.07C185.33 142.13 186.58 143.44 186.69 145.45C186.69 146.18 186.69 146.87 186.69 147.61Z" fill="#101828"/>
<path d="M157.66 147.5C157.6 148.47 157.6 149.5 157.38 150.48C156.98 152.2 155.79 153 154.09 152.88C152.5 152.76 151.43 151.85 151.26 150.19C151.15 148.59 151.15 146.93 151.2 145.27C151.31 143.38 152.62 142.12 154.26 142.06C155.9 142 157.27 143.26 157.49 145.15C157.6 145.95 157.49 146.69 157.49 147.5C157.55 147.5 157.61 147.5 157.66 147.5Z" fill="#101828"/>
</g>
<path d="M255 266H83C81.34 266 80 264.66 80 263C80 261.34 81.34 260 83 260H255C256.66 260 258 261.34 258 263C258 264.66 256.66 266 255 266Z" fill="#101828"/>
<path d="M268.4 176H227.6C220.09 176 214 182.13 214 189.67V224.32C214 231.86 220.09 237.99 227.6 237.99H268.4C275.91 237.99 282 231.86 282 224.32V189.67C282 182.13 275.91 176 268.4 176Z" fill="#101828"/>
<path d="M266 180H230C223.37 180 218 185.34 218 191.91V222.09C218 228.66 223.37 234 230 234H266C272.63 234 278 228.66 278 222.09V191.91C278 185.34 272.63 180 266 180Z" fill="#FFF6ED"/>
<path d="M266.25 197.25H251.25C250.02 197.25 249 196.23 249 195C249 193.77 250.02 192.75 251.25 192.75H266.25C267.48 192.75 268.5 193.77 268.5 195C268.5 196.23 267.48 197.25 266.25 197.25Z" fill="#101828"/>
<path d="M266.25 209.25H254.25C253.02 209.25 252 208.23 252 207C252 205.77 253.02 204.75 254.25 204.75H266.25C267.48 204.75 268.5 205.77 268.5 207C268.5 208.23 267.48 209.25 266.25 209.25Z" fill="#101828"/>
<path d="M266.25 221.25H260.25C259.02 221.25 258 220.23 258 219C258 217.77 259.02 216.75 260.25 216.75H266.25C267.48 216.75 268.5 217.77 268.5 219C268.5 220.23 267.48 221.25 266.25 221.25Z" fill="#101828"/>
<path d="M235.5 206.37C239.33 206.37 242.43 203.27 242.43 199.44C242.43 195.61 239.33 192.51 235.5 192.51C231.67 192.51 228.57 195.61 228.57 199.44C228.57 203.27 231.67 206.37 235.5 206.37Z" fill="#FB6514"/>
<path d="M237.9 210.33C236.31 210.18 234.66 210.18 233.07 210.33C228.03 210.81 223.98 214.8 223.5 219.84C223.47 220.26 223.59 220.68 223.89 220.98C224.19 221.28 224.58 221.49 225 221.49H246C246.42 221.49 246.84 221.31 247.11 221.01C247.38 220.71 247.53 220.29 247.5 219.87C246.99 214.8 242.97 210.81 237.9 210.33Z" fill="#FB6514"/>
</svg>
