<svg width="338" height="338" viewBox="0 0 338 338" fill="none" xmlns="http://www.w3.org/2000/svg">
<g opacity="0.2">
<path d="M169 311C90.7 311 27 247.3 27 169C27 90.7 90.7 27 169 27C247.3 27 311 90.7 311 169C311 247.3 247.3 311 169 311ZM169 29C91.8 29 29 91.8 29 169C29 246.2 91.8 309 169 309C246.2 309 309 246.2 309 169C309 91.8 246.2 29 169 29Z" fill="#98D3FF"/>
<path d="M169 338C75.81 338 0 262.19 0 169C0 75.81 75.81 0 169 0C262.19 0 338 75.81 338 169C338 262.19 262.19 338 169 338ZM169 2C76.92 2 2 76.92 2 169C2 261.08 76.92 336 169 336C261.08 336 336 261.08 336 169C336 76.92 261.08 2 169 2Z" fill="#61ADF3"/>
<path d="M169 284C105.59 284 54 232.41 54 169C54 105.59 105.59 54 169 54C232.41 54 284 105.59 284 169C284 232.41 232.41 284 169 284ZM169 56C106.69 56 56 106.69 56 169C56 231.31 106.69 282 169 282C231.31 282 282 231.31 282 169C282 106.69 231.31 56 169 56Z" fill="white"/>
<path d="M169 219C196.614 219 219 196.614 219 169C219 141.386 196.614 119 169 119C141.386 119 119 141.386 119 169C119 196.614 141.386 219 169 219Z" fill="white"/>
<path d="M169 249C124.89 249 89 213.11 89 169C89 124.89 124.89 89 169 89C213.11 89 249 124.89 249 169C249 213.11 213.11 249 169 249ZM169 149C157.97 149 149 157.97 149 169C149 180.03 157.97 189 169 189C180.03 189 189 180.03 189 169C189 157.97 180.03 149 169 149Z" fill="#EEEEEE"/>
<path d="M171 315C173.761 315 176 312.761 176 310C176 307.239 173.761 305 171 305C168.239 305 166 307.239 166 310C166 312.761 168.239 315 171 315Z" fill="#2686F6"/>
<path d="M171 316C167.69 316 165 313.31 165 310C165 306.69 167.69 304 171 304C174.31 304 177 306.69 177 310C177 313.31 174.31 316 171 316ZM171 306C168.79 306 167 307.79 167 310C167 312.21 168.79 314 171 314C173.21 314 175 312.21 175 310C175 307.79 173.21 306 171 306Z" fill="#98D3FF"/>
<path d="M30 197C32.7614 197 35 194.761 35 192C35 189.239 32.7614 187 30 187C27.2386 187 25 189.239 25 192C25 194.761 27.2386 197 30 197Z" fill="#2686F6"/>
<path d="M30 198C26.69 198 24 195.31 24 192C24 188.69 26.69 186 30 186C33.31 186 36 188.69 36 192C36 195.31 33.31 198 30 198ZM30 188C27.79 188 26 189.79 26 192C26 194.21 27.79 196 30 196C32.21 196 34 194.21 34 192C34 189.79 32.21 188 30 188Z" fill="#98D3FF"/>
<path d="M104 80C106.761 80 109 77.7614 109 75C109 72.2386 106.761 70 104 70C101.239 70 99 72.2386 99 75C99 77.7614 101.239 80 104 80Z" fill="#2686F6"/>
<path d="M104 81C100.69 81 98 78.31 98 75C98 71.69 100.69 69 104 69C107.31 69 110 71.69 110 75C110 78.31 107.31 81 104 81ZM104 71C101.79 71 100 72.79 100 75C100 77.21 101.79 79 104 79C106.21 79 108 77.21 108 75C108 72.79 106.21 71 104 71Z" fill="white"/>
<path d="M283 162C285.761 162 288 159.761 288 157C288 154.239 285.761 152 283 152C280.239 152 278 154.239 278 157C278 159.761 280.239 162 283 162Z" fill="#2686F6"/>
<path d="M283 163C279.69 163 277 160.31 277 157C277 153.69 279.69 151 283 151C286.31 151 289 153.69 289 157C289 160.31 286.31 163 283 163ZM283 153C280.79 153 279 154.79 279 157C279 159.21 280.79 161 283 161C285.21 161 287 159.21 287 157C287 154.79 285.21 153 283 153Z" fill="white"/>
<path d="M254 62C256.761 62 259 59.7614 259 57C259 54.2386 256.761 52 254 52C251.239 52 249 54.2386 249 57C249 59.7614 251.239 62 254 62Z" fill="#2686F6"/>
<path d="M254 63C250.69 63 248 60.31 248 57C248 53.69 250.69 51 254 51C257.31 51 260 53.69 260 57C260 60.31 257.31 63 254 63ZM254 53C251.79 53 250 54.79 250 57C250 59.21 251.79 61 254 61C256.21 61 258 59.21 258 57C258 54.79 256.21 53 254 53Z" fill="#98D3FF"/>
</g>
<path d="M51 69C62.0457 69 71 60.0457 71 49C71 37.9543 62.0457 29 51 29C39.9543 29 31 37.9543 31 49C31 60.0457 39.9543 69 51 69Z" fill="white"/>
<path d="M51 69C39.97 69 31 60.03 31 49C31 37.97 39.97 29 51 29C62.03 29 71 37.97 71 49C71 60.03 62.03 69 51 69ZM51 31C41.07 31 33 39.07 33 49C33 58.93 41.07 67 51 67C60.93 67 69 58.93 69 49C69 39.07 60.93 31 51 31Z" fill="#B2DDFF"/>
<path d="M56.0001 58.9H46.0001C41.4801 58.9 40.1001 57.52 40.1001 53V45C40.1001 40.48 41.4801 39.1 46.0001 39.1H56.0001C60.5201 39.1 61.9001 40.48 61.9001 45V53C61.9001 57.52 60.5201 58.9 56.0001 58.9ZM46.0001 40.9C42.5101 40.9 41.9001 41.51 41.9001 45V53C41.9001 56.49 42.5101 57.1 46.0001 57.1H56.0001C59.4901 57.1 60.1001 56.49 60.1001 53V45C60.1001 41.51 59.4901 40.9 56.0001 40.9H46.0001Z" fill="#1570EF"/>
<path d="M58.0001 45.9H53.0001C52.5001 45.9 52.1001 45.5 52.1001 45C52.1001 44.5 52.5001 44.1 53.0001 44.1H58.0001C58.5001 44.1 58.9001 44.5 58.9001 45C58.9001 45.5 58.5001 45.9 58.0001 45.9Z" fill="#1570EF"/>
<path d="M58.0001 49.9H54.0001C53.5001 49.9 53.1001 49.5 53.1001 49C53.1001 48.5 53.5001 48.1 54.0001 48.1H58.0001C58.5001 48.1 58.9001 48.5 58.9001 49C58.9001 49.5 58.5001 49.9 58.0001 49.9Z" fill="#1570EF"/>
<path d="M58.0001 53.9H56.0001C55.5001 53.9 55.1001 53.5 55.1001 53C55.1001 52.5 55.5001 52.1 56.0001 52.1H58.0001C58.5001 52.1 58.9001 52.5 58.9001 53C58.9001 53.5 58.5001 53.9 58.0001 53.9Z" fill="#1570EF"/>
<path d="M47.5 49.19C46.01 49.19 44.79 47.97 44.79 46.48C44.79 44.99 46.01 43.77 47.5 43.77C48.99 43.77 50.21 44.99 50.21 46.48C50.21 47.97 48.99 49.19 47.5 49.19ZM47.5 45.57C47 45.57 46.59 45.98 46.59 46.48C46.59 46.98 47 47.39 47.5 47.39C48 47.39 48.41 46.98 48.41 46.48C48.41 45.98 48 45.57 47.5 45.57Z" fill="#1570EF"/>
<path d="M51.0001 54.23C50.5401 54.23 50.1501 53.88 50.1001 53.42C50.0001 52.4 49.1901 51.6 48.1801 51.51C47.7301 51.47 47.2801 51.47 46.8301 51.51C45.8101 51.61 45.0001 52.41 44.9001 53.42C44.8501 53.91 44.4101 54.27 43.9201 54.23C43.4201 54.18 43.0601 53.74 43.1101 53.25C43.2901 51.39 44.7801 49.9 46.6601 49.72C47.2301 49.67 47.8001 49.66 48.3601 49.72C50.2301 49.89 51.7301 51.37 51.9101 53.25C51.9601 53.74 51.6001 54.18 51.1001 54.23C51.0601 54.23 51.0301 54.23 51.0001 54.23Z" fill="#1570EF"/>
<path d="M71 295C82.0457 295 91 286.046 91 275C91 263.954 82.0457 255 71 255C59.9543 255 51 263.954 51 275C51 286.046 59.9543 295 71 295Z" fill="white"/>
<path d="M71 295C59.97 295 51 286.03 51 275C51 263.97 59.97 255 71 255C82.03 255 91 263.97 91 275C91 286.03 82.03 295 71 295ZM71 257C61.07 257 53 265.08 53 275C53 284.92 61.07 293 71 293C80.93 293 89 284.92 89 275C89 265.08 80.93 257 71 257Z" fill="#B2DDFF"/>
<path d="M71 277.33C68.78 277.33 66.98 275.53 66.98 273.31C66.98 271.09 68.78 269.29 71 269.29C73.22 269.29 75.02 271.09 75.02 273.31C75.02 275.53 73.22 277.33 71 277.33ZM71 271.09C69.78 271.09 68.78 272.09 68.78 273.31C68.78 274.53 69.78 275.53 71 275.53C72.22 275.53 73.22 274.53 73.22 273.31C73.22 272.09 72.22 271.09 71 271.09Z" fill="#1570EF"/>
<path d="M70.9999 285.9C69.4799 285.9 67.9599 285.33 66.7699 284.19C63.7899 281.32 60.5099 276.76 61.7499 271.29C62.8799 266.32 67.2099 264.1 71.0099 264.1C71.0099 264.1 71.0099 264.1 71.0199 264.1C74.8199 264.1 79.1499 266.33 80.2699 271.3C81.5099 276.77 78.2099 281.33 75.2399 284.19C74.0399 285.33 72.5199 285.9 70.9999 285.9ZM63.4999 271.69C62.4499 276.34 65.3799 280.35 68.0199 282.89C69.6999 284.5 72.3099 284.5 73.9799 282.89C76.6299 280.35 79.5599 276.34 78.5099 271.7C77.5399 267.42 73.8599 265.9 71.0099 265.9C68.1399 265.9 64.4699 267.42 63.4999 271.69Z" fill="#1570EF"/>
<path d="M297 255C308.046 255 317 246.046 317 235C317 223.954 308.046 215 297 215C285.954 215 277 223.954 277 235C277 246.046 285.954 255 297 255Z" fill="white"/>
<path d="M297 255C285.97 255 277 246.03 277 235C277 223.97 285.97 215 297 215C308.03 215 317 223.97 317 235C317 246.03 308.03 255 297 255ZM297 217C287.08 217 279 225.08 279 235C279 244.92 287.08 253 297 253C306.92 253 315 244.92 315 235C315 225.08 306.92 217 297 217Z" fill="#B2DDFF"/>
<path d="M297 245.9C296.26 245.9 295.52 245.62 294.95 245.06L293.24 243.37C292.85 242.98 292.31 242.76 291.75 242.76H291C288.85 242.76 287.1 241.02 287.1 238.89V227.98C287.1 225.85 288.85 224.11 291 224.11H303C305.15 224.11 306.9 225.85 306.9 227.98V238.89C306.9 241.02 305.15 242.76 303 242.76H302.24C301.67 242.76 301.15 242.97 300.76 243.37L299.05 245.06C298.48 245.62 297.74 245.9 297 245.9ZM291 225.91C289.84 225.91 288.9 226.84 288.9 227.98V238.89C288.9 240.03 289.84 240.96 291 240.96H291.75C292.78 240.96 293.79 241.37 294.51 242.09L296.22 243.78C296.65 244.21 297.35 244.21 297.78 243.78L299.49 242.09C300.22 241.36 301.2 240.96 302.24 240.96H303C304.16 240.96 305.1 240.03 305.1 238.89V227.98C305.1 226.84 304.16 225.91 303 225.91H291Z" fill="#1570EF"/>
<path d="M297 233.9C295.22 233.9 293.77 232.45 293.77 230.67C293.77 228.89 295.22 227.44 297 227.44C298.78 227.44 300.23 228.89 300.23 230.67C300.23 232.45 298.78 233.9 297 233.9ZM297 229.24C296.21 229.24 295.57 229.88 295.57 230.67C295.57 231.46 296.21 232.1 297 232.1C297.79 232.1 298.43 231.46 298.43 230.67C298.43 229.88 297.79 229.24 297 229.24Z" fill="#1570EF"/>
<path d="M301 239.56C300.5 239.56 300.1 239.16 300.1 238.66C300.1 237.36 298.71 236.3 297 236.3C295.29 236.3 293.9 237.36 293.9 238.66C293.9 239.16 293.5 239.56 293 239.56C292.5 239.56 292.1 239.16 292.1 238.66C292.1 236.37 294.3 234.5 297 234.5C299.7 234.5 301.9 236.37 301.9 238.66C301.9 239.16 301.5 239.56 301 239.56Z" fill="#1570EF"/>
<path d="M111.19 142.71C111.19 144.67 109.69 145.47 108.03 144.67C104.87 143.06 101.66 141.46 98.5 139.8C97.6 139.35 96.95 139.4 96.04 139.85C92.98 141.51 89.82 143.11 86.71 144.72C85.86 145.17 84.95 145.62 84.05 144.92C83.2 144.27 83.35 143.31 83.5 142.31C84.05 139 84.55 135.63 85.11 132.32C85.31 131.21 85.11 130.46 84.26 129.66C81.9 127.5 79.65 125.24 77.34 123.03C76.64 122.33 75.74 121.72 76.09 120.52C76.44 119.31 77.34 118.81 78.6 118.61C81.71 118.16 84.77 117.61 87.88 117.15C89.08 117 89.89 116.5 90.44 115.34C91.89 112.38 93.5 109.47 94.95 106.51C95.45 105.51 96.2 104.95 97.26 104.9C98.41 104.85 99.07 105.6 99.52 106.56C100.92 109.57 102.48 112.48 103.78 115.55C104.38 116.9 105.28 117.36 106.59 117.56C109.75 118.01 112.86 118.61 116.02 119.07C117.02 119.22 117.78 119.52 118.13 120.58C118.48 121.68 117.98 122.39 117.28 123.04C114.87 125.25 112.52 127.46 110.06 129.62C109.21 130.37 108.91 130.98 109.16 132.18C109.93 135.78 110.53 139.35 111.19 142.71Z" fill="#101828"/>
<path d="M110.48 110.53C110.98 107.82 111.43 104.96 112.08 102.15C112.38 101 112.03 100.29 111.23 99.54C109.33 97.73 107.47 95.83 105.61 93.97C104.96 93.32 104.11 92.66 104.56 91.56C105.01 90.51 105.76 89.9 106.97 89.75C109.53 89.45 112.04 88.95 114.59 88.65C115.69 88.5 116.34 88.1 116.9 87.04C118.15 84.53 119.56 82.07 120.91 79.61C121.41 78.66 122.01 77.95 123.22 78C124.42 78.05 124.93 78.85 125.33 79.81C126.33 82.17 127.34 84.53 128.24 86.94C128.64 87.99 129.24 88.5 130.4 88.65C133.01 88.95 135.62 89.45 138.22 89.8C139.22 89.95 140.08 90.2 140.43 91.26C140.78 92.36 140.33 93.17 139.58 93.92C137.67 95.78 135.82 97.79 133.81 99.59C132.96 100.39 132.81 101.2 133.01 102.25C133.56 104.91 134.06 107.52 134.51 110.18C134.66 111.03 134.81 111.99 133.91 112.59C133.06 113.14 132.26 112.84 131.45 112.44C129.04 111.18 126.63 110.08 124.28 108.78C123.18 108.18 122.27 108.23 121.17 108.78C118.51 110.18 115.8 111.39 113.1 112.8C112.45 113.15 111.9 113.1 111.34 112.8C110.53 112.29 110.33 111.54 110.48 110.53Z" fill="#101828"/>
<path d="M130.85 138.65C131.15 136.74 131.3 134.93 131.75 133.18C132.1 131.67 131.75 130.72 130.6 129.77C129.45 128.82 128.39 127.76 127.29 126.71C126.54 126.06 125.94 125.36 126.34 124.3C126.74 123.3 127.49 122.74 128.6 122.54C130.46 122.19 132.26 121.74 134.12 121.44C135.17 121.29 135.77 120.84 136.23 119.88C137.03 118.12 137.94 116.42 138.84 114.66C139.29 113.76 139.84 113.1 140.95 113.05C142.05 113.05 142.41 113.85 142.81 114.66C143.91 116.77 144.52 119.48 146.22 120.83C147.93 122.14 150.68 122.09 153.04 122.54C153.99 122.74 154.64 123.14 154.95 124.15C155.2 125.1 154.9 125.86 154.2 126.51C152.8 127.77 151.44 129.07 150.04 130.33C149.39 130.88 149.19 131.43 149.34 132.29C149.69 134.15 149.89 136 150.19 137.86C150.34 138.81 150.29 139.82 149.44 140.42C148.59 141.02 147.78 140.47 146.98 140.07C144.92 139.12 143.02 137.01 140.81 137.26C138.7 137.51 136.75 139.07 134.74 140.12C133.79 140.62 132.83 141.12 131.78 140.37C130.95 139.9 130.85 139.25 130.85 138.65Z" fill="#101828"/>
<path d="M88.1099 139.6C88.6099 136.44 89.0599 133.63 89.5599 130.86C89.7099 129.91 89.5099 129.3 88.7599 128.6C86.6499 126.64 84.6999 124.58 82.4399 122.28C85.0499 121.93 87.3599 121.58 89.7099 121.38C91.7199 121.23 93.0699 120.53 93.8699 118.57C94.8699 116.21 96.1299 114 97.3799 111.49C98.8799 114.25 100.29 116.66 101.54 119.17C102.19 120.53 103.1 121.13 104.55 121.28C107.06 121.53 109.52 121.88 112.37 122.28C110.36 124.29 108.61 126.25 106.65 127.95C105.15 129.26 104.89 130.71 105.3 132.47C105.7 134.23 105.95 136.04 106.25 137.84C106.45 138.94 106.15 139.45 104.95 138.79C102.99 137.73 100.94 136.73 98.9799 135.63C97.9299 135.03 97.0199 135.08 95.9699 135.63C93.5299 136.94 91.0199 138.14 88.1099 139.6Z" fill="#FFCB7D"/>
<path d="M122.72 84.53C123.72 86.69 124.68 88.45 125.43 90.25C126.03 91.71 126.93 92.31 128.44 92.26C130.5 92.26 132.55 92.26 135.01 92.26C133.55 94.27 132.1 95.52 130.75 96.83C129.55 97.98 129.1 99.19 129.45 100.85C129.85 102.81 130.1 104.77 130.45 107.07C128.29 106.07 126.29 105.21 124.38 104.31C123.33 103.81 122.42 103.81 121.37 104.36C119.41 105.41 117.36 106.37 115.1 107.52C115.45 105.21 115.65 103.15 116.15 101.19C116.5 99.73 116.1 98.78 115.05 97.88C113.5 96.52 111.99 95.17 110.49 93.81C110.64 93.61 110.79 93.41 110.89 93.21C112.79 92.91 114.65 92.51 116.56 92.36C118.06 92.21 119.12 91.56 119.77 90.15C120.62 88.44 121.62 86.69 122.72 84.53Z" fill="#DBEAFE"/>
<path d="M145.09 135.03C141.58 131.87 138.42 132.92 135.11 135.28C136.62 131.26 135.71 128.2 132.05 125.84C136.31 125.74 139.52 124.48 140.38 119.66C141.53 123.78 143.84 126.09 148.4 125.63C145.49 128.15 143.54 130.81 145.09 135.03Z" fill="#FECDCA"/>
<path d="M128.65 246.21C124.68 251.5 119.27 253.09 112.92 252.82C110.28 252.69 107.63 252.82 104.99 252.82C94.6101 252.62 88.0701 246.01 88.0101 235.56C88.0101 216.58 88.0101 197.53 88.0101 178.54C88.0101 176.22 87.9401 173.91 88.2701 171.6C89.3901 163.99 95.6101 158.17 103.21 157.84C107.64 157.64 112.13 157.71 116.56 157.84C120.79 157.97 124.42 159.69 127.27 162.8C128.06 163.66 128.46 163.79 129.25 162.73C132.42 158.83 136.58 156.97 141.61 157.17C143.26 157.24 144.92 157.17 146.57 157.17C150.27 157.17 153.51 155.91 155.75 153.07C160.77 146.39 165.73 139.64 166.46 130.85C166.72 127.81 166.66 124.76 166.72 121.66C166.79 115.71 170.62 111.87 176.5 112C189.85 112.2 200.09 123.44 199.17 136.81C198.84 142.17 197.39 147.19 194.41 151.69C193.29 153.48 192.36 155.4 191.11 157.64C192.37 157.64 193.23 157.64 194.15 157.64C208.03 157.64 221.91 157.64 235.78 157.64C243.91 157.64 247.94 161.28 248.4 169.55C248.73 175.17 248 180.53 242.72 183.97C241.8 184.57 242.26 185.16 242.52 185.82C244.17 189.92 244.24 194.22 243.38 198.45C242.78 201.43 241.4 204.07 238.75 205.79C237.69 206.52 237.49 207.11 238.02 208.37C239.8 213 239.67 217.76 238.35 222.46C237.89 223.98 237.29 225.7 236.04 226.43C233 228.22 233.26 230.4 234.19 233.31C235.25 236.55 234.98 239.99 234.19 243.36C232.8 249.18 229.5 251.89 223.48 251.96C212.84 252.03 202.2 251.96 191.5 251.96C175.24 251.96 158.99 251.96 142.66 251.96C135.72 252.23 133.47 251.3 128.65 246.21Z" fill="#101828"/>
<path d="M181.85 247.2C168.24 247.2 154.62 247.2 140.94 247.2C137.24 247.2 134.4 245.88 132.42 242.7C131.69 241.58 131.43 240.32 131.43 238.93C131.69 216.31 131.76 193.62 131.43 171C131.36 166.3 135.2 162.53 140.35 162.33C143.65 162.2 146.96 162.66 150.2 161.93C154.63 160.94 158.06 158.62 160.51 154.85C164.41 148.76 168.77 142.88 170.29 135.54C171.15 131.37 171.15 127.21 171.15 122.97C171.15 118.41 173.26 116.62 177.69 117.35C193.22 119.93 196.99 136.07 190.51 147.58C188.59 151.02 186.48 154.39 184.5 157.83C182.65 161.01 183.77 162.86 187.41 162.86C203.67 162.86 219.92 162.86 236.25 162.86C240.94 162.86 242.33 164.18 243.12 168.81C243.45 170.99 243.38 173.11 242.92 175.23C242.26 178.74 240.47 180.19 236.91 180.19C230.9 180.19 224.88 180.19 218.8 180.19C218.2 180.19 217.68 180.19 217.08 180.19C215.36 180.19 214.37 181.12 214.37 182.77C214.37 184.42 215.43 185.22 217.14 185.22C221.9 185.22 226.72 185.15 231.48 185.22C236.63 185.29 238.22 186.81 238.49 192.03C238.56 193.68 238.56 195.34 238.36 196.99C237.9 200.89 236.05 202.48 232.15 202.48C226.07 202.48 219.92 202.55 213.84 202.48C211.99 202.48 210.4 202.81 210.34 204.99C210.27 207.24 211.86 207.57 213.71 207.57C218.8 207.64 223.95 207.37 229.04 207.7C231.35 207.83 232.74 209.02 233.4 211.07C234.39 214.38 234.39 217.75 233.4 221.06C232.61 223.57 230.89 224.76 228.18 224.76C222.63 224.69 217.14 224.76 211.59 224.76C211 224.76 210.4 224.76 209.87 224.76C208.22 224.89 207.23 225.75 207.29 227.41C207.36 229 208.35 229.73 209.87 229.79C214.63 229.92 219.45 229.72 224.21 229.99C227.05 230.12 228.37 231.64 229.04 234.09C229.7 236.67 229.77 239.32 229.24 241.96C228.38 245.93 226.99 247.12 222.96 247.12C209.27 247.2 195.59 247.2 181.85 247.2Z" fill="white"/>
<path d="M93.23 205.47C93.23 195.22 93.23 184.96 93.23 174.71C93.23 167.5 97.92 162.87 105.19 162.8C108.56 162.8 111.93 162.73 115.37 162.8C121.78 162.93 126.54 167.83 126.6 174.24C126.6 194.88 126.6 215.51 126.6 236.22C126.6 242.9 121.84 247.6 115.23 247.66C111.59 247.66 107.96 247.73 104.33 247.66C98.05 247.59 93.29 242.96 93.29 236.68C93.23 226.3 93.23 215.85 93.23 205.47Z" fill="#F04438"/>
<path d="M188.52 135.02C188.52 137 187.92 138.33 186.08 138.39C184.49 138.39 183.63 137.6 183.5 135.74C183.37 133.03 181.98 130.98 179.47 129.66C177.82 128.8 176.5 127.61 177.69 125.56C178.81 123.44 180.46 123.97 182.12 124.83C185.54 126.69 188.52 131.52 188.52 135.02Z" fill="#EAECF0"/>
<path d="M110.01 172.59C113.65 172.66 116.62 175.7 116.49 179.27C116.36 182.84 113.45 185.62 109.88 185.62C106.18 185.62 103.27 182.64 103.27 179C103.34 175.44 106.24 172.59 110.01 172.59Z" fill="#FEFEFE"/>
<path d="M98.2499 215.06C98.2499 213.34 98.2499 211.62 98.2499 209.9C98.2499 208.38 99.1099 207.19 100.5 207.12C102.09 207.12 103.27 208.11 103.21 209.96C103.21 213.27 103.21 216.57 103.21 219.82C103.21 221.54 102.48 222.8 100.63 222.73C98.8499 222.66 98.1199 221.54 98.1799 219.69C98.3799 218.17 98.2499 216.58 98.2499 215.06Z" fill="white"/>
<path d="M98.32 231.4C98.32 230.41 97.92 227.89 100.83 227.96C103.54 228.03 103.34 230.47 103.28 232.46C103.28 235.64 102.35 237.42 100.57 237.09C97.85 236.55 98.25 234.31 98.32 231.4Z" fill="white"/>
<path d="M264.26 105.56C264.06 108.66 263.48 111.72 262.55 114.63C260.26 121.71 256.02 127.92 250.03 133.11C246.42 136.21 242.24 138.74 237.51 140.63C236.83 140.92 236.29 141.12 235.81 140.92C234.1 140.34 232.35 139.56 230.31 138.49C223.49 134.85 217.99 129.86 213.99 123.5C211.6 119.76 209.9 115.69 208.92 111.37C208.24 108.36 207.94 105.11 207.94 100.84C207.94 96.5701 207.94 92.2501 207.94 87.9801C207.94 85.5501 207.94 83.1801 207.94 80.7501C207.94 80.4101 207.94 80.2201 207.99 80.1701C208.09 80.1701 208.23 80.1201 208.62 80.1201C209.11 80.1201 209.59 80.1701 210.13 80.2201C210.57 80.2701 211.1 80.3201 211.54 80.3201C213.59 80.3201 215.63 80.1701 217.68 79.8801C222.55 79.1501 227.08 77.6001 231.22 75.2701C232.97 74.2501 234.58 73.0901 235.75 72.2101C236.14 71.9201 236.14 71.9201 236.58 72.2101C236.68 72.2601 236.77 72.3601 236.87 72.4501C236.97 72.5001 237.07 72.6001 237.16 72.6401C239.6 74.4301 241.98 75.8401 244.32 76.9101C248.36 78.7001 252.6 79.8201 256.89 80.1601C257.18 80.1601 257.48 80.2101 257.77 80.2601C259.04 80.4101 260.35 80.5001 261.67 80.3101C262.21 80.2101 262.79 80.2601 263.37 80.2601C263.57 80.2601 263.76 80.2601 263.96 80.2601C264.15 80.2601 264.2 80.2601 264.3 80.3101C264.3 80.3601 264.35 80.4601 264.35 80.6501C264.35 80.8401 264.35 80.9901 264.35 81.1801V81.4201C264.35 81.9501 264.35 82.4901 264.35 82.9701C264.35 83.6001 264.35 84.2801 264.35 84.9601V93.6401L264.4 93.7401C264.4 94.9001 264.4 96.0201 264.4 97.1801C264.4 99.8401 264.45 102.75 264.26 105.56Z" fill="#FEEFC7"/>
<path d="M268.25 102.6C268.25 104.15 268.15 105.66 268.01 107.16C266.84 118.37 261.68 128.07 252.57 135.98C248.67 139.38 244.05 142.14 238.83 144.23C238.44 144.37 238.05 144.52 237.66 144.62C237.51 144.67 237.32 144.72 237.17 144.77L237.07 144.82H235.03L234.54 144.63C232.5 143.81 230.35 142.93 228.35 141.82C217.68 135.95 210.33 127.51 206.48 116.74C206.43 116.64 206.38 116.5 206.33 116.4C205.31 113.39 204.62 110.24 204.33 106.94C204.18 105.63 204.14 104.27 204.14 102.91C204.14 96.75 204.14 90.64 204.14 84.48V80.41C204.14 79.1 204.58 77.98 205.41 77.21C206.24 76.48 207.36 76.09 208.67 76.24C215.44 76.77 221.77 75.61 227.52 72.84C229.57 71.82 231.56 70.56 233.61 69.01C235.27 67.7 237.21 67.7 238.87 69.01C245.93 74.54 254.26 76.97 263.61 76.29C263.76 76.29 263.85 76.29 264 76.29C265.27 76.29 266.29 76.63 267.02 77.31C267.85 78.09 268.29 79.2 268.29 80.71V82.21C268.29 83.42 268.29 84.68 268.29 85.9C268.29 87.26 267.51 87.74 266.88 87.94C266.15 88.09 265.56 88.04 265.13 87.7C264.69 87.36 264.45 86.83 264.45 86.05C264.45 85.66 264.45 85.27 264.45 84.89C264.45 84.21 264.45 83.58 264.45 82.9C264.45 82.37 264.45 81.83 264.45 81.35V81.11C264.45 80.92 264.45 80.77 264.45 80.58C264.45 80.39 264.4 80.29 264.4 80.24C264.35 80.24 264.25 80.24 264.06 80.19C263.86 80.19 263.67 80.19 263.48 80.19C262.9 80.19 262.31 80.14 261.77 80.24C260.45 80.43 259.14 80.34 257.87 80.19C257.58 80.14 257.29 80.14 256.99 80.09C252.7 79.75 248.47 78.63 244.42 76.84C242.08 75.77 239.69 74.41 237.26 72.57C237.16 72.52 237.06 72.42 236.97 72.38C236.87 72.28 236.78 72.23 236.68 72.14C236.24 71.85 236.24 71.85 235.85 72.14C234.63 73.01 233.07 74.18 231.32 75.2C227.23 77.58 222.65 79.13 217.78 79.81C215.73 80.1 213.69 80.25 211.64 80.25C211.2 80.25 210.67 80.2 210.23 80.15C209.69 80.1 209.21 80.05 208.72 80.05C208.33 80.05 208.18 80.1 208.09 80.1C208.09 80.2 208.04 80.34 208.04 80.68C208.04 83.11 208.04 85.48 208.04 87.91C208.04 92.18 208.04 96.5 208.04 100.76C208.04 105.03 208.33 108.23 209.02 111.29C209.99 115.61 211.7 119.68 214.09 123.42C218.13 129.73 223.59 134.77 230.41 138.41C232.46 139.48 234.21 140.25 235.91 140.84C236.4 140.99 236.93 140.84 237.61 140.55C242.34 138.61 246.53 136.09 250.13 133.03C256.12 127.89 260.36 121.63 262.65 114.55C263.58 111.64 264.16 108.58 264.35 105.48C264.55 102.67 264.5 99.76 264.5 96.94C264.5 95.82 264.5 94.66 264.5 93.5C264.5 92.92 264.5 92.34 264.5 91.75V91.56C264.5 91.27 264.5 90.93 264.6 90.59C264.84 89.67 265.48 89.18 266.5 89.23H266.65L266.8 89.28C268.16 89.81 268.41 90.2 268.41 91.75V95.15C268.25 97.7 268.25 100.18 268.25 102.6Z" fill="#101828"/>
<path d="M237.9 107.26C237.41 107.07 237.22 106.73 237.31 106.24C237.41 105.71 237.85 105.61 238.33 105.61C244.08 105.61 249.83 105.61 255.52 105.61C255.72 105.61 255.96 105.66 256.15 105.66C256.49 105.95 256.73 106.29 256.49 106.78C256.29 107.22 255.9 107.31 255.51 107.31C249.69 107.26 243.79 107.26 237.9 107.26Z" fill="#101828"/>
<path d="M256.07 102.07C254.95 102.07 253.88 102.12 252.76 102.07C252.17 102.07 251.88 101.73 251.88 101.2C251.88 98.8199 251.88 96.4499 251.88 94.0699C251.88 93.4899 252.27 93.1499 252.9 93.1499C253.92 93.1499 254.95 93.1499 255.97 93.1499C256.8 93.6399 256.85 94.2699 256.07 94.8499C255.78 95.1399 255.39 94.9999 255.05 95.0399C254.9 95.0399 254.76 95.0399 254.61 95.0399C253.78 95.0399 253.78 95.0399 253.78 95.8599C253.78 96.5899 253.83 96.5899 254.56 96.6399C255.1 96.6899 255.68 96.4499 256.12 96.9299C256.51 97.3199 256.56 97.7499 256.22 98.2399C256.07 98.5299 255.78 98.6299 255.49 98.6799C255.2 98.7299 254.91 98.6799 254.61 98.6799C253.83 98.6799 253.49 99.2099 253.78 99.9399C253.88 100.13 254.02 100.18 254.17 100.18C254.61 100.18 255 100.18 255.44 100.18C255.73 100.18 256.02 100.23 256.22 100.47C256.8 101.1 256.75 101.53 256.07 102.07Z" fill="#101828"/>
<path d="M233.86 116.14C235.47 115.51 236.2 114.39 235.95 112.99C235.71 111.68 234.54 110.76 232.98 110.76C232.4 110.76 231.81 110.76 231.27 110.76C230.59 110.76 230.3 111.1 230.25 111.78C230.25 112.7 230.25 113.67 230.25 114.59C230.25 116 230.25 117.35 230.25 118.76C230.25 119.2 230.4 119.49 230.83 119.68C231.17 119.83 231.46 119.73 231.71 119.49C231.95 119.3 231.95 119 231.95 118.71V116.77C232.05 116.82 232.1 116.82 232.1 116.82C232.83 117.64 233.61 118.47 234.34 119.29C234.83 119.78 235.27 119.87 235.7 119.53C236.14 119.19 236.09 118.66 235.65 118.12C235.08 117.44 234.49 116.81 233.86 116.14ZM231.96 113.42C232.16 113.03 231.62 112.35 232.59 112.4C233.71 112.45 234.3 112.74 234.3 113.42C234.35 114.15 233.76 114.44 232.59 114.49C231.57 114.53 232.2 113.76 231.96 113.42Z" fill="#101828"/>
<path d="M222.56 97.6499C222.56 98.8099 222.56 99.9299 222.56 101.09C222.56 101.72 222.27 102.11 221.73 102.11C221.19 102.11 220.85 101.72 220.85 101.09C220.85 100.31 220.85 99.5399 220.85 98.7599C220.85 98.4699 220.8 98.3699 220.51 98.4199C219.63 98.4199 218.8 98.4199 217.93 98.4199C217.59 98.4199 217.54 98.5699 217.54 98.8599C217.54 99.6399 217.54 100.36 217.54 101.14C217.54 101.77 217.25 102.16 216.71 102.16C216.17 102.16 215.83 101.77 215.83 101.19C215.83 98.8599 215.83 96.5299 215.83 94.1999C215.83 93.5699 216.17 93.1799 216.71 93.2299C217.2 93.2299 217.54 93.6199 217.54 94.2499C217.54 94.9799 217.54 95.6599 217.54 96.3799C217.54 96.6699 217.64 96.7699 217.93 96.7699C218.81 96.7699 219.63 96.7699 220.51 96.7699C220.8 96.7699 220.85 96.6699 220.85 96.3799C220.85 95.6499 220.85 94.9699 220.85 94.2499C220.85 93.6199 221.19 93.1799 221.73 93.2299C222.22 93.2299 222.56 93.6199 222.56 94.2499C222.56 95.3199 222.56 96.4899 222.56 97.6499Z" fill="#101828"/>
<path d="M231.03 101C230.1 98.5699 229.18 96.1499 228.25 93.7699C228.1 93.3799 227.76 93.1899 227.32 93.1899C226.88 93.1899 226.54 93.3799 226.39 93.8199C226.24 94.1599 226.15 94.4999 226 94.8399C225.22 96.8299 224.44 98.8699 223.71 100.86C223.47 101.44 223.66 101.93 224.1 102.12C224.59 102.31 225.07 102.07 225.32 101.49C225.76 100.42 225.76 100.42 226.93 100.42C227.17 100.42 227.42 100.47 227.61 100.42C228.58 100.28 229.22 100.52 229.36 101.59C229.36 101.69 229.46 101.78 229.51 101.88C229.75 102.22 230.09 102.27 230.48 102.17C230.87 102.02 231.02 101.73 231.02 101.34C231.08 101.14 231.08 101.05 231.03 101ZM226.46 98.5699C226.75 97.7899 227.04 97.0199 227.39 96.0999C227.73 96.9699 228.02 97.7499 228.32 98.5699H226.46Z" fill="#101828"/>
<path d="M225.43 105.56C228.21 105.56 230.98 105.56 233.76 105.56C233.95 105.56 234.2 105.56 234.39 105.61C234.78 105.71 235.02 106 235.02 106.39C235.07 106.78 234.83 107.12 234.44 107.21C234.25 107.26 234 107.26 233.81 107.26C228.26 107.26 222.66 107.26 217.1 107.26C217 107.26 216.86 107.26 216.76 107.26C216.17 107.21 215.78 106.87 215.83 106.39C215.83 105.9 216.22 105.57 216.8 105.57C218.7 105.57 220.55 105.57 222.45 105.57C223.38 105.56 224.41 105.56 225.43 105.56Z" fill="#101828"/>
<path d="M235.17 102.11C234 102.11 232.98 101.72 232.15 100.9C231.71 100.51 231.66 99.9799 232 99.6399C232.34 99.2499 232.83 99.1999 233.32 99.6399C233.95 100.22 234.68 100.46 235.51 100.37C236 100.27 236.39 100.03 236.48 99.5499C236.58 99.0599 236.14 98.8199 235.75 98.6299C235.16 98.3899 234.58 98.1899 234 97.9499C232.68 97.4199 232 96.4899 232.2 95.3799C232.39 94.1699 233.37 93.2899 234.78 93.1999C235.85 93.0999 236.78 93.4899 237.6 94.1199C238.04 94.4099 238.09 94.8999 237.84 95.2799C237.6 95.6699 237.06 95.8099 236.62 95.5199C236.23 95.2799 235.79 95.0299 235.3 94.9899C234.91 94.9399 234.52 94.9899 234.18 95.1799C233.69 95.5199 233.74 95.9999 234.28 96.2499C234.82 96.4899 235.35 96.6899 235.89 96.8799C236.04 96.9299 236.13 96.9799 236.28 97.0299C237.74 97.6599 238.42 98.7299 238.18 99.9899C237.9 101.24 236.64 102.16 235.17 102.11Z" fill="#101828"/>
<path d="M242.19 102.11C241.07 102.06 240.05 101.67 239.27 100.85C238.88 100.46 238.83 99.9799 239.22 99.5899C239.56 99.1999 240.05 99.1999 240.49 99.6399C241.12 100.22 241.85 100.51 242.68 100.37C243.17 100.32 243.56 100.08 243.65 99.5499C243.75 99.0199 243.36 98.8199 242.92 98.6299C242.24 98.3399 241.56 98.0999 240.92 97.8099C239.8 97.3199 239.26 96.4999 239.36 95.4799C239.46 94.4099 240.19 93.5399 241.31 93.2999C242.58 92.9599 243.7 93.2999 244.72 94.0299C245.21 94.3699 245.26 94.8499 244.96 95.2899C244.67 95.6799 244.18 95.7799 243.74 95.4399C243.35 95.1999 242.96 94.9999 242.52 94.9099C242.13 94.8099 241.79 94.8599 241.45 95.0599C241.21 95.2099 241.06 95.3999 241.06 95.6899C241.06 95.9799 241.25 96.1299 241.5 96.2199C242.23 96.5099 242.91 96.7499 243.64 97.0899C244.66 97.5799 245.39 98.2999 245.39 99.4699C245.4 101 243.94 102.21 242.19 102.11Z" fill="#101828"/>
<path d="M237.12 115.21C237.12 114.05 237.12 112.93 237.12 111.77C237.12 111.04 237.41 110.7 238.14 110.7C239.07 110.7 240.04 110.7 240.96 110.7C241.59 110.7 241.94 110.99 241.94 111.52C241.94 112.05 241.6 112.39 240.96 112.39C240.38 112.39 239.79 112.39 239.16 112.39C238.87 112.39 238.82 112.49 238.82 112.73C238.77 114.33 238.72 114.33 240.33 114.33C240.52 114.33 240.67 114.33 240.87 114.33C241.41 114.38 241.7 114.72 241.7 115.16C241.7 115.65 241.41 115.98 240.87 116.03C240.33 116.08 239.75 116.08 239.21 116.03C238.92 116.03 238.82 116.13 238.82 116.42C238.77 117.92 238.77 117.92 240.28 117.92C240.57 117.92 240.87 117.92 241.16 117.92C241.65 117.97 241.94 118.26 241.94 118.74C241.99 119.18 241.65 119.61 241.16 119.61C240.09 119.66 239.02 119.66 237.95 119.61C237.41 119.61 237.12 119.22 237.12 118.64C237.12 117.54 237.12 116.38 237.12 115.21Z" fill="#101828"/>
<path d="M243.06 115.17C243.06 114 243.06 112.89 243.06 111.73C243.06 111 243.35 110.71 244.08 110.71C245.01 110.71 245.98 110.71 246.91 110.71C247.54 110.71 247.93 111.05 247.93 111.58C247.93 112.07 247.54 112.41 246.91 112.45C246.37 112.45 245.84 112.45 245.3 112.45C244.96 112.45 244.81 112.5 244.81 112.94C244.81 114.44 244.81 114.44 246.27 114.44C246.46 114.44 246.61 114.44 246.81 114.44C247.35 114.49 247.69 114.83 247.69 115.31C247.69 115.79 247.35 116.14 246.81 116.18C246.27 116.23 245.79 116.23 245.25 116.18C244.96 116.18 244.81 116.23 244.81 116.57C244.76 118.03 244.76 118.03 246.22 118.03C246.51 118.03 246.8 118.03 247.1 118.03C247.59 118.08 247.98 118.42 247.93 118.85C247.88 119.34 247.64 119.67 247.15 119.67C246.08 119.72 244.96 119.72 243.89 119.67C243.35 119.67 243.11 119.28 243.11 118.7C243.06 117.54 243.06 116.33 243.06 115.17Z" fill="#101828"/>
<path d="M224.51 115.17C224.51 114.05 224.51 112.94 224.51 111.82C224.51 111.04 224.8 110.75 225.58 110.71C226.46 110.71 227.33 110.71 228.21 110.71C228.89 110.71 229.23 111 229.23 111.53C229.23 112.06 228.89 112.4 228.21 112.4C227.67 112.4 227.14 112.4 226.6 112.4C226.31 112.4 226.26 112.5 226.26 112.79C226.16 114.29 226.16 114.29 227.67 114.29C227.77 114.29 227.87 114.29 227.96 114.29C228.64 114.29 228.98 114.63 228.98 115.16C228.98 115.69 228.59 115.98 227.91 115.98C227.52 115.98 227.08 116.03 226.69 115.98C226.25 115.93 226.2 116.13 226.2 116.51C226.25 117.19 226.2 117.87 226.2 118.55C226.2 119.28 225.86 119.67 225.32 119.67C224.78 119.67 224.49 119.23 224.44 118.55C224.51 117.4 224.51 116.28 224.51 115.17Z" fill="#101828"/>
<path d="M248.23 97.0699C248.23 97.9899 248.28 98.9099 248.23 99.8399C248.18 100.37 248.43 100.52 248.86 100.42C249.15 100.37 249.49 100.42 249.79 100.42C250.42 100.47 250.81 100.81 250.76 101.29C250.76 101.78 250.37 102.11 249.79 102.11C249.01 102.11 248.18 102.11 247.35 102.11C246.77 102.11 246.47 101.82 246.47 101.29C246.47 98.8599 246.47 96.4899 246.47 94.0599C246.47 93.5299 246.86 93.1899 247.3 93.1899C247.79 93.1899 248.13 93.5299 248.18 94.0599C248.23 95.0299 248.23 96.0499 248.23 97.0699Z" fill="#101828"/>
</svg>
