<svg width="350" height="338" viewBox="0 0 350 338" fill="none" xmlns="http://www.w3.org/2000/svg">
<g opacity="0.2">
<path d="M169 311C90.7 311 27 247.3 27 169C27 90.7 90.7 27 169 27C247.3 27 311 90.7 311 169C311 247.3 247.3 311 169 311ZM169 29C91.8 29 29 91.8 29 169C29 246.2 91.8 309 169 309C246.2 309 309 246.2 309 169C309 91.8 246.2 29 169 29Z" fill="#98D3FF"/>
<path d="M169 338C75.81 338 0 262.19 0 169C0 75.81 75.81 0 169 0C262.19 0 338 75.81 338 169C338 262.19 262.19 338 169 338ZM169 2C76.92 2 2 76.92 2 169C2 261.08 76.92 336 169 336C261.08 336 336 261.08 336 169C336 76.92 261.08 2 169 2Z" fill="#61ADF3"/>
<path d="M169 284C105.59 284 54 232.41 54 169C54 105.59 105.59 54 169 54C232.41 54 284 105.59 284 169C284 232.41 232.41 284 169 284ZM169 56C106.69 56 56 106.69 56 169C56 231.31 106.69 282 169 282C231.31 282 282 231.31 282 169C282 106.69 231.31 56 169 56Z" fill="white"/>
<path d="M169 219C196.614 219 219 196.614 219 169C219 141.386 196.614 119 169 119C141.386 119 119 141.386 119 169C119 196.614 141.386 219 169 219Z" fill="white"/>
<path d="M169 249C124.89 249 89 213.11 89 169C89 124.89 124.89 89 169 89C213.11 89 249 124.89 249 169C249 213.11 213.11 249 169 249ZM169 149C157.97 149 149 157.97 149 169C149 180.03 157.97 189 169 189C180.03 189 189 180.03 189 169C189 157.97 180.03 149 169 149Z" fill="#EEEEEE"/>
<path d="M223 304C225.761 304 228 301.761 228 299C228 296.239 225.761 294 223 294C220.239 294 218 296.239 218 299C218 301.761 220.239 304 223 304Z" fill="#2A8CF8"/>
<path d="M223 305C219.69 305 217 302.31 217 299C217 295.69 219.69 293 223 293C226.31 293 229 295.69 229 299C229 302.31 226.31 305 223 305ZM223 295C220.79 295 219 296.79 219 299C219 301.21 220.79 303 223 303C225.21 303 227 301.21 227 299C227 296.79 225.21 295 223 295Z" fill="#98D3FF"/>
<path d="M32 139C34.7614 139 37 136.761 37 134C37 131.239 34.7614 129 32 129C29.2386 129 27 131.239 27 134C27 136.761 29.2386 139 32 139Z" fill="#2A8CF8"/>
<path d="M32 140C28.69 140 26 137.31 26 134C26 130.69 28.69 128 32 128C35.31 128 38 130.69 38 134C38 137.31 35.31 140 32 140ZM32 130C29.79 130 28 131.79 28 134C28 136.21 29.79 138 32 138C34.21 138 36 136.21 36 134C36 131.79 34.21 130 32 130Z" fill="#98D3FF"/>
<path d="M84 98C86.7614 98 89 95.7614 89 93C89 90.2386 86.7614 88 84 88C81.2386 88 79 90.2386 79 93C79 95.7614 81.2386 98 84 98Z" fill="#2C8EF9"/>
<path d="M84 99C80.69 99 78 96.31 78 93C78 89.69 80.69 87 84 87C87.31 87 90 89.69 90 93C90 96.31 87.31 99 84 99ZM84 89C81.79 89 80 90.79 80 93C80 95.21 81.79 97 84 97C86.21 97 88 95.21 88 93C88 90.79 86.21 89 84 89Z" fill="white"/>
<path d="M274 217C276.761 217 279 214.761 279 212C279 209.239 276.761 207 274 207C271.239 207 269 209.239 269 212C269 214.761 271.239 217 274 217Z" fill="#2C8EF9"/>
<path d="M274 218C270.69 218 268 215.31 268 212C268 208.69 270.69 206 274 206C277.31 206 280 208.69 280 212C280 215.31 277.31 218 274 218ZM274 208C271.79 208 270 209.79 270 212C270 214.21 271.79 216 274 216C276.21 216 278 214.21 278 212C278 209.79 276.21 208 274 208Z" fill="white"/>
<path d="M254 62C256.761 62 259 59.7614 259 57C259 54.2386 256.761 52 254 52C251.239 52 249 54.2386 249 57C249 59.7614 251.239 62 254 62Z" fill="#2A8CF8"/>
<path d="M254 63C250.69 63 248 60.31 248 57C248 53.69 250.69 51 254 51C257.31 51 260 53.69 260 57C260 60.31 257.31 63 254 63ZM254 53C251.79 53 250 54.79 250 57C250 59.21 251.79 61 254 61C256.21 61 258 59.21 258 57C258 54.79 256.21 53 254 53Z" fill="#98D3FF"/>
</g>
<path d="M147 48C158.046 48 167 39.0457 167 28C167 16.9543 158.046 8 147 8C135.954 8 127 16.9543 127 28C127 39.0457 135.954 48 147 48Z" fill="white"/>
<path d="M147 48C135.97 48 127 39.03 127 28C127 16.97 135.97 8 147 8C158.03 8 167 16.97 167 28C167 39.03 158.03 48 147 48ZM147 10C137.07 10 129 18.07 129 28C129 37.93 137.07 46 147 46C156.93 46 165 37.93 165 28C165 18.07 156.93 10 147 10Z" fill="#B2DDFF"/>
<path d="M156.89 24.63C157.05 28.53 155.94 32.01 153.48 35.04C152.43 36.34 151.19 37.41 149.77 38.29C147.91 39.43 146.04 39.44 144.18 38.29C141.92 36.9 140.17 35.06 138.89 32.73C138.78 32.52 138.69 32.26 138.7 32.03C138.72 31.67 138.97 31.43 139.34 31.37C139.74 31.3 140 31.51 140.22 31.83C140.87 32.77 141.44 33.77 142.21 34.58C143.04 35.47 144.04 36.22 145.04 36.91C146.29 37.77 147.62 37.75 148.89 36.92C153 34.26 155.14 30.48 155.32 25.58C155.36 24.58 155.33 23.58 155.33 22.58C155.33 21.86 155.06 21.61 154.33 21.59C151.93 21.54 149.65 20.99 147.55 19.79C147.14 19.55 146.78 19.55 146.37 19.79C144.28 20.99 142 21.55 139.59 21.59C138.85 21.6 138.59 21.85 138.59 22.58C138.59 23.84 138.61 25.1 138.64 26.38C138.65 27.05 138.4 27.43 137.88 27.44C137.37 27.45 137.07 27.13 137.06 26.48C137.03 25.12 136.98 23.77 137.01 22.41C137.03 20.97 138.03 20.03 139.45 20.01C141.69 19.99 143.79 19.46 145.74 18.34C146.53 17.89 147.35 17.87 148.14 18.32C150.16 19.48 152.34 20.01 154.65 20.03C155.78 20.04 156.76 20.9 156.87 22.04C156.95 22.92 156.89 23.78 156.89 24.63Z" fill="#1570EF"/>
<path d="M144.06 25.39C144.21 24.88 144.27 24.4 144.47 23.99C144.84 23.23 145.5 22.8 146.36 22.73C146.48 22.72 146.61 22.72 146.73 22.71C148.5 22.57 149.68 23.42 149.8 25.38C150.63 25.39 151.38 25.63 151.93 26.32C152.47 26.98 152.48 27.76 152.45 28.54C152.4 30.01 151.57 30.81 149.78 31.04C149.77 31.16 149.77 31.3 149.76 31.44C149.65 32.73 148.68 33.65 147.39 33.7C147.13 33.71 146.87 33.71 146.59 33.7C145.26 33.66 144.27 32.71 144.17 31.39C144.16 31.28 144.16 31.18 144.14 31.05C143.83 31 143.52 30.99 143.23 30.9C142.28 30.61 141.69 29.98 141.52 28.99C141.45 28.55 141.45 28.09 141.48 27.64C141.58 26.42 142.41 25.58 143.62 25.42C143.8 25.42 143.96 25.4 144.06 25.39ZM146.96 32.11C147.94 32.11 148.17 31.89 148.17 30.9C148.17 30.7 148.17 30.5 148.17 30.29C148.18 29.7 148.47 29.42 149.07 29.4C149.33 29.4 149.59 29.4 149.87 29.4C150.55 29.39 150.84 29.13 150.85 28.44C150.85 28.27 150.86 28.1 150.85 27.93C150.83 27.31 150.54 27.02 149.93 26.99C149.59 26.98 149.25 27 148.91 26.98C148.46 26.94 148.21 26.67 148.17 26.22C148.16 26.07 148.17 25.91 148.17 25.76C148.17 24.44 147.98 24.25 146.65 24.31C146.06 24.33 145.79 24.62 145.77 25.22C145.76 25.53 145.77 25.84 145.77 26.16C145.75 26.68 145.48 26.96 144.96 26.98C144.64 26.99 144.3 26.94 143.99 27C143.73 27.05 143.31 27.2 143.27 27.37C143.17 27.88 143.12 28.46 143.23 28.96C143.34 29.45 143.88 29.4 144.3 29.4C145.7 29.4 145.78 29.49 145.78 30.87C145.76 31.89 145.98 32.11 146.96 32.11Z" fill="#1570EF"/>
<path d="M234 266H62C60.34 266 59 264.66 59 263C59 261.34 60.34 260 62 260H234C235.66 260 237 261.34 237 263C237 264.66 235.66 266 234 266Z" fill="#101828"/>
<path d="M99.78 151.44C97.42 150.79 97 150.23 97 147.77C97 133.37 97 119.02 97 104.62C97 99.6499 99.92 96.7199 104.83 96.7199C125.87 96.7199 146.97 96.7199 168.01 96.7199C169.63 96.7199 171.02 96.9999 171.39 98.8999C171.85 100.62 171.25 101.78 169.49 102.29C168.47 102.61 167.4 102.52 166.38 102.52C146.59 102.52 126.75 102.52 106.95 102.52C102.83 102.52 102.73 102.61 102.73 106.65C102.73 109.16 102.78 111.67 102.73 114.13C102.73 115.48 103.29 116.03 104.58 115.99C105.23 115.94 105.83 115.99 106.48 115.99C132.39 115.99 158.26 115.99 184.17 115.99C184.91 115.99 185.65 115.94 186.44 116.04C188.06 115.99 189.68 115.99 191.26 116.04C192.47 116.04 193.07 115.67 193.07 114.37C193.02 111.31 193.12 108.24 193.02 105.17C192.97 103.08 192.37 102.52 190.28 102.48C188.94 102.43 187.64 102.48 186.29 102.43C184.57 102.48 182.81 102.57 181.1 102.34C178.88 102.06 177.99 100.81 178.55 98.8099C178.88 97.2299 179.94 96.6699 181.47 96.6699C184.76 96.6699 188.05 96.6699 191.39 96.6699C195.28 96.7199 198.16 99.3199 198.67 103.22C198.76 103.96 198.76 104.71 198.76 105.5C198.76 129.74 198.76 154.03 198.71 178.28C198.71 179.81 199.04 180.32 200.66 180.28C223.23 180.23 245.86 180.28 268.43 180.19C271.58 180.19 273.76 181.17 274.97 184.14C274.97 206.43 274.97 228.73 274.97 251.02C273.81 253.95 271.63 255.06 268.48 254.97C262.78 254.83 257.08 254.88 251.38 254.92C249.53 254.92 248.41 254.27 248.13 252.37C247.57 250.93 248.45 250.19 249.47 249.58C250.21 249.12 251.09 249.07 251.97 249.07C255.96 249.07 259.94 249.02 263.88 249.07C265.04 248.98 266.2 249.02 267.36 249.02C268.56 249.02 269.21 248.56 269.17 247.3C269.17 246.79 269.17 246.28 269.17 245.72C269.17 226.91 269.17 208.05 269.17 189.24C269.17 189.05 269.17 188.92 269.17 188.73C269.17 186.13 269.08 186.08 266.57 186.04C265.64 186.04 264.72 186.09 263.79 185.99C261.98 186.08 260.22 186.04 258.41 186.04C236.16 186.04 213.91 186.04 191.66 186.04C188.55 186.04 188.55 186.04 188.55 189.06C188.55 208.06 188.55 227 188.55 246C188.55 246.19 188.55 246.32 188.55 246.51C188.55 248.83 188.64 248.97 191.01 248.97C206.03 248.97 221 248.97 236.02 248.97C237.04 248.97 238.11 248.92 239.13 249.25C240.71 249.76 241.36 250.69 241.22 252.32C240.85 254.22 239.64 254.92 237.7 254.87C225.32 254.82 212.9 254.87 200.52 254.82C198.94 254.82 198.62 255.24 198.62 256.77C198.67 262.07 195.75 264.9 190.46 264.9C161.95 264.9 133.45 264.9 104.94 264.9C99.92 265 97 262.12 97 256.92C97 225.24 97 193.52 97 161.85C97 160.18 97.37 158.88 99.13 158.32C101.03 157.95 102.14 158.6 102.61 160.41C102.89 161.43 102.79 162.5 102.79 163.52C102.79 187.67 102.79 211.82 102.79 235.97C102.79 239.36 102.79 239.36 106.08 239.36C130.42 239.36 154.75 239.36 179.09 239.36C182.33 239.36 182.33 239.36 182.33 236.06C182.33 219.48 182.33 202.85 182.33 186.27C182.33 182.69 183.44 181.11 186.64 179.95C188.03 179.67 189.42 179.81 190.81 179.76C192.85 179.71 193.04 179.53 193.08 177.44C193.08 177.12 193.08 176.74 193.08 176.42C193.08 159.47 193.08 142.56 193.08 125.61C193.08 125.15 193.03 124.68 193.08 124.22C193.13 122.97 192.52 122.41 191.32 122.41C189.37 122.41 187.38 122.32 185.43 122.32C158.82 122.32 132.17 122.32 105.56 122.32C104.73 122.32 103.8 122.04 103.1 122.83C102.64 123.57 102.77 124.41 102.77 125.2C102.77 132.45 102.77 139.64 102.77 146.89C102.77 147.77 102.86 148.65 102.54 149.49C102.1 150.75 101.4 151.77 99.78 151.44Z" fill="#101828"/>
<path d="M186.7 180.29C183.83 181.36 182.71 183.4 182.71 186.47C182.76 203.61 182.71 220.7 182.8 237.84C182.8 239.51 182.29 239.79 180.76 239.79C155.22 239.74 129.68 239.74 104.14 239.79C102.47 239.79 102.19 239.28 102.19 237.75C102.24 212.44 102.24 187.13 102.24 161.81C102.24 159.16 101.54 158.42 99.1299 158.23C99.6899 157.81 99.8299 157.3 99.8299 156.61C99.7799 154.85 99.8299 153.08 99.8299 151.32C101.68 150.81 102.33 149.6 102.29 147.7C102.24 139.76 102.24 131.86 102.29 123.92C102.29 123.27 102.34 122.67 102.38 122.02C102.98 121.69 103.63 121.88 104.23 121.88C131.07 121.88 157.95 121.88 184.79 121.88C187.11 121.88 187.29 122.02 187.29 124.3C187.29 142.18 187.29 160.02 187.29 177.9C187.25 178.8 187.34 179.63 186.7 180.29Z" fill="white"/>
<path d="M263.92 249.67C259.79 249.72 255.67 249.72 251.5 249.76C249.37 249.76 248.63 250.36 248.16 252.45C245.89 252.45 243.62 252.45 241.3 252.45C240.61 250.22 240 249.76 237.5 249.76C221.69 249.76 205.89 249.71 190.08 249.81C188.27 249.81 187.95 249.3 187.95 247.63C188 227.61 188 207.59 187.95 187.58C187.95 186.09 188.18 185.54 189.85 185.54C214 185.59 238.15 185.59 262.3 185.59C262.81 185.59 263.32 185.64 263.88 185.64C264.48 186.29 264.44 187.13 264.44 187.96C264.44 207.79 264.44 227.62 264.44 247.41C264.48 248.14 264.48 248.98 263.92 249.67Z" fill="#FEF0C7"/>
<path d="M178.63 98.8701C178.72 101.15 179.51 101.94 181.74 101.98C183.27 102.03 184.8 102.03 186.33 102.03C186.98 102.54 187.21 103.24 187.21 103.98C187.26 107.65 187.26 111.32 187.21 114.99C187.21 115.59 187.07 116.15 186.7 116.57C186.14 116.57 185.54 116.62 184.99 116.62C158.1 116.62 131.22 116.62 104.38 116.67C102.62 116.67 102.11 116.21 102.2 114.49C102.34 111.29 102.25 108.13 102.25 104.92C102.25 102.46 102.76 101.95 105.17 101.95C126.08 101.95 146.98 101.95 167.89 101.95C170.53 101.95 171.37 101.25 171.46 98.8801C173.86 99.4701 176.27 99.5201 178.63 98.8701Z" fill="#DBEAFE"/>
<path d="M236.11 88C251.96 88.09 263.32 99.05 264.15 113.4C264.94 126.78 254.65 138.94 241.25 140.66C236.89 141.22 232.72 140.75 228.64 139.22C227.67 138.85 226.93 138.94 226.04 139.36C223.77 140.47 221.4 141.5 219.13 142.56C217.55 143.3 215.98 143.4 214.59 142.23C213.11 141.02 212.92 139.44 213.43 137.68C214.12 135.22 214.64 132.71 215.33 130.3C215.61 129.32 215.42 128.58 214.96 127.7C210.14 118.88 210 109.91 215.01 101.18C219.98 92.46 227.9 88.33 236.11 88Z" fill="#101828"/>
<path d="M186.37 259.7C186.05 259.7 185.67 259.75 185.35 259.75C158.6 259.75 131.81 259.75 105.07 259.75C102.89 259.75 102.29 259.15 102.29 256.96C102.29 253.62 102.38 250.23 102.24 246.88C102.19 245.3 102.7 244.98 104.19 244.98C125.05 245.03 145.91 245.03 166.77 245.03C171.5 245.03 176.27 245.08 181 244.98C182.39 244.98 183.09 245.26 182.85 246.79C182.76 247.49 182.9 248.18 182.8 248.88C182.57 251.9 183.91 253.9 186.69 254.92C187.48 256.59 187.62 258.17 186.37 259.7Z" fill="#DBEAFE"/>
<path d="M186.7 180.29C186.7 161.62 186.7 142.95 186.75 124.28C186.75 122.61 186.33 122.14 184.66 122.14C157.22 122.19 129.78 122.19 102.33 122.14C102.79 121.58 103.4 121.86 103.91 121.86C133.21 121.86 162.5 121.86 191.8 121.81C193.28 121.81 193.61 122.23 193.61 123.67C193.56 141.92 193.56 160.22 193.61 178.48C193.61 179.97 193.15 180.34 191.76 180.24C190.08 180.19 188.41 180.29 186.7 180.29Z" fill="#EAECF0"/>
<path d="M263.92 249.67C263.92 228.31 263.92 206.94 263.92 185.58C265.82 185.49 268.18 184.79 269.48 185.81C270.64 186.69 269.81 189.2 269.81 190.96C269.86 209.96 269.81 228.95 269.86 247.95C269.86 249.34 269.58 249.95 268.1 249.76C266.7 249.63 265.27 249.67 263.92 249.67Z" fill="#FEDF89"/>
<path d="M186.7 116.61C186.7 112.57 186.7 108.57 186.7 104.53C186.7 103.65 186.61 102.81 186.33 102.02C187.95 102.02 189.57 101.97 191.2 101.97C192.59 101.92 193.47 102.67 193.52 104.01C193.61 107.96 193.57 111.86 193.61 115.81C193.61 116.65 193.05 116.69 192.45 116.69C190.54 116.61 188.64 116.61 186.7 116.61Z" fill="#B2DDFF"/>
<path d="M186.37 259.7C186.97 258.12 186.65 256.5 186.69 254.92C188.31 254.92 189.93 254.87 191.56 254.92C192.44 254.97 193.6 254.5 193.65 256.17C193.7 258.49 193.19 259.65 191.56 259.7C189.8 259.8 188.09 259.7 186.37 259.7Z" fill="#B2DDFF"/>
<path d="M147.9 171.32C146.28 171.32 144.65 171.37 143.03 171.32C140.57 171.27 139.14 169.88 139.14 167.42C139.09 165.24 139.09 163.01 139.14 160.82C139.19 159.8 138.91 159.38 137.8 159.43C135.67 159.52 133.53 159.48 131.36 159.43C128.62 159.38 127.28 158.04 127.28 155.39C127.23 152.18 127.23 149.03 127.28 145.82C127.33 143.31 128.62 141.97 131.13 141.87C133.21 141.78 135.3 141.78 137.39 141.87C138.69 141.92 139.25 141.64 139.15 140.2C139.01 138.16 139.1 136.16 139.1 134.12C139.15 131.43 140.45 130.03 143.13 129.99C146.33 129.94 149.53 129.94 152.68 129.99C155.28 130.04 156.62 131.43 156.67 134.03C156.72 135.98 156.81 137.98 156.62 139.93C156.48 141.65 157.13 141.97 158.66 141.88C160.51 141.74 162.37 141.83 164.22 141.88C167.14 141.93 168.48 143.27 168.53 146.15C168.58 149.17 168.58 152.19 168.53 155.21C168.48 158.09 167.14 159.44 164.27 159.48C162.18 159.48 160.1 159.57 158.01 159.48C156.9 159.43 156.67 159.85 156.67 160.87C156.76 162.96 156.72 165.05 156.67 167.14C156.62 170.02 155.28 171.32 152.36 171.37C150.91 171.37 149.38 171.32 147.9 171.32Z" fill="#101828"/>
<path d="M147.76 196.22C140.95 196.22 134.09 196.22 127.27 196.22C123.42 196.22 121.99 194.78 121.99 191.02C121.99 189.53 121.94 188 121.99 186.51C122.04 184.98 123.01 183.95 124.4 183.86C125.88 183.77 127 184.79 127.14 186.42C127.23 187.54 127.23 188.65 127.14 189.72C127.05 190.84 127.51 191.07 128.53 191.07C141.37 191.02 154.26 191.02 167.1 191.07C168.35 191.07 168.68 190.65 168.58 189.49C168.49 188.47 168.53 187.4 168.58 186.38C168.67 184.89 169.55 184.06 170.99 183.92C172.38 183.78 173.63 184.8 173.73 186.29C173.82 188.38 173.87 190.47 173.73 192.56C173.54 194.93 171.78 196.27 169.09 196.32C165.75 196.37 162.37 196.32 159.03 196.32C155.31 196.22 151.56 196.22 147.76 196.22Z" fill="#101828"/>
<path d="M147.85 220.18C141.13 220.18 134.41 220.18 127.69 220.18C123.24 220.18 121.99 218.97 121.99 214.56C121.99 213.21 121.94 211.91 121.99 210.57C122.04 208.9 123.06 207.88 124.49 207.83C125.97 207.83 127.04 208.81 127.13 210.48C127.22 211.41 127.22 212.34 127.13 213.27C126.99 214.52 127.32 215.03 128.75 215.03C141.5 214.98 154.24 214.98 166.99 215.03C168.34 215.03 168.7 214.66 168.57 213.36C168.48 212.38 168.52 211.41 168.57 210.39C168.66 208.86 169.68 207.88 171.07 207.84C172.46 207.79 173.67 208.77 173.71 210.3C173.8 212.34 173.85 214.39 173.71 216.39C173.52 218.8 171.81 220.2 168.98 220.2C163 220.25 157.07 220.2 151.09 220.2C150.07 220.18 148.96 220.18 147.85 220.18Z" fill="#101828"/>
<path d="M211.26 237.41C208.29 237.41 205.37 237.41 202.41 237.41C199.12 237.36 197.36 235.74 197.31 232.39C197.22 228.58 197.03 224.73 199.02 221.2C200.37 218.83 200.6 216.46 199.95 213.77C198.65 208.52 200.92 203.23 205.61 200.53C210.11 197.98 215.9 198.77 219.56 202.34C223.36 206.06 224.24 211.68 221.69 216.41C221.23 217.29 221.18 217.8 221.88 218.64C224.24 221.29 225.4 224.45 225.4 228.02C225.4 229.51 225.4 231.04 225.4 232.53C225.35 235.6 223.64 237.36 220.53 237.36C217.43 237.46 214.32 237.41 211.26 237.41Z" fill="#101828"/>
<path d="M245.84 224.5C249.64 224.5 253.49 224.5 257.29 224.5C259.24 224.5 260.35 225.43 260.4 227.01C260.45 228.64 259.29 229.7 257.25 229.7C249.65 229.7 242.09 229.7 234.49 229.7C232.5 229.7 231.25 228.63 231.29 227.05C231.29 225.47 232.5 224.5 234.54 224.5C238.33 224.5 242.09 224.5 245.84 224.5Z" fill="#101828"/>
<path d="M239.82 210.71C237.92 210.71 236.02 210.76 234.12 210.71C232.5 210.66 231.38 209.69 231.34 208.25C231.29 206.86 232.36 205.6 233.94 205.56C237.93 205.47 241.91 205.47 245.9 205.56C247.48 205.61 248.59 206.86 248.54 208.25C248.49 209.69 247.43 210.71 245.76 210.76C243.76 210.75 241.76 210.71 239.82 210.71Z" fill="#101828"/>
<path d="M241.3 135.33C237.36 136.21 233.56 135.61 229.9 134.17C228.05 133.43 226.33 133.43 224.57 134.31C222.81 135.19 221 135.94 218.96 136.87C219.52 134.69 219.98 132.69 220.54 130.69C221.05 128.97 220.82 127.44 219.89 125.86C211.69 112.16 219.33 95.8099 235.09 93.3999C237.13 93.0699 239.26 93.0699 241.3 93.6299C245.52 95.3499 248.35 98.6499 250.52 102.45C256.27 112.53 254.28 125.21 245.14 133.01C243.99 134.03 242.74 134.86 241.3 135.33Z" fill="white"/>
<path d="M241.3 135.33C246.63 131.85 250.76 127.34 252.38 121.03C254.51 112.62 252.94 104.96 247 98.4099C245.33 96.5499 243.38 95.0199 241.35 93.6299C249.65 94.6499 256.74 101.62 258.59 110.68C260.86 122 252.66 133.75 241.3 135.33Z" fill="#EAECF0"/>
<path d="M144.28 140.2C144.28 138.85 144.33 137.51 144.28 136.21C144.23 135.47 144.56 135.19 145.3 135.19C146.97 135.24 148.68 135.24 150.35 135.19C151.28 135.14 151.56 135.56 151.51 136.44C151.46 138.76 151.46 141.08 151.51 143.41C151.56 145.87 152.67 147.03 155.13 147.13C157.45 147.22 159.76 147.18 162.08 147.13C163.05 147.13 163.42 147.46 163.38 148.43C163.33 150.01 163.33 151.59 163.38 153.12C163.43 154.05 163.06 154.33 162.17 154.28C159.9 154.23 157.67 154.23 155.4 154.28C152.76 154.33 151.55 155.49 151.55 158.09C151.5 160.27 151.5 162.5 151.55 164.68C151.6 165.84 151.18 166.17 150.07 166.12C148.59 166.03 147.06 166.03 145.57 166.12C144.55 166.17 144.32 165.75 144.32 164.82C144.37 162.54 144.37 160.31 144.32 158.04C144.27 155.58 143.02 154.28 140.56 154.28C138.29 154.23 136.02 154.23 133.79 154.28C132.86 154.28 132.4 154.14 132.45 153.07C132.54 151.49 132.54 149.91 132.45 148.38C132.4 147.36 132.77 147.08 133.75 147.13C135.88 147.18 138.01 147.18 140.19 147.13C143.16 147.08 144.32 145.92 144.32 143C144.33 142.06 144.28 141.13 144.28 140.2Z" fill="#F04438"/>
<path d="M211.36 232.21C208.81 232.21 206.26 232.21 203.71 232.21C203.25 232.21 202.55 232.4 202.55 231.61C202.46 228.36 202.27 225.06 204.54 222.32C205.23 221.53 205.74 221.21 206.86 221.72C209.78 223.02 212.84 223.02 215.81 221.77C217.02 221.26 217.57 221.58 218.27 222.47C220.54 225.21 220.17 228.41 220.17 231.62C220.17 232.46 219.52 232.27 219.06 232.27C216.46 232.21 213.9 232.21 211.36 232.21Z" fill="#FEA85F"/>
<path d="M211.36 204.3C214.93 204.3 217.9 207.18 217.94 210.76C217.99 214.34 214.97 217.4 211.36 217.4C207.7 217.4 204.78 214.43 204.82 210.76C204.82 207.18 207.74 204.3 211.36 204.3Z" fill="#FEEDE4"/>
<path d="M235.14 122.51C233.42 122.51 228.65 117.31 228.74 115.59C228.83 114.48 229.39 113.78 230.41 113.36C231.43 112.94 232.31 113.27 233.15 113.92C233.94 114.52 234.36 116.01 235.38 115.78C236.26 115.59 236.91 114.43 237.65 113.74C239.27 112.16 240.8 110.54 242.47 108.96C243.77 107.71 245.21 107.66 246.32 108.78C247.39 109.85 247.39 111.38 246.13 112.63C243.16 115.65 240.15 118.62 237.18 121.59C236.57 122.14 235.92 122.51 235.14 122.51Z" fill="#F79009"/>
<path d="M330 236C341.046 236 350 227.046 350 216C350 204.954 341.046 196 330 196C318.954 196 310 204.954 310 216C310 227.046 318.954 236 330 236Z" fill="white"/>
<path d="M330 236C318.97 236 310 227.03 310 216C310 204.97 318.97 196 330 196C341.03 196 350 204.97 350 216C350 227.03 341.03 236 330 236ZM330 198C320.08 198 312 206.08 312 216C312 225.92 320.08 234 330 234C339.92 234 348 225.92 348 216C348 206.08 339.92 198 330 198Z" fill="#B2DDFF"/>
<path d="M327.25 226.07C322.19 226.07 319.93 223.81 319.93 218.75V213.25C319.93 208.19 322.19 205.93 327.25 205.93H331.83C332.33 205.93 332.73 206.33 332.73 206.83C332.73 207.33 332.33 207.73 331.83 207.73H327.25C323.18 207.73 321.73 209.17 321.73 213.25V218.75C321.73 222.82 323.17 224.27 327.25 224.27C327.75 224.27 328.15 224.67 328.15 225.17C328.15 225.67 327.75 226.07 327.25 226.07Z" fill="#1570EF"/>
<path d="M339.17 217.82C338.67 217.82 338.27 217.42 338.27 216.92V214.17C338.27 213.67 338.67 213.27 339.17 213.27C339.67 213.27 340.07 213.67 340.07 214.17V216.92C340.07 217.41 339.66 217.82 339.17 217.82Z" fill="#1570EF"/>
<path d="M339.17 215.07H335.5C332.26 215.07 330.93 213.75 330.93 210.5V206.83C330.93 206.47 331.15 206.14 331.49 206C331.83 205.86 332.21 205.94 332.47 206.19L339.8 213.52C340.06 213.78 340.13 214.16 339.99 214.5C339.86 214.85 339.53 215.07 339.17 215.07ZM332.73 209.01V210.5C332.73 212.75 333.25 213.27 335.5 213.27H336.99L332.73 209.01Z" fill="#1570EF"/>
<path d="M336.71 226.07H331.61C329.94 225.95 329.09 224.67 329.09 223.46C329.09 222.53 329.58 221.56 330.54 221.11C330.38 219.96 330.71 218.9 331.48 218.09C332.47 217.05 334.06 216.64 335.44 217.06C336.61 217.42 337.47 218.33 337.84 219.59C338.82 219.92 339.58 220.72 339.91 221.77C340.3 223.05 339.94 224.37 338.97 225.22C338.38 225.75 337.55 226.07 336.71 226.07ZM331.59 222.65C330.95 222.74 330.9 223.29 330.9 223.46C330.9 223.64 330.96 224.22 331.68 224.28H336.71C337.1 224.28 337.49 224.13 337.77 223.88C338.3 223.42 338.33 222.76 338.19 222.3C338.05 221.84 337.66 221.31 336.98 221.23C336.58 221.18 336.27 220.88 336.2 220.48C336.05 219.58 335.6 219 334.91 218.78C334.19 218.56 333.31 218.78 332.79 219.33C332.28 219.86 332.17 220.6 332.48 221.45C332.65 221.92 332.4 222.43 331.94 222.6C331.82 222.64 331.69 222.64 331.59 222.65Z" fill="#1570EF"/>
<path d="M38 245C49.0457 245 58 236.046 58 225C58 213.954 49.0457 205 38 205C26.9543 205 18 213.954 18 225C18 236.046 26.9543 245 38 245Z" fill="white"/>
<path d="M38 245C26.97 245 18 236.03 18 225C18 213.97 26.97 205 38 205C49.03 205 58 213.97 58 225C58 236.03 49.03 245 38 245ZM38 207C28.07 207 20 215.08 20 225C20 234.92 28.07 243 38 243C47.93 243 56 234.92 56 225C56 215.08 47.93 207 38 207Z" fill="#B2DDFF"/>
<path d="M35.4 224.86C35.37 224.86 35.34 224.86 35.31 224.86C35.27 224.86 35.22 224.86 35.17 224.86C35.13 224.86 35.1 224.86 35.06 224.86C32.38 224.77 30.28 222.59 30.28 219.9C30.28 217.16 32.51 214.93 35.25 214.93C37.99 214.93 40.22 217.16 40.22 219.9C40.21 222.59 38.1 224.77 35.43 224.86C35.42 224.86 35.41 224.86 35.4 224.86ZM35.25 216.73C33.5 216.73 32.08 218.15 32.08 219.9C32.08 221.6 33.39 222.98 35.08 223.06C35.19 223.05 35.31 223.05 35.41 223.06C37.09 222.98 38.41 221.6 38.42 219.9C38.42 218.16 37 216.73 35.25 216.73Z" fill="#1570EF"/>
<path d="M42.1599 224.98C42.1199 224.98 42.0799 224.98 42.0399 224.97C41.5499 225.03 41.0899 224.68 41.0299 224.18C40.9699 223.69 41.3199 223.24 41.8099 223.18C41.9299 223.16 42.0599 223.16 42.1799 223.17C43.3999 223.09 44.3499 222.09 44.3499 220.86C44.3499 219.59 43.3099 218.55 42.0399 218.55C41.5399 218.55 41.1399 218.15 41.1399 217.65C41.1399 217.15 41.5399 216.75 42.0399 216.75C44.3099 216.75 46.1499 218.59 46.1499 220.86C46.1499 223.08 44.4099 224.88 42.1899 224.97C42.1899 224.98 42.1699 224.98 42.1599 224.98Z" fill="#1570EF"/>
<path d="M35.4 234.88C33.56 234.88 31.71 234.41 30.31 233.47C29 232.6 28.25 231.35 28.25 230.04C28.25 228.73 29 227.47 30.31 226.59C33.13 224.72 37.69 224.72 40.48 226.59C41.79 227.46 42.54 228.71 42.54 230.02C42.54 231.33 41.79 232.59 40.48 233.47C39.09 234.41 37.24 234.88 35.4 234.88ZM31.31 228.1C30.49 228.65 30.05 229.34 30.05 230.05C30.05 230.76 30.5 231.44 31.31 231.99C33.53 233.47 37.27 233.47 39.49 231.99C40.31 231.44 40.76 230.75 40.75 230.04C40.75 229.33 40.3 228.65 39.49 228.1C37.28 226.62 33.54 226.62 31.31 228.1Z" fill="#1570EF"/>
<path d="M43.8101 233.23C43.3901 233.23 43.0201 232.94 42.9301 232.51C42.8301 232.02 43.1401 231.55 43.6301 231.45C44.1801 231.34 44.6701 231.12 45.0601 230.82C45.5301 230.47 45.7801 230.03 45.7801 229.58C45.7801 229.13 45.5301 228.69 45.0701 228.34C44.6901 228.05 44.2101 227.84 43.6401 227.71C43.1601 227.6 42.8501 227.12 42.9601 226.63C43.0701 226.15 43.5501 225.85 44.0401 225.95C44.8601 226.14 45.5701 226.46 46.1601 226.9C47.0601 227.58 47.5901 228.56 47.5901 229.57C47.5901 230.59 47.0701 231.56 46.1601 232.25C45.5601 232.71 44.8201 233.04 44.0101 233.21C43.9301 233.23 43.8701 233.23 43.8101 233.23Z" fill="#1570EF"/>
</svg>
