<svg width="24" height="24" viewBox="0 0 24 24" fill="none" xmlns="http://www.w3.org/2000/svg">
<path d="M21.9705 18.33C21.9705 18.69 21.8905 19.06 21.7205 19.42C21.5505 19.78 21.3305 20.12 21.0405 20.44C20.5505 20.98 20.0105 21.37 19.4005 21.62C18.8005 21.87 18.1505 22 17.4505 22C16.4305 22 15.3405 21.76 14.1905 21.27C13.0405 20.78 11.8905 20.12 10.7505 19.29C9.60049 18.45 8.51049 17.52 7.47049 16.49C6.44049 15.45 5.51049 14.36 4.68049 13.22C3.86049 12.08 3.20049 10.94 2.72049 9.80995C2.24049 8.66995 2.00049 7.57995 2.00049 6.53995C2.00049 5.85995 2.12049 5.20995 2.36049 4.60995C2.60049 3.99995 2.98049 3.43995 3.51049 2.93995C4.15049 2.30995 4.85049 1.99995 5.59049 1.99995C5.87049 1.99995 6.15049 2.05995 6.40049 2.17995C6.66049 2.29995 6.89049 2.47995 7.07049 2.73995L9.39049 6.00995C9.57049 6.25995 9.70049 6.48995 9.79049 6.70995C9.88049 6.91995 9.93049 7.12995 9.93049 7.31995C9.93049 7.55995 9.86049 7.79995 9.72049 8.02995C9.59049 8.25995 9.40049 8.49995 9.16049 8.73995L8.40049 9.52995C8.29049 9.63995 8.24049 9.76995 8.24049 9.92995C8.24049 10.01 8.25049 10.08 8.27049 10.16C8.30049 10.24 8.33049 10.3 8.35049 10.36C8.53049 10.69 8.84049 11.12 9.28049 11.64C9.73049 12.16 10.2105 12.69 10.7305 13.22C11.2705 13.75 11.7905 14.24 12.3205 14.69C12.8405 15.13 13.2705 15.43 13.6105 15.61C13.6605 15.63 13.7205 15.66 13.7905 15.69C13.8705 15.72 13.9505 15.73 14.0405 15.73C14.2105 15.73 14.3405 15.67 14.4505 15.56L15.2105 14.81C15.4605 14.56 15.7005 14.37 15.9305 14.25C16.1605 14.11 16.3905 14.04 16.6405 14.04C16.8305 14.04 17.0305 14.08 17.2505 14.17C17.4705 14.26 17.7005 14.39 17.9505 14.56L21.2605 16.91C21.5205 17.09 21.7005 17.3 21.8105 17.55C21.9105 17.8 21.9705 18.05 21.9705 18.33Z" stroke="white" strokeWidth="1.5" stroke-miterlimit="10"/>
<path d="M18.5 9C18.5 8.4 18.03 7.48 17.33 6.73C16.69 6.04 15.84 5.5 15 5.5" stroke="white" strokeWidth="1.5" stroke-linecap="round" stroke-linejoin="round"/>
<path d="M22 8.9999C22 5.1299 18.87 1.9999 15 1.9999" stroke="white" strokeWidth="1.5" stroke-linecap="round" stroke-linejoin="round"/>
</svg>
