<svg width="356" height="298" viewBox="0 0 356 298" fill="none" xmlns="http://www.w3.org/2000/svg">
<mask id="mask0_11430_8251" style="mask-type:alpha" maskUnits="userSpaceOnUse" x="0" y="0" width="356" height="298">
<rect width="356" height="298" fill="#D9D9D9"/>
</mask>
<g mask="url(#mask0_11430_8251)">
<rect width="32.5413" height="219.9" rx="16.2707" transform="matrix(0.5118 -0.859104 -0.859104 -0.5118 254.438 206.58)" fill="#EFF1F5"/>
<rect width="32.5413" height="36.4095" rx="16.2707" transform="matrix(0.5118 -0.859104 -0.859104 -0.5118 290.887 228.294)" fill="#EFF1F5"/>
<rect width="32.5413" height="219.9" rx="16.2707" transform="matrix(0.5118 -0.859104 -0.859104 -0.5118 341.527 217.068)" fill="#EFF1F5"/>
<rect width="32.5413" height="219.9" rx="16.2707" transform="matrix(0.5118 -0.859104 -0.859104 -0.5118 261.996 252.476)" fill="#EFF1F5"/>
<rect width="32.5413" height="79.7122" rx="16.2707" transform="matrix(0.5118 -0.859104 -0.859104 -0.5118 67.3696 134.906)" fill="#EFF1F5"/>
<rect width="32.5413" height="219.9" rx="16.2707" transform="matrix(0.5118 -0.859104 -0.859104 -0.5118 194.318 254.362)" fill="#EFF1F5"/>
<rect x="55.8333" y="52" width="2.33333" height="14" rx="1.16667" fill="#AFC2D2"/>
<rect x="50" y="60.1667" width="2.33333" height="14" rx="1.16667" transform="rotate(-90 50 60.1667)" fill="#AFC2D2"/>
<rect x="229.833" y="261" width="2.33333" height="14" rx="1.16667" fill="#AFC2D2"/>
<rect x="224" y="269.167" width="2.33333" height="14" rx="1.16667" transform="rotate(-90 224 269.167)" fill="#AFC2D2"/>
<rect x="322.125" y="123.775" width="2.33333" height="14" rx="1.16667" transform="rotate(-45 322.125 123.775)" fill="#AFC2D2"/>
<rect x="323.775" y="133.674" width="2.33333" height="14" rx="1.16667" transform="rotate(-135 323.775 133.674)" fill="#AFC2D2"/>
<circle cx="226" cy="20" r="4" stroke="#AFC2D2" strokeWidth="2"/>
<circle cx="64" cy="252" r="4" stroke="#AFC2D2" strokeWidth="2"/>
<rect x="71.3522" y="66.3671" width="225.396" height="155.956" rx="10" fill="#033C59"/>
<rect x="75.9056" y="70.9206" width="216.289" height="146.849" rx="8" fill="white"/>
<path d="M248.823 178H222V181.085H248.823V178Z" fill="#D9D9E7"/>
<path d="M270.95 178H251.172V181.085H270.95V178Z" fill="#D9D9E7"/>
<path d="M232.136 182.628H222V185.713H232.136V182.628Z" fill="#D9D9E7"/>
<path d="M270.95 182.628H233.867V185.713H270.95V182.628Z" fill="#D9D9E7"/>
<rect x="48" y="107" width="161.49" height="100.319" rx="8" fill="#1849A9"/>
<rect x="51.6702" y="110.67" width="154.149" height="92.9789" rx="7" fill="white"/>
<path d="M51.6702 117.67C51.6702 113.804 54.8042 110.67 58.6702 110.67H198.819C202.685 110.67 205.819 113.804 205.819 117.67V126.574H51.6702V117.67Z" fill="#1849A9"/>
<path d="M123.851 116.787H106.723V119.234H123.851V116.787Z" fill="#FF880F"/>
<path d="M138.532 116.787H125.075V119.234H138.532V116.787Z" fill="white"/>
<path d="M149.543 116.787H139.755V119.234H149.543V116.787Z" fill="#009C32"/>
<path d="M133.74 156.915H111.617V159.46H133.74V156.915Z" fill="#D9D9E7"/>
<path d="M151.989 156.915H135.677V159.46H151.989V156.915Z" fill="#D9D9E7"/>
<path d="M119.977 160.732H111.617V163.277H119.977V160.732Z" fill="#D9D9E7"/>
<path d="M151.989 160.732H121.404V163.277H151.989V160.732Z" fill="#D9D9E7"/>
<path d="M133.74 147.372H111.617V149.917H133.74V147.372Z" fill="#D9D9E7"/>
<path d="M151.989 147.372H135.677V149.917H151.989V147.372Z" fill="#D9D9E7"/>
<path d="M119.977 151.189H111.617V153.734H119.977V151.189Z" fill="#D9D9E7"/>
<path d="M151.989 151.189H121.404V153.734H151.989V151.189Z" fill="#D9D9E7"/>
<path d="M118.176 188.968H66.3511V191.572H118.176V188.968Z" fill="#D9D9E7"/>
<path d="M160.925 188.968H122.713V191.572H160.925V188.968Z" fill="#D9D9E7"/>
<path d="M196.032 188.968H165.463V191.572H196.032V188.968Z" fill="#D9D9E7"/>
<path d="M85.9346 192.873H66.3511V195.477H85.9346V192.873Z" fill="#D9D9E7"/>
<path d="M148.029 192.873H90.4722V195.477H148.029V192.873Z" fill="#D9D9E7"/>
<path d="M196.032 192.873H152.566V195.477H196.032V192.873Z" fill="#D9D9E7"/>
<path d="M165.32 143.702H164.224V144.799H165.32V143.702Z" fill="#033C59"/>
<path d="M165.32 144.799H164.224V145.896H165.32V144.799Z" fill="#033C59"/>
<path d="M165.32 145.896H164.224V146.993H165.32V145.896Z" fill="#033C59"/>
<path d="M165.32 146.993H164.224V148.09H165.32V146.993Z" fill="#033C59"/>
<path d="M165.32 148.09H164.224V149.186H165.32V148.09Z" fill="#033C59"/>
<path d="M165.32 149.186H164.224V150.283H165.32V149.186Z" fill="#033C59"/>
<path d="M165.32 150.283H164.224V151.38H165.32V150.283Z" fill="#033C59"/>
<path d="M165.32 153.574H164.224V154.671H165.32V153.574Z" fill="#033C59"/>
<path d="M165.32 154.671H164.224V155.767H165.32V154.671Z" fill="#033C59"/>
<path d="M165.32 155.767H164.224V156.864H165.32V155.767Z" fill="#033C59"/>
<path d="M165.32 159.058H164.224V160.155H165.32V159.058Z" fill="#033C59"/>
<path d="M165.32 160.155H164.224V161.252H165.32V160.155Z" fill="#033C59"/>
<path d="M165.32 161.252H164.224V162.349H165.32V161.252Z" fill="#033C59"/>
<path d="M165.32 162.349H164.224V163.445H165.32V162.349Z" fill="#033C59"/>
<path d="M165.32 164.542H164.224V165.639H165.32V164.542Z" fill="#033C59"/>
<path d="M165.32 165.639H164.224V166.736H165.32V165.639Z" fill="#033C59"/>
<path d="M165.32 167.833H164.224V168.93H165.32V167.833Z" fill="#033C59"/>
<path d="M165.32 168.93H164.224V170.026H165.32V168.93Z" fill="#033C59"/>
<path d="M165.32 170.026H164.224V171.123H165.32V170.026Z" fill="#033C59"/>
<path d="M165.32 171.123H164.224V172.22H165.32V171.123Z" fill="#033C59"/>
<path d="M165.32 172.22H164.224V173.317H165.32V172.22Z" fill="#033C59"/>
<path d="M165.32 173.317H164.224V174.414H165.32V173.317Z" fill="#033C59"/>
<path d="M165.32 174.414H164.224V175.511H165.32V174.414Z" fill="#033C59"/>
<path d="M166.417 143.702H165.32V144.799H166.417V143.702Z" fill="#033C59"/>
<path d="M166.417 150.283H165.32V151.38H166.417V150.283Z" fill="#033C59"/>
<path d="M166.417 154.671H165.32V155.767H166.417V154.671Z" fill="#033C59"/>
<path d="M166.417 157.961H165.32V159.058H166.417V157.961Z" fill="#033C59"/>
<path d="M166.417 161.252H165.32V162.349H166.417V161.252Z" fill="#033C59"/>
<path d="M166.417 163.445H165.32V164.542H166.417V163.445Z" fill="#033C59"/>
<path d="M166.417 164.542H165.32V165.639H166.417V164.542Z" fill="#033C59"/>
<path d="M166.417 167.833H165.32V168.93H166.417V167.833Z" fill="#033C59"/>
<path d="M166.417 174.414H165.32V175.511H166.417V174.414Z" fill="#033C59"/>
<path d="M167.514 143.702H166.417V144.799H167.514V143.702Z" fill="#033C59"/>
<path d="M167.514 145.896H166.417V146.993H167.514V145.896Z" fill="#033C59"/>
<path d="M167.514 146.993H166.417V148.09H167.514V146.993Z" fill="#033C59"/>
<path d="M167.514 148.09H166.417V149.186H167.514V148.09Z" fill="#033C59"/>
<path d="M167.514 150.283H166.417V151.38H167.514V150.283Z" fill="#033C59"/>
<path d="M167.514 152.477H166.417V153.574H167.514V152.477Z" fill="#033C59"/>
<path d="M167.514 155.767H166.417V156.864H167.514V155.767Z" fill="#033C59"/>
<path d="M167.514 156.864H166.417V157.961H167.514V156.864Z" fill="#033C59"/>
<path d="M167.514 157.961H166.417V159.058H167.514V157.961Z" fill="#033C59"/>
<path d="M167.514 159.058H166.417V160.155H167.514V159.058Z" fill="#033C59"/>
<path d="M167.514 160.155H166.417V161.252H167.514V160.155Z" fill="#033C59"/>
<path d="M167.514 161.252H166.417V162.349H167.514V161.252Z" fill="#033C59"/>
<path d="M167.514 164.542H166.417V165.639H167.514V164.542Z" fill="#033C59"/>
<path d="M167.514 165.639H166.417V166.736H167.514V165.639Z" fill="#033C59"/>
<path d="M167.514 167.833H166.417V168.93H167.514V167.833Z" fill="#033C59"/>
<path d="M167.514 170.026H166.417V171.123H167.514V170.026Z" fill="#033C59"/>
<path d="M167.514 171.123H166.417V172.22H167.514V171.123Z" fill="#033C59"/>
<path d="M167.514 172.22H166.417V173.317H167.514V172.22Z" fill="#033C59"/>
<path d="M167.514 174.414H166.417V175.511H167.514V174.414Z" fill="#033C59"/>
<path d="M168.611 143.702H167.514V144.799H168.611V143.702Z" fill="#033C59"/>
<path d="M168.611 145.896H167.514V146.993H168.611V145.896Z" fill="#033C59"/>
<path d="M168.611 146.993H167.514V148.09H168.611V146.993Z" fill="#033C59"/>
<path d="M168.611 148.09H167.514V149.186H168.611V148.09Z" fill="#033C59"/>
<path d="M168.611 150.283H167.514V151.38H168.611V150.283Z" fill="#033C59"/>
<path d="M168.611 152.477H167.514V153.574H168.611V152.477Z" fill="#033C59"/>
<path d="M168.611 153.574H167.514V154.671H168.611V153.574Z" fill="#033C59"/>
<path d="M168.611 154.671H167.514V155.767H168.611V154.671Z" fill="#033C59"/>
<path d="M168.611 155.767H167.514V156.864H168.611V155.767Z" fill="#033C59"/>
<path d="M168.611 159.058H167.514V160.155H168.611V159.058Z" fill="#033C59"/>
<path d="M168.611 162.349H167.514V163.445H168.611V162.349Z" fill="#033C59"/>
<path d="M168.611 163.445H167.514V164.542H168.611V163.445Z" fill="#033C59"/>
<path d="M168.611 164.542H167.514V165.639H168.611V164.542Z" fill="#033C59"/>
<path d="M168.611 167.833H167.514V168.93H168.611V167.833Z" fill="#033C59"/>
<path d="M168.611 170.026H167.514V171.123H168.611V170.026Z" fill="#033C59"/>
<path d="M168.611 171.123H167.514V172.22H168.611V171.123Z" fill="#033C59"/>
<path d="M168.611 172.22H167.514V173.317H168.611V172.22Z" fill="#033C59"/>
<path d="M168.611 174.414H167.514V175.511H168.611V174.414Z" fill="#033C59"/>
<path d="M169.708 143.702H168.611V144.799H169.708V143.702Z" fill="#033C59"/>
<path d="M169.708 145.896H168.611V146.993H169.708V145.896Z" fill="#033C59"/>
<path d="M169.708 146.993H168.611V148.09H169.708V146.993Z" fill="#033C59"/>
<path d="M169.708 148.09H168.611V149.186H169.708V148.09Z" fill="#033C59"/>
<path d="M169.708 150.283H168.611V151.38H169.708V150.283Z" fill="#033C59"/>
<path d="M169.708 155.767H168.611V156.864H169.708V155.767Z" fill="#033C59"/>
<path d="M169.708 156.864H168.611V157.961H169.708V156.864Z" fill="#033C59"/>
<path d="M169.708 157.961H168.611V159.058H169.708V157.961Z" fill="#033C59"/>
<path d="M169.708 161.252H168.611V162.349H169.708V161.252Z" fill="#033C59"/>
<path d="M169.708 162.349H168.611V163.445H169.708V162.349Z" fill="#033C59"/>
<path d="M169.708 163.445H168.611V164.542H169.708V163.445Z" fill="#033C59"/>
<path d="M169.708 165.639H168.611V166.736H169.708V165.639Z" fill="#033C59"/>
<path d="M169.708 167.833H168.611V168.93H169.708V167.833Z" fill="#033C59"/>
<path d="M169.708 170.026H168.611V171.123H169.708V170.026Z" fill="#033C59"/>
<path d="M169.708 171.123H168.611V172.22H169.708V171.123Z" fill="#033C59"/>
<path d="M169.708 172.22H168.611V173.317H169.708V172.22Z" fill="#033C59"/>
<path d="M169.708 174.414H168.611V175.511H169.708V174.414Z" fill="#033C59"/>
<path d="M170.805 143.702H169.708V144.799H170.805V143.702Z" fill="#033C59"/>
<path d="M170.805 150.283H169.708V151.38H170.805V150.283Z" fill="#033C59"/>
<path d="M170.805 153.574H169.708V154.671H170.805V153.574Z" fill="#033C59"/>
<path d="M170.805 157.961H169.708V159.058H170.805V157.961Z" fill="#033C59"/>
<path d="M170.805 159.058H169.708V160.155H170.805V159.058Z" fill="#033C59"/>
<path d="M170.805 164.542H169.708V165.639H170.805V164.542Z" fill="#033C59"/>
<path d="M170.805 165.639H169.708V166.736H170.805V165.639Z" fill="#033C59"/>
<path d="M170.805 167.833H169.708V168.93H170.805V167.833Z" fill="#033C59"/>
<path d="M170.805 174.414H169.708V175.511H170.805V174.414Z" fill="#033C59"/>
<path d="M171.901 143.702H170.805V144.799H171.901V143.702Z" fill="#033C59"/>
<path d="M171.901 144.799H170.805V145.896H171.901V144.799Z" fill="#033C59"/>
<path d="M171.901 145.896H170.805V146.993H171.901V145.896Z" fill="#033C59"/>
<path d="M171.901 146.993H170.805V148.09H171.901V146.993Z" fill="#033C59"/>
<path d="M171.901 148.09H170.805V149.186H171.901V148.09Z" fill="#033C59"/>
<path d="M171.901 149.186H170.805V150.283H171.901V149.186Z" fill="#033C59"/>
<path d="M171.901 150.283H170.805V151.38H171.901V150.283Z" fill="#033C59"/>
<path d="M171.901 152.477H170.805V153.574H171.901V152.477Z" fill="#033C59"/>
<path d="M171.901 154.671H170.805V155.767H171.901V154.671Z" fill="#033C59"/>
<path d="M171.901 156.864H170.805V157.961H171.901V156.864Z" fill="#033C59"/>
<path d="M171.901 159.058H170.805V160.155H171.901V159.058Z" fill="#033C59"/>
<path d="M171.901 161.252H170.805V162.349H171.901V161.252Z" fill="#033C59"/>
<path d="M171.901 163.445H170.805V164.542H171.901V163.445Z" fill="#033C59"/>
<path d="M171.901 165.639H170.805V166.736H171.901V165.639Z" fill="#033C59"/>
<path d="M171.901 167.833H170.805V168.93H171.901V167.833Z" fill="#033C59"/>
<path d="M171.901 168.93H170.805V170.026H171.901V168.93Z" fill="#033C59"/>
<path d="M171.901 170.026H170.805V171.123H171.901V170.026Z" fill="#033C59"/>
<path d="M171.901 171.123H170.805V172.22H171.901V171.123Z" fill="#033C59"/>
<path d="M171.901 172.22H170.805V173.317H171.901V172.22Z" fill="#033C59"/>
<path d="M171.901 173.317H170.805V174.414H171.901V173.317Z" fill="#033C59"/>
<path d="M171.901 174.414H170.805V175.511H171.901V174.414Z" fill="#033C59"/>
<path d="M172.998 152.477H171.902V153.574H172.998V152.477Z" fill="#033C59"/>
<path d="M172.998 153.574H171.902V154.671H172.998V153.574Z" fill="#033C59"/>
<path d="M172.998 156.864H171.902V157.961H172.998V156.864Z" fill="#033C59"/>
<path d="M172.998 157.961H171.902V159.058H172.998V157.961Z" fill="#033C59"/>
<path d="M172.998 159.058H171.902V160.155H172.998V159.058Z" fill="#033C59"/>
<path d="M172.998 160.155H171.902V161.252H172.998V160.155Z" fill="#033C59"/>
<path d="M172.998 161.252H171.902V162.349H172.998V161.252Z" fill="#033C59"/>
<path d="M174.095 148.09H172.998V149.186H174.095V148.09Z" fill="#033C59"/>
<path d="M174.095 150.283H172.998V151.38H174.095V150.283Z" fill="#033C59"/>
<path d="M174.095 151.38H172.998V152.477H174.095V151.38Z" fill="#033C59"/>
<path d="M174.095 152.477H172.998V153.574H174.095V152.477Z" fill="#033C59"/>
<path d="M174.095 153.574H172.998V154.671H174.095V153.574Z" fill="#033C59"/>
<path d="M174.095 154.671H172.998V155.767H174.095V154.671Z" fill="#033C59"/>
<path d="M174.095 156.864H172.998V157.961H174.095V156.864Z" fill="#033C59"/>
<path d="M174.095 157.961H172.998V159.058H174.095V157.961Z" fill="#033C59"/>
<path d="M174.095 163.445H172.998V164.542H174.095V163.445Z" fill="#033C59"/>
<path d="M174.095 164.542H172.998V165.639H174.095V164.542Z" fill="#033C59"/>
<path d="M174.095 166.736H172.998V167.833H174.095V166.736Z" fill="#033C59"/>
<path d="M174.095 167.833H172.998V168.93H174.095V167.833Z" fill="#033C59"/>
<path d="M174.095 171.123H172.998V172.22H174.095V171.123Z" fill="#033C59"/>
<path d="M174.095 172.22H172.998V173.317H174.095V172.22Z" fill="#033C59"/>
<path d="M175.192 143.702H174.095V144.799H175.192V143.702Z" fill="#033C59"/>
<path d="M175.192 145.896H174.095V146.993H175.192V145.896Z" fill="#033C59"/>
<path d="M175.192 148.09H174.095V149.186H175.192V148.09Z" fill="#033C59"/>
<path d="M175.192 154.671H174.095V155.767H175.192V154.671Z" fill="#033C59"/>
<path d="M175.192 155.767H174.095V156.864H175.192V155.767Z" fill="#033C59"/>
<path d="M175.192 160.155H174.095V161.252H175.192V160.155Z" fill="#033C59"/>
<path d="M175.192 161.252H174.095V162.349H175.192V161.252Z" fill="#033C59"/>
<path d="M175.192 164.542H174.095V165.639H175.192V164.542Z" fill="#033C59"/>
<path d="M175.192 167.833H174.095V168.93H175.192V167.833Z" fill="#033C59"/>
<path d="M175.192 170.026H174.095V171.123H175.192V170.026Z" fill="#033C59"/>
<path d="M175.192 171.123H174.095V172.22H175.192V171.123Z" fill="#033C59"/>
<path d="M175.192 172.22H174.095V173.317H175.192V172.22Z" fill="#033C59"/>
<path d="M176.289 144.799H175.192V145.896H176.289V144.799Z" fill="#033C59"/>
<path d="M176.289 146.993H175.192V148.09H176.289V146.993Z" fill="#033C59"/>
<path d="M176.289 148.09H175.192V149.186H176.289V148.09Z" fill="#033C59"/>
<path d="M176.289 150.283H175.192V151.38H176.289V150.283Z" fill="#033C59"/>
<path d="M176.289 152.477H175.192V153.574H176.289V152.477Z" fill="#033C59"/>
<path d="M176.289 153.574H175.192V154.671H176.289V153.574Z" fill="#033C59"/>
<path d="M176.289 154.671H175.192V155.767H176.289V154.671Z" fill="#033C59"/>
<path d="M176.289 155.767H175.192V156.864H176.289V155.767Z" fill="#033C59"/>
<path d="M176.289 156.864H175.192V157.961H176.289V156.864Z" fill="#033C59"/>
<path d="M176.289 157.961H175.192V159.058H176.289V157.961Z" fill="#033C59"/>
<path d="M176.289 159.058H175.192V160.155H176.289V159.058Z" fill="#033C59"/>
<path d="M176.289 160.155H175.192V161.252H176.289V160.155Z" fill="#033C59"/>
<path d="M176.289 161.252H175.192V162.349H176.289V161.252Z" fill="#033C59"/>
<path d="M176.289 162.349H175.192V163.445H176.289V162.349Z" fill="#033C59"/>
<path d="M176.289 164.542H175.192V165.639H176.289V164.542Z" fill="#033C59"/>
<path d="M176.289 165.639H175.192V166.736H176.289V165.639Z" fill="#033C59"/>
<path d="M176.289 166.736H175.192V167.833H176.289V166.736Z" fill="#033C59"/>
<path d="M176.289 172.22H175.192V173.317H176.289V172.22Z" fill="#033C59"/>
<path d="M177.386 145.896H176.289V146.993H177.386V145.896Z" fill="#033C59"/>
<path d="M177.386 148.09H176.289V149.186H177.386V148.09Z" fill="#033C59"/>
<path d="M177.386 149.186H176.289V150.283H177.386V149.186Z" fill="#033C59"/>
<path d="M177.386 154.671H176.289V155.767H177.386V154.671Z" fill="#033C59"/>
<path d="M177.386 159.058H176.289V160.155H177.386V159.058Z" fill="#033C59"/>
<path d="M177.386 163.445H176.289V164.542H177.386V163.445Z" fill="#033C59"/>
<path d="M177.386 164.542H176.289V165.639H177.386V164.542Z" fill="#033C59"/>
<path d="M177.386 166.736H176.289V167.833H177.386V166.736Z" fill="#033C59"/>
<path d="M177.386 168.93H176.289V170.026H177.386V168.93Z" fill="#033C59"/>
<path d="M177.386 170.026H176.289V171.123H177.386V170.026Z" fill="#033C59"/>
<path d="M177.386 171.123H176.289V172.22H177.386V171.123Z" fill="#033C59"/>
<path d="M177.386 174.414H176.289V175.511H177.386V174.414Z" fill="#033C59"/>
<path d="M178.483 143.702H177.386V144.799H178.483V143.702Z" fill="#033C59"/>
<path d="M178.483 144.799H177.386V145.896H178.483V144.799Z" fill="#033C59"/>
<path d="M178.483 145.896H177.386V146.993H178.483V145.896Z" fill="#033C59"/>
<path d="M178.483 149.186H177.386V150.283H178.483V149.186Z" fill="#033C59"/>
<path d="M178.483 150.283H177.386V151.38H178.483V150.283Z" fill="#033C59"/>
<path d="M178.483 153.574H177.386V154.671H178.483V153.574Z" fill="#033C59"/>
<path d="M178.483 155.767H177.386V156.864H178.483V155.767Z" fill="#033C59"/>
<path d="M178.483 159.058H177.386V160.155H178.483V159.058Z" fill="#033C59"/>
<path d="M178.483 163.445H177.386V164.542H178.483V163.445Z" fill="#033C59"/>
<path d="M178.483 164.542H177.386V165.639H178.483V164.542Z" fill="#033C59"/>
<path d="M178.483 165.639H177.386V166.736H178.483V165.639Z" fill="#033C59"/>
<path d="M178.483 168.93H177.386V170.026H178.483V168.93Z" fill="#033C59"/>
<path d="M178.483 170.026H177.386V171.123H178.483V170.026Z" fill="#033C59"/>
<path d="M178.483 171.123H177.386V172.22H178.483V171.123Z" fill="#033C59"/>
<path d="M179.579 143.702H178.483V144.799H179.579V143.702Z" fill="#033C59"/>
<path d="M179.579 144.799H178.483V145.896H179.579V144.799Z" fill="#033C59"/>
<path d="M179.579 145.896H178.483V146.993H179.579V145.896Z" fill="#033C59"/>
<path d="M179.579 148.09H178.483V149.186H179.579V148.09Z" fill="#033C59"/>
<path d="M179.579 151.38H178.483V152.477H179.579V151.38Z" fill="#033C59"/>
<path d="M179.579 154.671H178.483V155.767H179.579V154.671Z" fill="#033C59"/>
<path d="M179.579 155.767H178.483V156.864H179.579V155.767Z" fill="#033C59"/>
<path d="M179.579 157.961H178.483V159.058H179.579V157.961Z" fill="#033C59"/>
<path d="M179.579 159.058H178.483V160.155H179.579V159.058Z" fill="#033C59"/>
<path d="M179.579 163.445H178.483V164.542H179.579V163.445Z" fill="#033C59"/>
<path d="M179.579 164.542H178.483V165.639H179.579V164.542Z" fill="#033C59"/>
<path d="M179.579 166.736H178.483V167.833H179.579V166.736Z" fill="#033C59"/>
<path d="M179.579 168.93H178.483V170.026H179.579V168.93Z" fill="#033C59"/>
<path d="M179.579 173.317H178.483V174.414H179.579V173.317Z" fill="#033C59"/>
<path d="M179.579 174.414H178.483V175.511H179.579V174.414Z" fill="#033C59"/>
<path d="M180.676 143.702H179.579V144.799H180.676V143.702Z" fill="#033C59"/>
<path d="M180.676 148.09H179.579V149.186H180.676V148.09Z" fill="#033C59"/>
<path d="M180.676 149.186H179.579V150.283H180.676V149.186Z" fill="#033C59"/>
<path d="M180.676 150.283H179.579V151.38H180.676V150.283Z" fill="#033C59"/>
<path d="M180.676 153.574H179.579V154.671H180.676V153.574Z" fill="#033C59"/>
<path d="M180.676 154.671H179.579V155.767H180.676V154.671Z" fill="#033C59"/>
<path d="M180.676 155.767H179.579V156.864H180.676V155.767Z" fill="#033C59"/>
<path d="M180.676 156.864H179.579V157.961H180.676V156.864Z" fill="#033C59"/>
<path d="M180.676 162.349H179.579V163.445H180.676V162.349Z" fill="#033C59"/>
<path d="M180.676 163.445H179.579V164.542H180.676V163.445Z" fill="#033C59"/>
<path d="M180.676 165.639H179.579V166.736H180.676V165.639Z" fill="#033C59"/>
<path d="M180.676 166.736H179.579V167.833H180.676V166.736Z" fill="#033C59"/>
<path d="M180.676 167.833H179.579V168.93H180.676V167.833Z" fill="#033C59"/>
<path d="M180.676 170.026H179.579V171.123H180.676V170.026Z" fill="#033C59"/>
<path d="M181.773 143.702H180.676V144.799H181.773V143.702Z" fill="#033C59"/>
<path d="M181.773 145.896H180.676V146.993H181.773V145.896Z" fill="#033C59"/>
<path d="M181.773 146.993H180.676V148.09H181.773V146.993Z" fill="#033C59"/>
<path d="M181.773 151.38H180.676V152.477H181.773V151.38Z" fill="#033C59"/>
<path d="M181.773 152.477H180.676V153.574H181.773V152.477Z" fill="#033C59"/>
<path d="M181.773 154.671H180.676V155.767H181.773V154.671Z" fill="#033C59"/>
<path d="M181.773 155.767H180.676V156.864H181.773V155.767Z" fill="#033C59"/>
<path d="M181.773 157.961H180.676V159.058H181.773V157.961Z" fill="#033C59"/>
<path d="M181.773 159.058H180.676V160.155H181.773V159.058Z" fill="#033C59"/>
<path d="M181.773 160.155H180.676V161.252H181.773V160.155Z" fill="#033C59"/>
<path d="M181.773 161.252H180.676V162.349H181.773V161.252Z" fill="#033C59"/>
<path d="M181.773 163.445H180.676V164.542H181.773V163.445Z" fill="#033C59"/>
<path d="M181.773 168.93H180.676V170.026H181.773V168.93Z" fill="#033C59"/>
<path d="M181.773 171.123H180.676V172.22H181.773V171.123Z" fill="#033C59"/>
<path d="M181.773 172.22H180.676V173.317H181.773V172.22Z" fill="#033C59"/>
<path d="M181.773 173.317H180.676V174.414H181.773V173.317Z" fill="#033C59"/>
<path d="M182.87 145.896H181.773V146.993H182.87V145.896Z" fill="#033C59"/>
<path d="M182.87 146.993H181.773V148.09H182.87V146.993Z" fill="#033C59"/>
<path d="M182.87 148.09H181.773V149.186H182.87V148.09Z" fill="#033C59"/>
<path d="M182.87 150.283H181.773V151.38H182.87V150.283Z" fill="#033C59"/>
<path d="M182.87 153.574H181.773V154.671H182.87V153.574Z" fill="#033C59"/>
<path d="M182.87 156.864H181.773V157.961H182.87V156.864Z" fill="#033C59"/>
<path d="M182.87 161.252H181.773V162.349H182.87V161.252Z" fill="#033C59"/>
<path d="M182.87 162.349H181.773V163.445H182.87V162.349Z" fill="#033C59"/>
<path d="M182.87 164.542H181.773V165.639H182.87V164.542Z" fill="#033C59"/>
<path d="M182.87 165.639H181.773V166.736H182.87V165.639Z" fill="#033C59"/>
<path d="M182.87 173.317H181.773V174.414H182.87V173.317Z" fill="#033C59"/>
<path d="M182.87 174.414H181.773V175.511H182.87V174.414Z" fill="#033C59"/>
<path d="M183.967 144.799H182.87V145.896H183.967V144.799Z" fill="#033C59"/>
<path d="M183.967 146.993H182.87V148.09H183.967V146.993Z" fill="#033C59"/>
<path d="M183.967 149.186H182.87V150.283H183.967V149.186Z" fill="#033C59"/>
<path d="M183.967 153.574H182.87V154.671H183.967V153.574Z" fill="#033C59"/>
<path d="M183.967 155.767H182.87V156.864H183.967V155.767Z" fill="#033C59"/>
<path d="M183.933 156.898H182.836V157.995H183.933V156.898Z" fill="#033C59"/>
<path d="M183.967 157.961H182.87V159.058H183.967V157.961Z" fill="#033C59"/>
<path d="M183.967 164.542H182.87V165.639H183.967V164.542Z" fill="#033C59"/>
<path d="M183.967 165.639H182.87V166.736H183.967V165.639Z" fill="#033C59"/>
<path d="M183.967 166.736H182.87V167.833H183.967V166.736Z" fill="#033C59"/>
<path d="M183.967 168.93H182.87V170.026H183.967V168.93Z" fill="#033C59"/>
<path d="M183.967 172.22H182.87V173.317H183.967V172.22Z" fill="#033C59"/>
<path d="M183.967 173.317H182.87V174.414H183.967V173.317Z" fill="#033C59"/>
<path d="M185.064 149.186H183.967V150.283H185.064V149.186Z" fill="#033C59"/>
<path d="M185.064 150.283H183.967V151.38H185.064V150.283Z" fill="#033C59"/>
<path d="M185.064 152.477H183.967V153.574H185.064V152.477Z" fill="#033C59"/>
<path d="M185.064 153.574H183.967V154.671H185.064V153.574Z" fill="#033C59"/>
<path d="M185.064 154.671H183.967V155.767H185.064V154.671Z" fill="#033C59"/>
<path d="M185.064 160.155H183.967V161.252H185.064V160.155Z" fill="#033C59"/>
<path d="M185.064 162.349H183.967V163.445H185.064V162.349Z" fill="#033C59"/>
<path d="M185.064 163.445H183.967V164.542H185.064V163.445Z" fill="#033C59"/>
<path d="M185.064 164.542H183.967V165.639H185.064V164.542Z" fill="#033C59"/>
<path d="M185.064 167.833H183.967V168.93H185.064V167.833Z" fill="#033C59"/>
<path d="M185.064 170.026H183.967V171.123H185.064V170.026Z" fill="#033C59"/>
<path d="M185.064 174.414H183.967V175.511H185.064V174.414Z" fill="#033C59"/>
<path d="M186.16 145.896H185.064V146.993H186.16V145.896Z" fill="#033C59"/>
<path d="M186.16 148.09H185.064V149.186H186.16V148.09Z" fill="#033C59"/>
<path d="M186.16 149.186H185.064V150.283H186.16V149.186Z" fill="#033C59"/>
<path d="M186.16 151.38H185.064V152.477H186.16V151.38Z" fill="#033C59"/>
<path d="M186.16 152.477H185.064V153.574H186.16V152.477Z" fill="#033C59"/>
<path d="M186.16 154.671H185.064V155.767H186.16V154.671Z" fill="#033C59"/>
<path d="M186.16 156.864H185.064V157.961H186.16V156.864Z" fill="#033C59"/>
<path d="M186.16 157.961H185.064V159.058H186.16V157.961Z" fill="#033C59"/>
<path d="M186.16 159.058H185.064V160.155H186.16V159.058Z" fill="#033C59"/>
<path d="M186.16 160.155H185.064V161.252H186.16V160.155Z" fill="#033C59"/>
<path d="M186.16 161.252H185.064V162.349H186.16V161.252Z" fill="#033C59"/>
<path d="M186.16 162.349H185.064V163.445H186.16V162.349Z" fill="#033C59"/>
<path d="M186.16 165.639H185.064V166.736H186.16V165.639Z" fill="#033C59"/>
<path d="M186.16 167.833H185.064V168.93H186.16V167.833Z" fill="#033C59"/>
<path d="M186.16 172.22H185.064V173.317H186.16V172.22Z" fill="#033C59"/>
<path d="M186.16 174.414H185.064V175.511H186.16V174.414Z" fill="#033C59"/>
<path d="M187.257 146.993H186.16V148.09H187.257V146.993Z" fill="#033C59"/>
<path d="M187.257 149.186H186.16V150.283H187.257V149.186Z" fill="#033C59"/>
<path d="M187.257 150.283H186.16V151.38H187.257V150.283Z" fill="#033C59"/>
<path d="M187.257 151.38H186.16V152.477H187.257V151.38Z" fill="#033C59"/>
<path d="M187.257 153.574H186.16V154.671H187.257V153.574Z" fill="#033C59"/>
<path d="M187.257 154.671H186.16V155.767H187.257V154.671Z" fill="#033C59"/>
<path d="M187.257 155.767H186.16V156.864H187.257V155.767Z" fill="#033C59"/>
<path d="M187.257 156.864H186.16V157.961H187.257V156.864Z" fill="#033C59"/>
<path d="M187.257 159.058H186.16V160.155H187.257V159.058Z" fill="#033C59"/>
<path d="M187.257 160.155H186.16V161.252H187.257V160.155Z" fill="#033C59"/>
<path d="M187.257 163.445H186.16V164.542H187.257V163.445Z" fill="#033C59"/>
<path d="M187.257 164.542H186.16V165.639H187.257V164.542Z" fill="#033C59"/>
<path d="M187.257 165.639H186.16V166.736H187.257V165.639Z" fill="#033C59"/>
<path d="M187.257 166.736H186.16V167.833H187.257V166.736Z" fill="#033C59"/>
<path d="M187.257 167.833H186.16V168.93H187.257V167.833Z" fill="#033C59"/>
<path d="M187.257 168.93H186.16V170.026H187.257V168.93Z" fill="#033C59"/>
<path d="M187.257 170.026H186.16V171.123H187.257V170.026Z" fill="#033C59"/>
<path d="M187.257 171.123H186.16V172.22H187.257V171.123Z" fill="#033C59"/>
<path d="M187.257 172.22H186.16V173.317H187.257V172.22Z" fill="#033C59"/>
<path d="M188.354 152.477H187.257V153.574H188.354V152.477Z" fill="#033C59"/>
<path d="M188.354 153.574H187.257V154.671H188.354V153.574Z" fill="#033C59"/>
<path d="M188.354 154.671H187.257V155.767H188.354V154.671Z" fill="#033C59"/>
<path d="M188.354 155.767H187.257V156.864H188.354V155.767Z" fill="#033C59"/>
<path d="M188.354 157.961H187.257V159.058H188.354V157.961Z" fill="#033C59"/>
<path d="M188.354 159.058H187.257V160.155H188.354V159.058Z" fill="#033C59"/>
<path d="M188.354 163.445H187.257V164.542H188.354V163.445Z" fill="#033C59"/>
<path d="M188.354 165.639H187.257V166.736H188.354V165.639Z" fill="#033C59"/>
<path d="M188.354 170.026H187.257V171.123H188.354V170.026Z" fill="#033C59"/>
<path d="M188.354 171.123H187.257V172.22H188.354V171.123Z" fill="#033C59"/>
<path d="M189.451 143.702H188.354V144.799H189.451V143.702Z" fill="#033C59"/>
<path d="M189.451 144.799H188.354V145.896H189.451V144.799Z" fill="#033C59"/>
<path d="M189.451 145.896H188.354V146.993H189.451V145.896Z" fill="#033C59"/>
<path d="M189.451 146.993H188.354V148.09H189.451V146.993Z" fill="#033C59"/>
<path d="M189.451 148.09H188.354V149.186H189.451V148.09Z" fill="#033C59"/>
<path d="M189.451 149.186H188.354V150.283H189.451V149.186Z" fill="#033C59"/>
<path d="M189.451 150.283H188.354V151.38H189.451V150.283Z" fill="#033C59"/>
<path d="M189.451 152.477H188.354V153.574H189.451V152.477Z" fill="#033C59"/>
<path d="M189.451 153.574H188.354V154.671H189.451V153.574Z" fill="#033C59"/>
<path d="M189.451 155.767H188.354V156.864H189.451V155.767Z" fill="#033C59"/>
<path d="M189.451 157.961H188.354V159.058H189.451V157.961Z" fill="#033C59"/>
<path d="M189.451 162.349H188.354V163.445H189.451V162.349Z" fill="#033C59"/>
<path d="M189.451 164.542H188.354V165.639H189.451V164.542Z" fill="#033C59"/>
<path d="M189.451 165.639H188.354V166.736H189.451V165.639Z" fill="#033C59"/>
<path d="M189.451 167.833H188.354V168.93H189.451V167.833Z" fill="#033C59"/>
<path d="M189.451 170.026H188.354V171.123H189.451V170.026Z" fill="#033C59"/>
<path d="M189.451 173.317H188.354V174.414H189.451V173.317Z" fill="#033C59"/>
<path d="M189.451 174.414H188.354V175.511H189.451V174.414Z" fill="#033C59"/>
<path d="M190.548 143.702H189.451V144.799H190.548V143.702Z" fill="#033C59"/>
<path d="M190.548 150.283H189.451V151.38H190.548V150.283Z" fill="#033C59"/>
<path d="M190.548 153.574H189.451V154.671H190.548V153.574Z" fill="#033C59"/>
<path d="M190.548 155.767H189.451V156.864H190.548V155.767Z" fill="#033C59"/>
<path d="M190.548 160.155H189.451V161.252H190.548V160.155Z" fill="#033C59"/>
<path d="M190.548 161.252H189.451V162.349H190.548V161.252Z" fill="#033C59"/>
<path d="M190.548 162.349H189.451V163.445H190.548V162.349Z" fill="#033C59"/>
<path d="M190.548 163.445H189.451V164.542H190.548V163.445Z" fill="#033C59"/>
<path d="M190.548 164.542H189.451V165.639H190.548V164.542Z" fill="#033C59"/>
<path d="M190.548 165.639H189.451V166.736H190.548V165.639Z" fill="#033C59"/>
<path d="M190.548 170.026H189.451V171.123H190.548V170.026Z" fill="#033C59"/>
<path d="M190.548 172.22H189.451V173.317H190.548V172.22Z" fill="#033C59"/>
<path d="M190.548 173.317H189.451V174.414H190.548V173.317Z" fill="#033C59"/>
<path d="M190.548 174.414H189.451V175.511H190.548V174.414Z" fill="#033C59"/>
<path d="M191.645 143.702H190.548V144.799H191.645V143.702Z" fill="#033C59"/>
<path d="M191.645 145.896H190.548V146.993H191.645V145.896Z" fill="#033C59"/>
<path d="M191.645 146.993H190.548V148.09H191.645V146.993Z" fill="#033C59"/>
<path d="M191.645 148.09H190.548V149.186H191.645V148.09Z" fill="#033C59"/>
<path d="M191.645 150.283H190.548V151.38H191.645V150.283Z" fill="#033C59"/>
<path d="M191.645 152.477H190.548V153.574H191.645V152.477Z" fill="#033C59"/>
<path d="M191.645 153.574H190.548V154.671H191.645V153.574Z" fill="#033C59"/>
<path d="M191.645 154.671H190.548V155.767H191.645V154.671Z" fill="#033C59"/>
<path d="M191.645 155.767H190.548V156.864H191.645V155.767Z" fill="#033C59"/>
<path d="M191.645 160.155H190.548V161.252H191.645V160.155Z" fill="#033C59"/>
<path d="M191.645 161.252H190.548V162.349H191.645V161.252Z" fill="#033C59"/>
<path d="M191.645 165.639H190.548V166.736H191.645V165.639Z" fill="#033C59"/>
<path d="M191.645 166.736H190.548V167.833H191.645V166.736Z" fill="#033C59"/>
<path d="M191.645 167.833H190.548V168.93H191.645V167.833Z" fill="#033C59"/>
<path d="M191.645 168.93H190.548V170.026H191.645V168.93Z" fill="#033C59"/>
<path d="M191.645 170.026H190.548V171.123H191.645V170.026Z" fill="#033C59"/>
<path d="M191.645 171.123H190.548V172.22H191.645V171.123Z" fill="#033C59"/>
<path d="M191.645 173.317H190.548V174.414H191.645V173.317Z" fill="#033C59"/>
<path d="M191.645 174.414H190.548V175.511H191.645V174.414Z" fill="#033C59"/>
<path d="M192.742 143.702H191.645V144.799H192.742V143.702Z" fill="#033C59"/>
<path d="M192.742 145.896H191.645V146.993H192.742V145.896Z" fill="#033C59"/>
<path d="M192.742 146.993H191.645V148.09H192.742V146.993Z" fill="#033C59"/>
<path d="M192.742 148.09H191.645V149.186H192.742V148.09Z" fill="#033C59"/>
<path d="M192.742 150.283H191.645V151.38H192.742V150.283Z" fill="#033C59"/>
<path d="M192.742 154.671H191.645V155.767H192.742V154.671Z" fill="#033C59"/>
<path d="M192.742 157.961H191.645V159.058H192.742V157.961Z" fill="#033C59"/>
<path d="M192.742 160.155H191.645V161.252H192.742V160.155Z" fill="#033C59"/>
<path d="M192.742 161.252H191.645V162.349H192.742V161.252Z" fill="#033C59"/>
<path d="M192.742 165.639H191.645V166.736H192.742V165.639Z" fill="#033C59"/>
<path d="M192.742 171.123H191.645V172.22H192.742V171.123Z" fill="#033C59"/>
<path d="M192.742 172.22H191.645V173.317H192.742V172.22Z" fill="#033C59"/>
<path d="M192.742 173.317H191.645V174.414H192.742V173.317Z" fill="#033C59"/>
<path d="M193.838 143.702H192.742V144.799H193.838V143.702Z" fill="#033C59"/>
<path d="M193.838 145.896H192.742V146.993H193.838V145.896Z" fill="#033C59"/>
<path d="M193.838 146.993H192.742V148.09H193.838V146.993Z" fill="#033C59"/>
<path d="M193.838 148.09H192.742V149.186H193.838V148.09Z" fill="#033C59"/>
<path d="M193.838 150.283H192.742V151.38H193.838V150.283Z" fill="#033C59"/>
<path d="M193.838 154.671H192.742V155.767H193.838V154.671Z" fill="#033C59"/>
<path d="M193.838 156.864H192.742V157.961H193.838V156.864Z" fill="#033C59"/>
<path d="M193.838 157.961H192.742V159.058H193.838V157.961Z" fill="#033C59"/>
<path d="M193.838 162.349H192.742V163.445H193.838V162.349Z" fill="#033C59"/>
<path d="M193.838 164.542H192.742V165.639H193.838V164.542Z" fill="#033C59"/>
<path d="M193.838 165.639H192.742V166.736H193.838V165.639Z" fill="#033C59"/>
<path d="M193.838 167.833H192.742V168.93H193.838V167.833Z" fill="#033C59"/>
<path d="M193.838 170.026H192.742V171.123H193.838V170.026Z" fill="#033C59"/>
<path d="M193.838 172.22H192.742V173.317H193.838V172.22Z" fill="#033C59"/>
<path d="M194.935 143.702H193.838V144.799H194.935V143.702Z" fill="#033C59"/>
<path d="M194.935 150.283H193.838V151.38H194.935V150.283Z" fill="#033C59"/>
<path d="M194.935 154.671H193.838V155.767H194.935V154.671Z" fill="#033C59"/>
<path d="M194.935 156.864H193.838V157.961H194.935V156.864Z" fill="#033C59"/>
<path d="M194.935 159.058H193.838V160.155H194.935V159.058Z" fill="#033C59"/>
<path d="M194.935 160.155H193.838V161.252H194.935V160.155Z" fill="#033C59"/>
<path d="M194.935 161.252H193.838V162.349H194.935V161.252Z" fill="#033C59"/>
<path d="M194.935 164.542H193.838V165.639H194.935V164.542Z" fill="#033C59"/>
<path d="M194.935 167.833H193.838V168.93H194.935V167.833Z" fill="#033C59"/>
<path d="M194.935 168.93H193.838V170.026H194.935V168.93Z" fill="#033C59"/>
<path d="M194.935 170.026H193.838V171.123H194.935V170.026Z" fill="#033C59"/>
<path d="M194.935 171.123H193.838V172.22H194.935V171.123Z" fill="#033C59"/>
<path d="M194.935 173.317H193.838V174.414H194.935V173.317Z" fill="#033C59"/>
<path d="M194.935 174.414H193.838V175.511H194.935V174.414Z" fill="#033C59"/>
<path d="M196.032 143.702H194.935V144.799H196.032V143.702Z" fill="#033C59"/>
<path d="M196.032 144.799H194.935V145.896H196.032V144.799Z" fill="#033C59"/>
<path d="M196.032 145.896H194.935V146.993H196.032V145.896Z" fill="#033C59"/>
<path d="M196.032 146.993H194.935V148.09H196.032V146.993Z" fill="#033C59"/>
<path d="M196.032 148.09H194.935V149.186H196.032V148.09Z" fill="#033C59"/>
<path d="M196.032 149.186H194.935V150.283H196.032V149.186Z" fill="#033C59"/>
<path d="M196.032 150.283H194.935V151.38H196.032V150.283Z" fill="#033C59"/>
<path d="M196.032 153.574H194.935V154.671H196.032V153.574Z" fill="#033C59"/>
<path d="M196.032 156.864H194.935V157.961H196.032V156.864Z" fill="#033C59"/>
<path d="M196.032 157.961H194.935V159.058H196.032V157.961Z" fill="#033C59"/>
<path d="M196.032 159.058H194.935V160.155H196.032V159.058Z" fill="#033C59"/>
<path d="M196.032 164.542H194.935V165.639H196.032V164.542Z" fill="#033C59"/>
<path d="M196.032 165.639H194.935V166.736H196.032V165.639Z" fill="#033C59"/>
<path d="M196.032 166.736H194.935V167.833H196.032V166.736Z" fill="#033C59"/>
<path d="M196.032 168.93H194.935V170.026H196.032V168.93Z" fill="#033C59"/>
<path d="M196.032 170.026H194.935V171.123H196.032V170.026Z" fill="#033C59"/>
<path d="M196.032 172.22H194.935V173.317H196.032V172.22Z" fill="#033C59"/>
<path d="M83.3068 141.255C93.2635 141.644 98.9636 148.159 100.75 154.449C103.424 163.867 98.2657 173.489 88.9245 176.595C88.5647 176.716 88.2093 176.833 87.8495 176.954C75.8251 179.883 64.7847 170.75 65.1358 158.709C65.4045 149.593 72.9469 141.864 82.1754 141.329C82.5525 141.307 82.9296 141.281 83.3068 141.255Z" fill="#FFEFC5"/>
<path d="M83.5277 147.372C80.3224 147.372 77.7166 149.978 77.7166 153.184C77.7166 156.328 80.1756 158.872 83.3809 158.983C83.4788 158.97 83.5767 158.97 83.6501 158.983C83.6745 158.983 83.6868 158.983 83.7112 158.983C83.7235 158.983 83.7235 158.983 83.7357 158.983C86.8676 158.872 89.3267 156.328 89.3389 153.184C89.3389 149.978 86.7331 147.372 83.5277 147.372Z" fill="#EFA145"/>
<path d="M89.7426 162.237C86.3293 159.961 80.7628 159.961 77.325 162.237C75.7713 163.276 74.9149 164.683 74.9149 166.188C74.9149 167.693 75.7713 169.088 77.3128 170.115C79.0256 171.265 81.2766 171.84 83.5277 171.84C85.7788 171.84 88.0298 171.265 89.7426 170.115C91.2841 169.075 92.1405 167.681 92.1405 166.164C92.1282 164.659 91.2841 163.264 89.7426 162.237Z" fill="#EFA145"/>
<rect x="74.7673" y="91.4112" width="218.566" height="4.55346" fill="#033C59"/>
<path d="M75.9056 91.4112H292.195V78.9206C292.195 74.5024 288.613 70.9206 284.195 70.9206H83.9056C79.4874 70.9206 75.9056 74.5023 75.9056 78.9206V91.4112Z" fill="#B7DFFF"/>
<circle cx="86.1509" cy="81.1659" r="3.41509" fill="#175CD3"/>
<circle cx="96.3962" cy="81.1659" r="3.41509" fill="#175CD3"/>
<circle cx="106.641" cy="81.1659" r="3.41509" fill="#175CD3"/>
<mask id="path-479-inside-1_11430_8251" fill="white">
<path fill-rule="evenodd" clip-rule="evenodd" d="M281.459 112.301C296.949 109.267 307.047 94.2496 304.013 78.7591C300.979 63.2686 285.962 53.1706 270.472 56.2046C254.981 59.2387 244.883 74.2558 247.917 89.7463C248.718 93.8352 250.354 97.5483 252.613 100.743L248.873 109.754C247.907 112.082 250.069 114.492 252.487 113.783L264.267 110.333C269.474 112.673 275.43 113.482 281.459 112.301Z"/>
</mask>
<path fill-rule="evenodd" clip-rule="evenodd" d="M281.459 112.301C296.949 109.267 307.047 94.2496 304.013 78.7591C300.979 63.2686 285.962 53.1706 270.472 56.2046C254.981 59.2387 244.883 74.2558 247.917 89.7463C248.718 93.8352 250.354 97.5483 252.613 100.743L248.873 109.754C247.907 112.082 250.069 114.492 252.487 113.783L264.267 110.333C269.474 112.673 275.43 113.482 281.459 112.301Z" fill="white"/>
<path d="M252.613 100.743L256.307 102.277L257.154 100.237L255.879 98.4342L252.613 100.743ZM248.873 109.754L252.568 111.287L252.568 111.287L248.873 109.754ZM252.487 113.783L251.363 109.944L251.363 109.944L252.487 113.783ZM264.267 110.333L265.907 106.684L264.56 106.079L263.142 106.494L264.267 110.333ZM300.088 79.5279C302.697 92.8505 294.013 105.766 280.69 108.375L282.228 116.226C299.886 112.767 311.397 95.6487 307.939 77.9902L300.088 79.5279ZM271.24 60.13C284.563 57.5206 297.478 66.2053 300.088 79.5279L307.939 77.9902C304.48 60.3318 287.361 48.8205 269.703 52.2792L271.24 60.13ZM251.843 88.9775C249.233 75.6549 257.918 62.7395 271.24 60.13L269.703 52.2792C252.044 55.7379 240.533 72.8567 243.992 90.5152L251.843 88.9775ZM255.879 98.4342C253.94 95.6912 252.533 92.5013 251.843 88.9775L243.992 90.5152C244.903 95.1691 246.768 99.4055 249.347 103.053L255.879 98.4342ZM252.568 111.287L256.307 102.277L248.918 99.2102L245.179 108.221L252.568 111.287ZM251.363 109.944C252.169 109.708 252.89 110.511 252.568 111.287L245.179 108.221C242.924 113.653 247.968 119.275 253.612 117.622L251.363 109.944ZM263.142 106.494L251.363 109.944L253.612 117.622L265.391 114.171L263.142 106.494ZM280.69 108.375C275.5 109.392 270.384 108.697 265.907 106.684L262.627 113.981C268.564 116.65 275.361 117.571 282.228 116.226L280.69 108.375Z" fill="#033C59" mask="url(#path-479-inside-1_11430_8251)"/>
<path d="M266.337 90.4127C266.773 91.139 267.306 91.8169 267.911 92.4222C272.366 96.8769 279.604 96.8769 284.083 92.4222C285.899 90.6064 286.94 88.3063 287.279 85.9579" stroke="#1570EF" strokeWidth="4" stroke-linecap="round" stroke-linejoin="round"/>
<path d="M264.715 82.7137C265.054 80.3411 266.095 78.0652 267.911 76.2494C272.366 71.7947 279.604 71.7947 284.083 76.2494C284.713 76.8789 285.221 77.5568 285.657 78.2589" stroke="#1570EF" strokeWidth="4" stroke-linecap="round" stroke-linejoin="round"/>
<path d="M265.877 96.8766V90.4125H272.341" stroke="#1570EF" strokeWidth="4" stroke-linecap="round" stroke-linejoin="round"/>
<path d="M286.117 71.7948V78.259H279.653" stroke="#1570EF" strokeWidth="4" stroke-linecap="round" stroke-linejoin="round"/>
<mask id="path-485-outside-2_11430_8251" maskUnits="userSpaceOnUse" x="225.969" y="128" width="41" height="41" fill="black">
<rect fill="white" x="225.969" y="128" width="41" height="41"/>
<path fill-rule="evenodd" clip-rule="evenodd" d="M244.301 131C242.644 131 241.301 132.343 241.301 134V144.281H231.969C230.312 144.281 228.969 145.624 228.969 147.281L228.969 149.819C228.969 151.476 230.312 152.819 231.969 152.819H241.301V162.151C241.301 163.808 242.644 165.151 244.301 165.151H247.787C249.444 165.151 250.787 163.808 250.787 162.151V152.819H260.119C261.776 152.819 263.119 151.476 263.119 149.819V147.281C263.119 145.624 261.776 144.281 260.119 144.281H250.787V134C250.787 132.343 249.444 131 247.787 131H244.301Z"/>
</mask>
<path fill-rule="evenodd" clip-rule="evenodd" d="M244.301 131C242.644 131 241.301 132.343 241.301 134V144.281H231.969C230.312 144.281 228.969 145.624 228.969 147.281L228.969 149.819C228.969 151.476 230.312 152.819 231.969 152.819H241.301V162.151C241.301 163.808 242.644 165.151 244.301 165.151H247.787C249.444 165.151 250.787 163.808 250.787 162.151V152.819H260.119C261.776 152.819 263.119 151.476 263.119 149.819V147.281C263.119 145.624 261.776 144.281 260.119 144.281H250.787V134C250.787 132.343 249.444 131 247.787 131H244.301Z" fill="#EE5350"/>
<path d="M241.301 144.281V147.281C242.958 147.281 244.301 145.938 244.301 144.281H241.301ZM228.969 147.281L225.969 147.281L228.969 147.281ZM228.969 149.819L231.969 149.819L228.969 149.819ZM241.301 152.819H244.301C244.301 151.162 242.958 149.819 241.301 149.819V152.819ZM250.787 152.819V149.819C249.13 149.819 247.787 151.162 247.787 152.819H250.787ZM260.119 144.281L260.119 147.281L260.119 147.281L260.119 144.281ZM250.787 144.281H247.787C247.787 145.938 249.13 147.281 250.787 147.281V144.281ZM244.301 134V134V128C240.987 128 238.301 130.686 238.301 134H244.301ZM244.301 144.281V134H238.301V144.281H244.301ZM231.969 147.281H241.301V141.281H231.969V147.281ZM231.969 147.281L231.969 147.281V141.281C228.655 141.281 225.969 143.967 225.969 147.281L231.969 147.281ZM231.969 149.819L231.969 147.281L225.969 147.281L225.969 149.819L231.969 149.819ZM231.969 149.819L231.969 149.819L225.969 149.819C225.969 153.132 228.655 155.819 231.969 155.819V149.819ZM241.301 149.819H231.969V155.819H241.301V149.819ZM244.301 162.151V152.819H238.301V162.151H244.301ZM244.301 162.151H244.301H238.301C238.301 165.465 240.987 168.151 244.301 168.151V162.151ZM247.787 162.151H244.301V168.151H247.787V162.151ZM247.787 162.151V162.151V168.151C251.101 168.151 253.787 165.465 253.787 162.151H247.787ZM247.787 152.819V162.151H253.787V152.819H247.787ZM260.119 149.819H250.787V155.819H260.119V149.819ZM260.119 149.819V155.819C263.433 155.819 266.119 153.132 266.119 149.819H260.119ZM260.119 147.281V149.819H266.119V147.281H260.119ZM260.119 147.281L260.119 147.281H266.119C266.119 143.967 263.433 141.281 260.119 141.281L260.119 147.281ZM250.787 147.281H260.119V141.281H250.787V147.281ZM247.787 134V144.281H253.787V134H247.787ZM247.787 134L247.787 134H253.787C253.787 130.686 251.101 128 247.787 128V134ZM244.301 134H247.787V128H244.301V134Z" fill="#033C59" mask="url(#path-485-outside-2_11430_8251)"/>
</g>
</svg>
