<svg width="383" height="221" viewBox="0 0 383 221" fill="none" xmlns="http://www.w3.org/2000/svg">
<mask id="mask0_9966_3432" style="mask-type:alpha" maskUnits="userSpaceOnUse" x="0" y="0" width="383" height="221">
<rect width="383" height="221" fill="#D9D9D9"/>
</mask>
<g mask="url(#mask0_9966_3432)">
<rect width="32.5413" height="219.9" rx="16.2707" transform="matrix(0.5118 -0.859104 -0.859104 -0.5118 268.902 163.62)" fill="#EFF1F5"/>
<rect width="32.5413" height="36.4095" rx="16.2707" transform="matrix(0.5118 -0.859104 -0.859104 -0.5118 305.351 185.334)" fill="#EFF1F5"/>
<rect width="32.5413" height="219.9" rx="16.2707" transform="matrix(0.5118 -0.859104 -0.859104 -0.5118 355.991 174.108)" fill="#EFF1F5"/>
<rect width="32.5413" height="219.9" rx="16.2707" transform="matrix(0.5118 -0.859104 -0.859104 -0.5118 276.46 209.516)" fill="#EFF1F5"/>
<rect width="32.5413" height="79.7122" rx="16.2707" transform="matrix(0.5118 -0.859104 -0.859104 -0.5118 81.8335 91.9466)" fill="#EFF1F5"/>
<rect width="32.5413" height="219.9" rx="16.2707" transform="matrix(0.5118 -0.859104 -0.859104 -0.5118 208.782 211.402)" fill="#EFF1F5"/>
<path d="M124.811 181C124.694 180.727 124.42 180.727 124.225 180.649C120.204 179.282 118.056 176.315 118.017 172.059C117.978 164.876 118.017 157.731 118.017 150.547C118.017 133.72 118.017 116.893 118.017 100.027C118.017 94.2873 119.852 91.7887 125.357 90.1879C126.099 89.9927 125.943 89.5242 125.943 89.0947C125.943 87.1426 125.943 85.1905 125.943 83.2384C125.943 68.988 125.943 54.7376 125.943 40.4872C125.943 34.5138 129.418 31.039 135.352 31.039C176.034 31.039 216.755 31.0781 257.437 31C262.669 31 266.963 34.748 266.924 40.4872C266.807 68.4805 266.807 96.5127 266.924 124.506C266.963 129.621 263.449 134.071 257.437 133.993C243.889 133.876 230.303 133.993 216.755 133.915C215.428 133.915 215.154 134.306 215.193 135.516C215.271 140.435 215.271 145.354 215.193 150.313C215.193 151.406 215.428 151.718 216.56 151.679C219.722 151.601 219.683 151.679 219.761 154.803C219.8 155.974 219.371 156.13 218.356 156.13C206.838 156.091 195.321 156.13 183.803 156.091C182.437 156.091 182.125 156.442 182.125 157.77C182.203 162.025 182.164 166.242 182.164 170.498C182.164 176.549 180.524 178.931 174.902 180.922C158.192 181 141.521 181 124.811 181Z" fill="#344054"/>
<path d="M262.395 39.5892C262.395 40.0577 262.434 40.5653 262.434 41.0338C262.434 63.8344 262.434 86.596 262.473 109.397C262.473 110.646 262.278 111.114 260.873 111.114C235.144 111.075 209.454 111.075 183.725 111.114C182.515 111.114 182.047 110.919 182.086 109.553C182.203 106.351 182.008 103.111 182.164 99.9094C182.437 94.2483 178.377 90.0317 172.364 90.1098C158.895 90.305 145.425 90.1879 131.956 90.2269C130.706 90.2269 130.316 89.9927 130.316 88.6652C130.355 72.6579 130.355 56.6507 130.355 40.6434C130.355 39.9797 130.16 39.2769 130.628 38.6522C131.37 39.4331 131.136 40.4091 131.136 41.3071C131.136 56.3383 131.136 71.3696 131.136 86.4008C131.136 86.9474 131.136 87.494 131.136 88.0015C131.136 88.9385 131.409 89.4851 132.463 89.4851C133.478 89.4851 134.025 89.0947 133.986 88.0406C133.986 87.5721 133.986 87.0645 133.986 86.596C133.986 73.8292 133.986 61.0234 133.986 48.2566C133.986 47.5148 133.947 46.773 134.025 46.0702C134.337 42.2831 136.914 39.6673 140.662 39.2379C141.443 39.1598 142.224 39.1598 143.004 39.1598C181.812 39.1598 220.581 39.1598 259.389 39.1598C260.443 39.1207 261.497 38.9255 262.395 39.5892Z" fill="white"/>
<path d="M203.303 100.495H197.747L196.838 103.121H193L198.354 88.2727H202.596L207.949 103.121H204.111L203.303 100.495ZM202.293 97.7676L200.475 92.3131L198.657 97.7676H202.293Z" fill="#1570EF"/>
<path d="M220.677 96.8585C221.182 97.5655 221.485 98.2726 221.485 99.1817C221.485 100.394 221.081 101.404 220.172 102.111C219.263 102.818 218.051 103.222 216.536 103.222H209.566V88.3737H216.233C217.748 88.3737 218.96 88.6767 219.768 89.3838C220.576 90.0908 221.081 90.9999 221.081 92.212C221.081 93.1211 220.879 93.8282 220.374 94.4342C219.869 95.0403 219.263 95.4443 218.556 95.6463C219.465 95.7474 220.172 96.1514 220.677 96.8585ZM213.303 94.3332H215.626C216.233 94.3332 216.637 94.2322 217.041 93.9292C217.344 93.6262 217.546 93.3231 217.546 92.8181C217.546 92.313 217.344 91.909 217.041 91.606C216.738 91.3029 216.233 91.2019 215.626 91.2019H213.202V94.3332H213.303ZM217.344 99.7877C217.647 99.4847 217.849 99.0807 217.849 98.5756C217.849 98.0706 217.647 97.6665 217.344 97.3635C217.041 97.0605 216.536 96.9595 215.93 96.9595H213.303V100.293H215.93C216.536 100.192 217.041 100.091 217.344 99.7877Z" fill="#1570EF"/>
<path d="M236.535 88.2727V103.121H232.898V96.9595H227.242V103.121H223.605V88.2727H227.242V94.1313H232.898V88.2727H236.535Z" fill="#1570EF"/>
<path d="M248.353 100.495H242.798L241.889 103.121H238.05L243.404 88.2727H247.646L253 103.121H249.161L248.353 100.495ZM247.444 97.7676L245.626 92.3131L243.808 97.7676H247.444Z" fill="#1570EF"/>
<path d="M177.557 98.7382C177.596 99.2848 177.635 99.7923 177.635 100.339C177.635 123.959 177.635 147.541 177.635 171.161C177.635 175.222 176.268 176.588 172.208 176.588C157.177 176.588 142.146 176.588 127.153 176.588C126.685 176.588 126.177 176.705 125.748 176.393C126.177 175.378 126.177 174.324 126.177 173.231C126.177 151.289 126.177 129.347 126.177 107.366C126.177 106.703 126.177 106 126.177 105.336C126.372 100.534 130.121 97.606 134.845 98.4649C136.367 102.564 138.554 104.087 143.004 104.087C147.69 104.087 152.375 103.97 157.06 104.126C161.12 104.243 163.853 102.564 165.298 98.7382C165.766 98.3087 166.352 98.2697 166.937 98.2697C169.944 98.2697 172.95 98.2697 175.956 98.2697C176.503 98.2697 177.088 98.3087 177.557 98.7382Z" fill="white"/>
<path d="M222.416 115.487C235.144 115.487 247.872 115.487 260.639 115.487C262.747 115.487 262.474 115.253 262.474 117.4C262.474 119.977 262.513 122.554 262.474 125.17C262.434 127.864 260.795 129.542 258.062 129.542C233.192 129.542 208.283 129.542 183.413 129.581C182.476 129.581 182.164 129.347 182.164 128.371C182.203 124.584 182.242 120.758 182.164 116.971C182.125 115.8 182.515 115.526 183.647 115.526C196.531 115.487 209.493 115.487 222.416 115.487Z" fill="#98A2B3"/>
<path d="M262.395 39.5892C222.299 39.5892 182.203 39.5892 142.107 39.5892C137.187 39.5892 134.493 42.2832 134.493 47.1634C134.493 60.8282 134.493 74.4929 134.493 88.1577C134.493 88.7433 134.884 89.6413 134.103 89.8365C133.088 90.1098 131.956 90.1488 130.941 89.7584C130.472 89.5632 130.706 88.8605 130.706 88.392C130.706 81.7548 130.706 75.1176 130.706 68.4804C130.706 58.5247 130.667 48.5689 130.667 38.6132C131.058 36.7782 132.307 35.9193 133.986 35.6069C134.493 35.4898 135.04 35.5289 135.587 35.5289C176.151 35.5289 216.716 35.5289 257.281 35.5289C258.686 35.5289 259.975 35.685 261.107 36.622C262.005 37.4419 262.239 38.4961 262.395 39.5892Z" fill="#EAECF0"/>
<path d="M134.805 98.4258C134.337 98.9333 133.712 98.6991 133.127 98.6991C129.379 98.7381 126.567 101.51 126.567 105.258C126.528 110.763 126.567 116.268 126.567 121.773C126.567 139.42 126.567 157.067 126.567 174.714C126.567 175.378 126.919 176.276 125.709 176.315C123.717 175.768 122.624 174.48 122.507 172.489C122.468 172.059 122.507 171.63 122.507 171.161C122.507 147.346 122.507 123.569 122.507 99.7532C122.507 95.9661 123.952 94.5216 127.661 94.5216C129.652 94.5216 131.643 94.5606 133.673 94.5216C134.493 94.5216 134.805 94.7168 134.766 95.5757C134.688 96.5908 134.766 97.4888 134.805 98.4258Z" fill="#EAECF0"/>
<path d="M210.625 137.976C210.664 142.27 210.664 146.526 210.703 150.82C210.703 151.484 210.508 151.757 209.805 151.757C201.88 151.718 193.954 151.718 185.99 151.679C185.482 151.172 185.56 150.508 185.521 149.883C185.521 147.111 185.482 144.339 185.521 141.567C185.56 138.756 186.849 137.507 189.699 137.507C196.024 137.468 202.348 137.507 208.673 137.507C209.376 137.507 210.079 137.468 210.625 137.976Z" fill="#BDC2C6"/>
<path d="M210.625 137.976C203.52 137.976 196.414 137.976 189.308 137.976C187.161 137.976 186.029 139.108 186.029 141.333C186.029 144.808 186.029 148.244 186.029 151.718C182.164 151.953 182.164 151.953 182.164 148.127C182.164 143.871 182.203 139.654 182.125 135.399C182.125 134.423 182.32 134.032 183.374 134.071C192.041 134.11 200.748 134.11 209.415 134.071C210.469 134.071 210.781 134.384 210.703 135.399C210.625 136.219 210.664 137.078 210.625 137.976Z" fill="#D6D9DC"/>
<path d="M160.886 96.3956C160.886 98.4258 159.988 99.5971 158.192 99.6361C153.116 99.6752 148.08 99.6361 143.004 99.5971C141.989 98.3868 142.263 96.9813 143.707 96.3175C144.449 95.9662 145.23 95.9662 146.011 95.9662C150.344 95.9662 154.678 95.9662 159.012 95.9662C159.597 95.9271 160.3 95.9271 160.886 96.3956Z" fill="#E9E9E9"/>
<path d="M160.886 96.3956C155.693 96.3956 150.461 96.3956 145.269 96.3956C143.004 96.3956 142.302 97.4498 143.004 99.558C139.569 100.027 138.944 97.5278 139.217 95.0291C139.295 94.2093 139.998 94.5997 140.389 94.5997C145.659 94.5606 150.93 94.5997 156.201 94.5997C157.255 94.5997 158.348 94.6778 159.402 94.5606C160.886 94.4045 161.237 95.0682 160.886 96.3956Z" fill="#FEFEFE"/>
<path d="M177.557 98.7382C173.457 98.7382 169.358 98.7382 165.259 98.7382C165.337 97.6841 165.454 96.6299 165.454 95.5758C165.454 94.7559 165.805 94.6388 166.508 94.6388C168.889 94.6778 171.271 94.5997 173.614 94.6778C175.995 94.6778 177.479 96.3176 177.557 98.7382Z" fill="#EAECF0"/>
<path d="M196.414 80.5835C184.819 80.5835 173.184 80.5835 161.588 80.5835C155.81 80.5835 152.296 77.0697 152.296 71.3305C152.296 65.1228 152.296 58.9542 152.296 52.7465C152.296 47.0854 155.81 43.5325 161.51 43.5325C184.819 43.5325 208.127 43.4935 231.435 43.5325C237.018 43.5325 240.571 47.0854 240.61 52.6684C240.649 58.9151 240.649 65.1619 240.61 71.4086C240.571 77.0697 237.018 80.6226 231.357 80.6226C219.722 80.5835 208.088 80.5835 196.414 80.5835Z" fill="#344054"/>
<path d="M149.954 162.611C140.74 162.533 133.205 157.536 130.159 149.493C129.496 147.736 129.183 145.94 128.988 144.066C128.871 142.895 129.027 141.802 129.574 140.669C132.346 134.852 132.697 128.996 129.886 123.061C129.105 121.422 129.457 120.485 131.097 119.548C133.439 118.22 135.782 116.932 138.085 115.565C138.983 115.019 139.92 114.941 140.896 115.253C143.551 115.995 146.245 116.737 148.9 117.517C149.72 117.752 150.5 117.752 151.32 117.517C153.897 116.737 156.474 116.073 159.051 115.331C160.222 114.98 161.198 115.058 162.252 115.682C164.517 117.01 166.859 118.259 169.124 119.587C170.685 120.485 170.959 121.5 170.217 123.14C167.757 128.488 167.601 133.993 170.022 139.303C171.661 142.856 171.232 146.135 169.983 149.454C167.211 156.95 161.51 160.854 153.858 162.26C152.57 162.533 151.242 162.65 149.954 162.611Z" fill="#344054"/>
<path d="M236.483 51.9129C236.483 58.5891 236.561 65.2653 236.522 71.9805C236.522 74.0888 234.882 75.6895 232.696 75.8848C232.149 75.9238 231.642 75.9238 231.095 75.9238C208.021 75.9238 184.947 75.9238 161.834 75.9238C161.327 75.9238 160.741 76.08 160.273 75.6895C160.663 74.8306 160.741 73.9326 160.741 72.9956C160.741 68.4667 160.702 63.9379 160.741 59.409C160.78 54.1773 163.435 51.4834 168.706 51.4834C190.452 51.4834 212.199 51.4834 233.945 51.4834C234.804 51.4834 235.741 51.2882 236.483 51.9129Z" fill="#57CDAD"/>
<g clip-path="url(#clip0_9966_3432)">
<path d="M182.994 58.6196L179.248 62.9433L179.296 63.0383L184.77 61.9455V65.414L179.248 64.4637L179.2 64.5588L182.946 68.7874L179.873 70.5454L177.904 65.2239V65.2715L175.887 70.5454L172.91 68.7874L176.608 64.5112V64.4637L171.182 65.414V61.9455L176.56 62.9908L176.608 62.9433L172.91 58.6671L175.983 56.9091L177.904 62.1356H177.952L179.921 56.9091L182.994 58.6196Z" fill="#344054"/>
</g>
<g clip-path="url(#clip1_9966_3432)">
<path d="M203.448 58.6196L199.703 62.9433L199.751 63.0384L205.225 61.9455V65.414L199.703 64.4638L199.655 64.5588L203.4 68.7875L200.327 70.5455L198.358 65.224V65.2715L196.342 70.5455L193.365 68.7875L197.062 64.5113V64.4638L191.636 65.414V61.9455L197.014 62.9908L197.062 62.9433L193.365 58.6671L196.438 56.9091L198.358 62.1356H198.406L200.375 56.9091L203.448 58.6196Z" fill="#344054"/>
</g>
<g clip-path="url(#clip2_9966_3432)">
<path d="M223.903 58.6196L220.157 62.9433L220.205 63.0384L225.679 61.9455V65.414L220.157 64.4638L220.109 64.5588L223.855 68.7875L220.782 70.5455L218.813 65.224V65.2715L216.796 70.5455L213.819 68.7875L217.517 64.5113V64.4638L212.091 65.414V61.9455L217.469 62.9908L217.517 62.9433L213.819 58.6671L216.892 56.9091L218.813 62.1356H218.861L220.83 56.9091L223.903 58.6196Z" fill="#344054"/>
</g>
<path d="M236.081 52.1609C213.319 52.1609 190.558 52.1609 167.796 52.1609C163.463 52.1609 160.847 54.7767 160.847 59.1885C160.847 64.303 160.847 69.4175 160.847 74.532C160.847 75.2348 160.925 75.9376 159.91 75.9376C157.958 75.391 156.786 74.0635 156.786 72.0724C156.747 65.3962 156.747 58.72 156.786 52.0438C156.786 49.7793 158.504 48.1786 160.808 48.0224C161.159 47.9834 161.471 47.9834 161.823 47.9834C184.936 47.9834 208.049 47.9834 231.123 47.9834C232.801 47.9834 234.324 48.2176 235.378 49.7012C235.886 50.443 236.237 51.2239 236.081 52.1609Z" fill="#6DF6AD"/>
<path d="M164.555 125.677C163.228 131.338 163.814 136.804 166.273 142.075C166.703 143.012 166.742 143.949 166.586 144.925C165.375 152.109 160.378 156.716 152.726 157.965C149.759 158.434 146.908 158.082 144.136 157.067C139.373 153.827 137.304 149.142 136.797 143.598C136.718 142.895 136.914 142.231 137.226 141.645C139.764 136.492 140.31 131.143 138.827 125.599C138.358 123.764 139.022 123.14 140.896 123.647C143.434 124.35 145.971 125.053 148.47 125.794C149.524 126.107 150.539 126.146 151.633 125.794C153.78 125.131 155.966 124.623 158.074 123.92C159.714 123.335 161.198 123.374 162.603 124.467C163.228 124.857 164.009 125.053 164.555 125.677Z" fill="#FFEAD5"/>
<path d="M164.556 125.677C163.228 125.599 162.33 124.545 161.198 124.037C160.691 123.803 160.3 123.686 159.715 123.842C156.865 124.701 154.014 125.365 151.203 126.302C149.798 126.77 148.627 126.107 147.416 125.794C145.113 125.209 142.848 124.545 140.584 123.842C140.076 123.686 139.647 123.608 139.217 123.959C138.71 124.35 139.1 124.74 139.178 125.131C140.74 130.753 140.35 136.18 137.734 141.411C136.719 143.48 137.422 145.394 137.89 147.346C138.788 151.172 140.896 154.256 144.098 156.599C144.254 156.716 144.371 156.872 144.176 157.067C138.163 155.544 133.439 149.688 133.439 143.637C133.439 143.051 133.673 142.622 133.908 142.114C136.602 136.141 137.109 130.011 135.001 123.764C134.728 122.944 134.806 122.476 135.626 122.163C135.665 122.163 135.704 122.124 135.743 122.085C138.476 119.899 141.365 119.43 144.644 120.953C148.236 122.632 151.984 122.554 155.615 120.992C155.693 120.953 155.81 120.914 155.888 120.914C160.691 119.548 160.691 119.548 164.868 122.32C165.376 122.632 165.532 122.905 165.298 123.491C164.985 124.155 164.79 124.935 164.556 125.677Z" fill="#FEB273"/>
<path d="M148.197 145.394C147.533 145.433 146.987 145.159 146.44 144.769C144.917 143.598 143.434 142.426 141.911 141.333C141.365 140.943 141.286 140.669 141.677 140.084C143.707 137.117 143.746 137.039 146.518 139.225C147.494 140.006 147.963 140.045 148.744 138.952C150.383 136.648 152.257 134.54 153.975 132.275C154.444 131.651 154.756 131.651 155.342 132.119C158.153 134.188 158.153 134.188 156.044 136.882C154.131 139.342 152.179 141.763 150.266 144.222C149.72 144.886 149.134 145.394 148.197 145.394Z" fill="#344054"/>
</g>
<defs>
<clipPath id="clip0_9966_3432">
<rect width="13.6364" height="13.6364" fill="white" transform="translate(171.182 56.9091)"/>
</clipPath>
<clipPath id="clip1_9966_3432">
<rect width="13.6364" height="13.6364" fill="white" transform="translate(191.636 56.9091)"/>
</clipPath>
<clipPath id="clip2_9966_3432">
<rect width="13.6364" height="13.6364" fill="white" transform="translate(212.091 56.9091)"/>
</clipPath>
</defs>
</svg>
