<svg width="78" height="58" viewBox="0 0 78 58" fill="none" xmlns="http://www.w3.org/2000/svg">
<rect x="2" y="2" width="74" height="54" rx="8" stroke="white" strokeWidth="2.5"/>
<g clip-path="url(#clip0_9860_2527)">
<path d="M61.2032 14.2726C61.0734 14.4756 61.0262 14.72 60.9866 14.9747C60.9381 15.2849 60.8869 15.5826 60.7808 15.8745C60.6534 16.2244 60.4392 16.6142 60.0667 16.9192C59.6824 15.8453 59.1227 14.8476 58.4119 13.9694C58.8559 13.7859 59.2917 13.7888 59.65 13.8499C59.9476 13.9008 60.2227 14.0039 60.5068 14.1154C60.7399 14.2075 60.9682 14.2875 61.2031 14.2726H61.2032ZM56.8795 9.80294L56.8794 9.80318L56.8797 9.8031C56.8653 10.0459 56.9426 10.282 57.0315 10.523C57.1395 10.8167 57.2392 11.101 57.2886 11.4086C57.3476 11.7793 57.3503 12.2304 57.1724 12.6898C56.3216 11.9561 55.3553 11.3789 54.3155 10.9831C54.6113 10.5947 54.9901 10.3719 55.33 10.2396C55.6124 10.1299 55.9004 10.0771 56.2006 10.0268C56.4468 9.98596 56.6832 9.93733 56.8795 9.80294ZM60.5219 18.6739C60.9918 18.7458 61.3657 18.9724 61.6451 19.2093C61.8782 19.4073 62.0664 19.6387 62.2587 19.8824C62.4159 20.0822 62.575 20.2696 62.7855 20.3782H60.664C60.6634 19.8069 60.6158 19.2368 60.5219 18.6739ZM45.0675 9.8031L45.0676 9.80327V9.80294C45.2639 9.93725 45.5003 9.98588 45.7467 10.0269C46.0467 10.077 46.3347 10.1299 46.6171 10.2395C46.957 10.3719 47.3358 10.5947 47.6315 10.983C46.5917 11.3787 45.6254 11.956 44.7747 12.6898C44.5967 12.2304 44.5993 11.7793 44.6586 11.4085C44.7079 11.1009 44.8075 10.8166 44.9155 10.5228C45.0044 10.2819 45.0819 10.0459 45.0675 9.8031ZM40.7439 14.2727L40.7442 14.2728L40.7441 14.2727C40.979 14.2875 41.2073 14.2075 41.4404 14.1155C41.7246 14.0039 41.9995 13.9008 42.2971 13.8499C42.6555 13.7888 43.0912 13.786 43.5352 13.9695C42.8246 14.8477 42.2649 15.8455 41.8806 16.9193C41.5079 16.6142 41.2939 16.2245 41.1663 15.8745C41.0603 15.5826 41.0091 15.2849 40.9606 14.9747C40.921 14.72 40.8739 14.4757 40.7439 14.2727ZM39.1616 20.3782C39.3723 20.2697 39.5312 20.0824 39.6886 19.8824C39.8806 19.6389 40.069 19.4075 40.3019 19.2096C40.5815 18.9724 40.9551 18.7458 41.4251 18.6741C41.3312 19.2369 41.2838 19.8071 41.2833 20.3782H39.1616ZM50.9736 8.16698V8.16723L50.9738 8.16698C51.0787 8.38482 51.2599 8.54915 51.4535 8.71199C51.6891 8.91048 51.913 9.10517 52.1044 9.346C52.3351 9.63679 52.5556 10.0262 52.6236 10.5164C52.0786 10.4197 51.5267 10.3711 50.9737 10.3711C50.4111 10.3711 49.86 10.4212 49.3236 10.5164C49.3916 10.0262 49.6122 9.63679 49.8428 9.34616C50.0344 9.10517 50.2583 8.91048 50.4939 8.71183C50.6873 8.54923 50.8685 8.38482 50.9736 8.16698Z" fill="#FAB60F"/>
<path d="M49.0028 20.3804L49.7319 20.3782C49.8277 19.7416 49.6404 19.2514 49.0175 19.3684C48.4925 19.4669 47.9287 20.0061 47.5879 20.3782L48.5492 20.3739C48.6563 20.3011 48.866 20.218 48.9521 20.2798C48.9842 20.303 49.0011 20.3359 49.0028 20.3804Z" fill="white"/>
<path d="M52.2815 20.3782H53.1911C53.2344 19.2678 53.0614 18.1211 52.562 17.1289C52.1078 16.2262 51.357 15.6126 50.385 15.4643C48.966 15.2479 47.5342 15.8689 46.3238 16.7573C45.0058 17.7246 43.918 19.0384 42.9673 20.3783L44.1689 20.3765C45.2506 18.7914 47.7387 16.385 49.569 16.3693C50.1522 16.3643 50.7454 16.5058 51.1838 16.9102C51.5015 17.2033 51.8867 17.7724 51.8678 18.2343C51.8566 18.5081 51.6215 18.5922 51.3961 18.5072C51.221 18.4414 51.0973 18.2759 50.9747 18.1019C50.5765 17.5366 49.9553 17.26 49.2739 17.3564C48.4612 17.4713 47.4538 18.1237 46.8041 18.7169C46.2438 19.2287 45.7294 19.7886 45.2442 20.3783H46.5361C47.0096 19.7873 47.5096 19.2833 48.1523 18.8695C48.3557 18.7386 48.6062 18.6 48.8694 18.5064C49.5336 18.2705 50.1945 18.3303 50.488 19.1851C50.6033 19.5212 50.6202 19.816 50.5866 20.3562V20.3783H51.465L51.4673 20.3505C51.4679 20.0547 51.4617 19.8553 51.4875 19.5621C51.5097 19.3094 51.5857 19.0475 51.8127 19.0164C52.2952 18.9119 52.2721 20.0216 52.2815 20.3783V20.3782Z" fill="white"/>
<path d="M54.1476 20.3782H55.0648C55.1092 19.348 55.0237 18.1274 54.7013 17.0616C54.6391 16.8545 54.566 16.6512 54.4823 16.4524C54.2871 15.9918 54.0244 15.5749 53.7113 15.1896C53.3631 14.7616 52.9484 14.3767 52.4808 14.0736C52.3421 13.9836 52.199 13.9013 52.052 13.8269V13.8267C51.9043 13.752 51.7527 13.6861 51.5978 13.6291L51.5972 13.6289C49.8112 12.9733 48.0048 13.4395 46.4894 14.2916C46.1977 14.4561 45.9139 14.6352 45.639 14.8283C45.3741 15.0142 45.117 15.2117 44.8685 15.4203L44.8679 15.4207C44.5135 15.7183 44.1782 16.0394 43.8642 16.382C43.7941 16.4588 43.7248 16.5371 43.6574 16.6161C43.4772 16.8274 43.1994 17.1235 43.2818 17.4297C43.3471 17.6725 43.6502 17.6009 43.7557 17.5174C43.9178 17.4275 44.0957 17.285 44.2481 17.1517C44.4543 16.9713 44.6491 16.7769 44.8533 16.594C45.6792 15.8538 46.5401 15.283 47.388 14.8967C47.5698 14.8138 47.7547 14.7381 47.9422 14.6699C48.1224 14.6043 48.3051 14.5465 48.49 14.4967L48.4908 14.4964C50.0686 14.073 51.7831 14.3473 52.8809 15.6775C53.9385 16.9588 54.1314 18.6739 54.1476 20.3783V20.3782ZM42.7678 18.9299C42.8664 18.8348 42.9668 18.7108 43.0714 18.5735C43.2178 18.3814 43.2325 18.1955 43.1746 18.0614C43.1537 18.0125 43.1222 17.9692 43.0826 17.9348C43.0443 17.9015 42.9989 17.8781 42.9502 17.8665C42.8309 17.8383 42.6882 17.8824 42.567 18.0348C42.4301 18.2071 42.2409 18.5018 42.2022 18.7625C42.1948 18.809 42.1934 18.8564 42.1979 18.9033C42.2027 18.9466 42.2139 18.9878 42.2327 19.0255L42.2329 19.0258C42.2637 19.087 42.3158 19.1192 42.3852 19.122C42.3997 19.1225 42.4153 19.1218 42.432 19.1199C42.4482 19.1181 42.4658 19.1147 42.4845 19.1102V19.1104L42.4855 19.1102C42.5789 19.087 42.6724 19.022 42.7678 18.9299V18.9299Z" fill="white"/>
<path d="M56.442 20.3786L56.4485 20.3784H56.4518C56.5478 20.3839 56.7143 20.3382 56.8104 20.1707C56.8295 20.1372 56.846 20.0989 56.8584 20.0555C56.8712 20.0112 56.88 19.961 56.8837 19.9047L56.8844 19.8931C56.9573 17.2598 56.1771 15.0798 54.8526 13.5988C54.5977 13.3134 54.3192 13.0514 54.0204 12.8159C53.7248 12.583 53.4097 12.3777 53.079 12.2024H53.0789L53.0736 12.1998L53.0734 12.1996C51.9602 11.6114 50.6974 11.3856 49.4582 11.4941C48.9749 11.5363 48.4971 11.6291 48.032 11.771L48.0287 11.7721C46.7542 12.1619 45.5681 12.9356 44.6015 13.9507C44.3195 14.2468 44.0572 14.5623 43.8164 14.895C44.4942 14.2904 45.2214 13.7601 45.9821 13.3388C46.1517 13.2447 46.3239 13.1558 46.4985 13.0721C46.6712 12.9894 46.8464 12.9123 47.0238 12.8409L47.0243 12.8407L47.0248 12.8405C47.6968 12.5704 48.3593 12.3983 49.0219 12.3213C49.6845 12.2444 50.3475 12.2626 51.0209 12.3733C51.5001 12.4522 51.9678 12.5819 52.3891 12.7633C52.4708 12.7985 52.5513 12.8358 52.63 12.8754C52.7078 12.9143 52.7843 12.9557 52.8593 12.9994H52.8594L52.8606 13.0001L52.8605 13.0002C54.3439 13.8399 55.3745 15.563 55.8284 17.5085C56.0066 18.2734 56.0942 19.0579 56.0894 19.8446V19.8448L56.0891 19.8675C56.0967 20.0781 56.1666 20.2544 56.2862 20.3338C56.3085 20.3485 56.3326 20.3601 56.3583 20.3675H56.3585C56.3847 20.3752 56.4126 20.3791 56.442 20.3786Z" fill="white"/>
<path d="M53.7896 11.6022C57.3562 12.82 59.9337 16.2874 59.9488 20.3784H58.184C58.3008 16.8048 56.792 13.5791 53.7896 11.6022Z" fill="#FAB60F"/>
<path d="M43.4341 23.2478H42.7203L42.5435 23.8908H41.9746L42.7274 21.4283H43.4482L44.2222 23.8908H43.6285L43.4341 23.2478ZM42.8016 22.8312H43.3493C43.2056 22.3501 43.1125 22.0202 43.0701 21.8411H43.063L42.95 22.3088L42.8016 22.8312ZM46.0562 23.2478H45.3423L45.1657 23.8908H44.5967L45.3493 21.4283H46.0704L46.8443 23.8908H46.2506L46.0562 23.2478ZM45.4236 22.8312H45.9713C45.8277 22.3501 45.7345 22.0202 45.6921 21.8411H45.6851L45.5721 22.3088L45.4236 22.8312ZM47.3883 23.8798V21.4612C47.6239 21.4247 47.876 21.4064 48.1445 21.4064C48.6523 21.4064 49.0169 21.516 49.2378 21.7358C49.4586 21.9557 49.5688 22.243 49.5688 22.5974C49.5688 23.0164 49.4433 23.3409 49.1918 23.5711C48.9403 23.8012 48.5522 23.9163 48.028 23.9163C47.7853 23.9163 47.5721 23.9041 47.3883 23.8798ZM47.9361 21.8631V23.467C47.9667 23.4743 48.0327 23.4779 48.134 23.4779C48.4061 23.4779 48.6169 23.4036 48.766 23.2557C48.915 23.1076 48.9892 22.8958 48.9892 22.6193C48.9892 22.366 48.9215 22.173 48.7854 22.0403C48.6493 21.9075 48.4533 21.8411 48.1976 21.8411C48.0904 21.8411 48.0032 21.8486 47.9361 21.8631ZM50.1553 21.4283H50.703V22.3745H51.6395V21.4284H52.1873V23.8908H51.6395V22.8642H50.703V23.8908H50.1553V21.4283ZM54.1732 23.2478H53.4593L53.2826 23.8908H52.7137L53.4665 21.4283H54.1873L54.9613 23.8908H54.3676L54.1732 23.2478ZM53.5406 22.8312H54.0884C53.9447 22.3501 53.8516 22.0202 53.8092 21.8411H53.8021L53.689 22.3088L53.5406 22.8312ZM56.7953 23.2478H56.0813L55.9046 23.8908H55.3357L56.0884 21.4283H56.8093L57.5833 23.8908H56.9897L56.7953 23.2478ZM56.1626 22.8312H56.7104C56.5667 22.3501 56.4736 22.0202 56.4312 21.8411H56.4241L56.311 22.3088L56.1626 22.8312ZM58.1273 23.8907V21.4612C58.3277 21.4247 58.5738 21.4064 58.866 21.4064C59.2265 21.4064 59.4856 21.4679 59.6434 21.5909C59.8013 21.7139 59.8802 21.8899 59.8802 22.1188C59.8802 22.2553 59.8407 22.3783 59.7612 22.4885C59.6839 22.5971 59.5761 22.6785 59.4526 22.7217V22.7362C59.601 22.7935 59.7082 22.9445 59.7742 23.1893C59.8955 23.6301 59.9614 23.864 59.9721 23.8908H59.4137C59.3666 23.7994 59.3101 23.6082 59.2441 23.3171C59.2111 23.1711 59.1663 23.0688 59.1098 23.0103C59.0533 22.9518 58.9625 22.9226 58.8377 22.9226H58.6681V23.8908H58.1273V23.8907ZM58.6681 21.8411V22.517H58.8942C59.0309 22.517 59.1386 22.4848 59.2176 22.4209C59.2965 22.3569 59.336 22.2711 59.336 22.1627C59.336 22.0543 59.3006 21.9702 59.2293 21.9112C59.1581 21.8521 59.0568 21.8229 58.9261 21.8229C58.7977 21.8229 58.7117 21.829 58.6681 21.8411Z" fill="white"/>
</g>
<path d="M11 46.2095H17.2791" stroke="white" strokeWidth="2.5" stroke-linecap="round"/>
<path d="M23.5581 46.2095H29.8372" stroke="white" strokeWidth="2.5" stroke-linecap="round"/>
<path d="M36.1162 46.2095H42.3953" stroke="white" strokeWidth="2.5" stroke-linecap="round"/>
<path d="M48.6743 46.2095H54.9534" stroke="white" strokeWidth="2.5" stroke-linecap="round"/>
<path d="M61.2324 46.2095H67.5115" stroke="white" strokeWidth="2.5" stroke-linecap="round"/>
<path d="M21 23C23.7614 23 26 20.7614 26 18C26 15.2386 23.7614 13 21 13C18.2386 13 16 15.2386 16 18C16 20.7614 18.2386 23 21 23Z" stroke="white" strokeWidth="2.5" stroke-linecap="round" stroke-linejoin="round"/>
<path d="M29.5901 35.3995C29.5901 31.5295 25.7402 28.3995 21.0002 28.3995C16.2602 28.3995 12.4102 31.5295 12.4102 35.3995" stroke="white" strokeWidth="2.5" stroke-linecap="round" stroke-linejoin="round"/>
<path d="M41 29H61" stroke="white" strokeWidth="2.5" stroke-linecap="round"/>
<path d="M41 35H55" stroke="white" strokeWidth="2.5" stroke-linecap="round"/>
<defs>
<clipPath id="clip0_9860_2527">
<rect width="24" height="16" fill="white" transform="translate(39 8)"/>
</clipPath>
</defs>
</svg>
