<svg width="53" height="42" viewBox="0 0 53 42" fill="none" xmlns="http://www.w3.org/2000/svg">
<path d="M33.75 11V31C33.75 39 31.75 41 23.75 41H11.75C3.75 41 1.75 39 1.75 31V11C1.75 3 3.75 1 11.75 1H23.75C31.75 1 33.75 3 33.75 11Z" stroke="#344054" strokeWidth="2" stroke-linecap="round" stroke-linejoin="round"/>
<rect x="25.25" y="25.2" width="26" height="11.6" rx="5.8" fill="white" stroke="#344054" strokeWidth="2"/>
<path d="M31.3473 32.8182L31.4361 31.4439L30.2855 32.2145L29.8097 31.3764L31.049 30.7727L29.8097 30.169L30.2855 29.331L31.4361 30.1016L31.3473 28.7273H32.3026L32.2102 30.1016L33.3608 29.331L33.8366 30.169L32.6009 30.7727L33.8366 31.3764L33.3608 32.2145L32.2102 31.4439L32.3026 32.8182H31.3473Z" fill="#D92D20"/>
<path d="M38.3473 32.8182L38.4361 31.4439L37.2855 32.2145L36.8097 31.3764L38.049 30.7727L36.8097 30.169L37.2855 29.331L38.4361 30.1016L38.3473 28.7273H39.3026L39.2102 30.1016L40.3608 29.331L40.8366 30.169L39.6009 30.7727L40.8366 31.3764L40.3608 32.2145L39.2102 31.4439L39.3026 32.8182H38.3473Z" fill="#D92D20"/>
<path d="M44.3473 32.8182L44.4361 31.4439L43.2855 32.2145L42.8097 31.3764L44.049 30.7727L42.8097 30.169L43.2855 29.331L44.4361 30.1016L44.3473 28.7273H45.3026L45.2102 30.1016L46.3608 29.331L46.8366 30.169L45.6009 30.7727L46.8366 31.3764L46.3608 32.2145L45.2102 31.4439L45.3026 32.8182H44.3473Z" fill="#D92D20"/>
<path d="M17.7501 36.1999C19.0756 36.1999 20.1501 35.1254 20.1501 33.7999C20.1501 32.4744 19.0756 31.3999 17.7501 31.3999C16.4246 31.3999 15.3501 32.4744 15.3501 33.7999C15.3501 35.1254 16.4246 36.1999 17.7501 36.1999Z" stroke="#D92D20" strokeWidth="2" stroke-linecap="round" stroke-linejoin="round"/>
<path d="M17.7503 13.2668C19.5913 13.2668 21.0837 11.7744 21.0837 9.93343C21.0837 8.09248 19.5913 6.6001 17.7503 6.6001C15.9094 6.6001 14.417 8.09248 14.417 9.93343C14.417 11.7744 15.9094 13.2668 17.7503 13.2668Z" stroke="#344054" strokeWidth="2" stroke-linecap="round" stroke-linejoin="round"/>
<path d="M23.4768 21.5336C23.4768 18.9536 20.9101 16.8669 17.7501 16.8669C14.5901 16.8669 12.0234 18.9536 12.0234 21.5336" stroke="#344054" strokeWidth="2" stroke-linecap="round" stroke-linejoin="round"/>
</svg>
