<svg width="9" height="9" viewBox="0 0 9 9" fill="none" xmlns="http://www.w3.org/2000/svg">
<path d="M5.16129 4.4898L8.8918 0.769278C8.96552 0.683423 9.00404 0.572985 8.99966 0.460034C8.99529 0.347082 8.94834 0.239937 8.8682 0.160009C8.78806 0.0800806 8.68062 0.0332564 8.56737 0.0288936C8.45411 0.0245308 8.34338 0.0629507 8.25729 0.136475L4.52679 3.857L0.796295 0.131987C0.711558 0.0474773 0.59663 0 0.476795 0C0.356959 0 0.242031 0.0474773 0.157295 0.131987C0.0725579 0.216497 0.0249533 0.331118 0.0249533 0.450633C0.0249533 0.570148 0.0725579 0.684768 0.157295 0.769278L3.89229 4.4898L0.157295 8.21032C0.110188 8.25056 0.0719286 8.30007 0.0449182 8.35575C0.0179077 8.41143 0.00272911 8.47207 0.000335336 8.53388C-0.00205844 8.59569 0.00838402 8.65732 0.0310076 8.71492C0.0536311 8.77251 0.0879473 8.82481 0.131802 8.86855C0.175657 8.91229 0.228103 8.94651 0.285849 8.96908C0.343595 8.99164 0.405395 9.00205 0.467369 8.99967C0.529342 8.99728 0.590152 8.98214 0.645981 8.9552C0.70181 8.92826 0.751453 8.89011 0.791794 8.84313L4.52679 5.1226L8.25729 8.84313C8.34338 8.91665 8.45411 8.95507 8.56737 8.95071C8.68062 8.94634 8.78806 8.89952 8.8682 8.81959C8.94834 8.73967 8.99529 8.63252 8.99966 8.51957C9.00404 8.40662 8.96552 8.29618 8.8918 8.21032L5.16129 4.4898Z" fill="white"/>
</svg>
